M48
;Layer_Color=9474304
;FILE_FORMAT=2:5
INCH,LZ
;TYPE=PLATED
T1F00S00C0.01181
T2F00S00C0.02750
T4F00S00C0.03500
%
T01
X004865Y-00064
Y-00025
Y00014
X00461Y0014
X00514
X00554
Y00196
X00488Y00187
X00518Y00246
X00611Y00244
X00661Y0029
X00607Y00373
X0062Y00419
X00557Y0043
X0057263Y00477
X00541Y00535
X00616Y00534
X00662Y00573
X00741Y00564
Y00609
X00742Y00657
X007Y00719
X00678
Y00742
X007
X00723
X00775Y00735
Y00762
X00772Y00845
Y0087267
Y0090033
X00709Y00887
X00678
X00693Y00871
X0061Y00844
X00583
Y00769
X0061
X00462Y0078
Y00813
X00477Y00938
X00599Y00939
X00502Y00496
X0054Y00374
X00734Y00395
X00741Y00444
X0074Y00515
X00802Y00516
X00824Y0051
X00802Y00408
Y00321
Y00209
X00753Y00177
X00778Y00151
Y001092
X00727
Y00151
Y00058
X00682
X00633
X00577Y00078
X0060547Y-0005169
X00655Y-0001017
X00727Y0
X0070453Y-00052
X00871Y00092
X00455Y00014
X004235
X00392
X003605
X00329
Y-00025
X003605
X00392
X004235
X00455
Y-00064
X004235
X00392
X003605
X00329
X0021453Y-0005169
X00165Y-0001017
X00095Y-00018
Y000244
Y000668
Y001092
Y001516
X00052
Y001092
Y000668
X00004Y001092
X-00059Y00085
X00005Y00204
X00061Y00209
X00078Y00226
X00048Y00247
X00057Y0027
X00019Y00311
X00156Y00346
X0018Y00382
X00335Y00366
X00359Y00389
X00421Y00404
X00438Y00497
X0038Y00512
X00325Y00513
X0020281Y0058181
Y0060739
X0019Y0065
Y00692
X0015675
X001235
X0009025
X00057
Y0065
Y00608
X00291Y0078
Y00813
X00411
X004365
Y0078
X00411
X0037Y00938
X00347Y00961
X00327Y00198
X00352Y00173
X00377Y00148
X00295Y0014667
X00259
X00223
Y0010833
X00259
X00223Y0007
X00245Y00178
X00225Y00251
X003Y00222
X00417Y00193
X00446Y00246
X00127Y00188
X0011547Y-0005139
X00175Y0100698
Y0108572
Y0116446
X00208Y0114
X00237Y0111
X00277Y01138
X00302Y01113
X00327Y01088
X00352Y01063
X00377Y01038
X00402Y01013
X00427Y00988
X00452Y00963
X00324Y00984
X00297Y01031
X00266Y01063
X00252Y01163
X00227Y01188
X00246Y01216
X00203
Y01268
Y01307
Y01346
Y01385
Y01424
Y01471
Y01502
X001935Y01572
X00158
X001225
X00087
X00229
X002645
X003
X003355
X00371
X004065
X00442
X00409Y01434
X00451Y01343
X00426Y01318
X00401Y01293
X00376Y01268
X00333
X0029
X00247
X00289Y01216
X00332
X00375
X00413Y01236
X00438Y01261
X003385Y01359
Y01502
X001635Y012825
X00124Y01283
X0017Y012432
X00001Y0131
X00463Y01286
X00488Y01311
X00513Y01336
X00538Y01361
X00563Y01386
X00588Y01411
X00613Y01436
X00638Y01461
X00626Y01518
X00651Y01543
X00655Y01572
X006195
X00584
X005485
X00513
X004775
X00474Y01502
X00526Y01418
X00551Y01443
X00576Y01468
X00601Y01493
X00599Y01368
Y01329
Y0129
Y01251
Y01212
Y01173
Y01134
Y01095
Y01056
Y01017
Y00978
X00736Y01047
X00761
X00736Y01206
X00726Y01572
X006905
X007615
X00501Y01393
X00476Y01368
T02
X005055Y0009
X003145
T04
X00462Y00297
X00562
X0086Y0026
Y0016
Y0036
Y0046
Y0056
Y0066
Y0076
Y0086
Y0096
X-0004
Y0086
Y0076
Y0066
Y0056
Y0046
Y0036
Y0026
Y0016
X00262Y00297
X00362
X-0004Y0106
Y0116
Y0126
Y0136
Y0146
Y0156
X0086
Y0146
Y0136
Y0126
Y0116
Y0106
M30
