G04 Layer_Physical_Order=2*
G04 Layer_Color=16711680*
%FSLAX25Y25*%
%MOIN*%
G70*
G01*
G75*
%ADD22C,0.01500*%
%ADD24C,0.00700*%
%ADD25C,0.03000*%
%ADD34C,0.06900*%
%ADD35R,0.06900X0.06900*%
%ADD36C,0.11500*%
%ADD37C,0.06900*%
%ADD38R,0.06900X0.06900*%
%ADD39C,0.04724*%
%ADD40O,0.05906X0.07480*%
%ADD41C,0.02362*%
G36*
X82784Y44752D02*
X82708Y44922D01*
X82620Y45075D01*
X82520Y45210D01*
X82408Y45327D01*
X82284Y45425D01*
X82147Y45506D01*
X81998Y45569D01*
X81838Y45614D01*
X81665Y45641D01*
X81480Y45650D01*
Y46350D01*
X81665Y46359D01*
X81838Y46386D01*
X81998Y46431D01*
X82147Y46494D01*
X82284Y46575D01*
X82408Y46674D01*
X82520Y46790D01*
X82620Y46925D01*
X82708Y47078D01*
X82784Y47249D01*
Y44752D01*
D02*
G37*
G36*
X138Y49643D02*
X2Y49478D01*
X-119Y49269D01*
X-225Y49017D01*
X-316Y48722D01*
X-393Y48382D01*
X-454Y48000D01*
X-532Y47104D01*
X-549Y46591D01*
X-550Y46035D01*
X-3965Y49450D01*
X-3409Y49452D01*
X-2000Y49546D01*
X-1618Y49607D01*
X-1278Y49684D01*
X-983Y49775D01*
X-731Y49881D01*
X-522Y50002D01*
X-357Y50138D01*
X138Y49643D01*
D02*
G37*
G36*
X82522Y70002D02*
X82731Y69881D01*
X82983Y69775D01*
X83279Y69684D01*
X83618Y69607D01*
X84000Y69546D01*
X84896Y69468D01*
X85409Y69451D01*
X85966Y69450D01*
X82550Y66035D01*
X82548Y66591D01*
X82454Y68000D01*
X82393Y68382D01*
X82316Y68721D01*
X82225Y69017D01*
X82119Y69269D01*
X81998Y69478D01*
X81862Y69643D01*
X82357Y70138D01*
X82522Y70002D01*
D02*
G37*
G36*
X82918Y39597D02*
X83104Y39470D01*
X83305Y39369D01*
X83521Y39291D01*
X83752Y39238D01*
X83998Y39209D01*
X84260Y39205D01*
X84536Y39226D01*
X84828Y39270D01*
X85135Y39340D01*
X83536Y37741D01*
Y33585D01*
X83141Y33977D01*
X82078Y34907D01*
X81765Y35134D01*
X81471Y35320D01*
X81197Y35464D01*
X80944Y35567D01*
X80711Y35629D01*
X80498Y35650D01*
Y36350D01*
X80711Y36371D01*
X80944Y36433D01*
X81197Y36536D01*
X81471Y36680D01*
X81765Y36866D01*
X82078Y37093D01*
X82767Y37672D01*
X82791Y37694D01*
X82795Y37740D01*
X82790Y38002D01*
X82762Y38248D01*
X82709Y38479D01*
X82631Y38695D01*
X82530Y38896D01*
X82403Y39082D01*
X82253Y39252D01*
X82748Y39748D01*
X82918Y39597D01*
D02*
G37*
G36*
X138Y39643D02*
X2Y39478D01*
X-119Y39269D01*
X-225Y39017D01*
X-316Y38721D01*
X-393Y38382D01*
X-454Y38000D01*
X-532Y37104D01*
X-549Y36591D01*
X-550Y36035D01*
X-3965Y39450D01*
X-3409Y39452D01*
X-2000Y39546D01*
X-1618Y39607D01*
X-1278Y39684D01*
X-983Y39775D01*
X-731Y39881D01*
X-522Y40002D01*
X-357Y40138D01*
X138Y39643D01*
D02*
G37*
G36*
X57009Y50077D02*
X56844Y49535D01*
X56529Y49472D01*
X55906Y49056D01*
X55491Y48434D01*
X55345Y47700D01*
X55491Y46966D01*
X55906Y46344D01*
X56529Y45928D01*
X57263Y45782D01*
X57997Y45928D01*
X58619Y46344D01*
X58877Y46729D01*
X77257D01*
X81429Y42557D01*
Y39500D01*
X81511Y39090D01*
X81714Y38787D01*
X81718Y38780D01*
X81720Y38777D01*
X81743Y38743D01*
X81806Y38680D01*
X81812Y38673D01*
X81676Y38496D01*
X81204Y37356D01*
X81113Y37298D01*
X80895Y37183D01*
X80717Y37111D01*
X80584Y37075D01*
X80534Y37071D01*
X77900D01*
X77900Y37071D01*
X77490Y36989D01*
X77143Y36757D01*
X77143Y36757D01*
X64457Y24071D01*
X62855D01*
X62446Y23989D01*
X62098Y23757D01*
X61581Y23239D01*
X51519D01*
X50639Y24119D01*
Y26331D01*
X50558Y26741D01*
X50377Y27012D01*
X50524Y27204D01*
X50929Y28183D01*
X51471D01*
X51876Y27204D01*
X52670Y26170D01*
X53704Y25376D01*
X54908Y24877D01*
X56200Y24707D01*
X57492Y24877D01*
X58696Y25376D01*
X59730Y26170D01*
X60524Y27204D01*
X61023Y28408D01*
X61193Y29700D01*
X61023Y30992D01*
X60524Y32196D01*
X59730Y33230D01*
X58696Y34024D01*
X57492Y34523D01*
X56200Y34693D01*
X54908Y34523D01*
X53704Y34024D01*
X53526Y33888D01*
X52839Y34574D01*
Y39188D01*
X53857Y40205D01*
X54089Y40552D01*
X54171Y40962D01*
Y51596D01*
X54834Y51728D01*
X55148Y51938D01*
X57009Y50077D01*
D02*
G37*
G36*
X82522Y80002D02*
X82731Y79881D01*
X82983Y79775D01*
X83279Y79684D01*
X83618Y79607D01*
X84000Y79546D01*
X84896Y79468D01*
X85409Y79452D01*
X85966Y79450D01*
X82550Y76034D01*
X82548Y76591D01*
X82454Y78000D01*
X82393Y78382D01*
X82316Y78721D01*
X82225Y79017D01*
X82119Y79269D01*
X81998Y79478D01*
X81862Y79643D01*
X82357Y80138D01*
X82522Y80002D01*
D02*
G37*
G36*
X81423Y157884D02*
X81177Y157292D01*
X81007Y156000D01*
X81177Y154708D01*
X81676Y153504D01*
X82470Y152470D01*
X83504Y151676D01*
X84483Y151271D01*
Y150729D01*
X83504Y150324D01*
X82470Y149530D01*
X81676Y148496D01*
X81177Y147292D01*
X81007Y146000D01*
X81177Y144708D01*
X81676Y143504D01*
X82470Y142470D01*
X83504Y141676D01*
X84483Y141271D01*
Y140729D01*
X83504Y140324D01*
X82470Y139530D01*
X81676Y138496D01*
X81177Y137292D01*
X81007Y136000D01*
X81177Y134708D01*
X81676Y133504D01*
X82470Y132470D01*
X83504Y131676D01*
X84483Y131271D01*
Y130729D01*
X83504Y130324D01*
X82470Y129530D01*
X81676Y128496D01*
X81177Y127292D01*
X81007Y126000D01*
X81177Y124708D01*
X81676Y123504D01*
X82470Y122470D01*
X83504Y121676D01*
X84483Y121271D01*
Y120729D01*
X83504Y120324D01*
X82470Y119530D01*
X81676Y118496D01*
X81177Y117292D01*
X81007Y116000D01*
X81177Y114708D01*
X81676Y113504D01*
X82470Y112470D01*
X83504Y111676D01*
X84483Y111271D01*
Y110729D01*
X83504Y110324D01*
X82470Y109530D01*
X81676Y108496D01*
X81177Y107292D01*
X81007Y106000D01*
X81177Y104708D01*
X81676Y103504D01*
X82470Y102470D01*
X83504Y101676D01*
X84708Y101177D01*
X86000Y101007D01*
X87292Y101177D01*
X88496Y101676D01*
X89530Y102470D01*
X89711Y102705D01*
X90184Y102544D01*
Y100450D01*
X86500D01*
Y96000D01*
Y91550D01*
X90184D01*
Y89456D01*
X89711Y89295D01*
X89530Y89530D01*
X88496Y90324D01*
X87292Y90823D01*
X86000Y90993D01*
X84708Y90823D01*
X83504Y90324D01*
X82470Y89530D01*
X81676Y88496D01*
X81177Y87292D01*
X81007Y86000D01*
X81177Y84708D01*
X81623Y83633D01*
X81391Y83171D01*
X73068D01*
X72861Y83671D01*
X74645Y85455D01*
X74966Y85934D01*
X75078Y86500D01*
Y102565D01*
X75578Y102886D01*
X76100Y102782D01*
X76834Y102928D01*
X77456Y103344D01*
X77872Y103966D01*
X78018Y104700D01*
X77872Y105434D01*
X77456Y106056D01*
X76834Y106472D01*
X76100Y106618D01*
X75578Y106514D01*
X75078Y106835D01*
Y119427D01*
X75372Y119866D01*
X75518Y120600D01*
X75372Y121334D01*
X74956Y121956D01*
X74334Y122372D01*
X73600Y122518D01*
X72866Y122372D01*
X72244Y121956D01*
X71828Y121334D01*
X71682Y120600D01*
X71828Y119866D01*
X72122Y119427D01*
Y105873D01*
X71828Y105434D01*
X71682Y104700D01*
X71828Y103966D01*
X72122Y103527D01*
Y87112D01*
X70888Y85878D01*
X62173D01*
X61734Y86172D01*
X61000Y86318D01*
X60266Y86172D01*
X59827Y85878D01*
X59473D01*
X59034Y86172D01*
X58300Y86318D01*
X57566Y86172D01*
X56944Y85756D01*
X56528Y85134D01*
X56382Y84400D01*
X56447Y84074D01*
X55986Y83828D01*
X22611Y117203D01*
X22263Y117436D01*
X21854Y117517D01*
X19047D01*
X18856Y117803D01*
X18234Y118218D01*
X17500Y118364D01*
X16766Y118218D01*
X16144Y117803D01*
X15728Y117180D01*
X15582Y116446D01*
X15728Y115712D01*
X16144Y115090D01*
X16766Y114674D01*
X17500Y114529D01*
X18234Y114674D01*
X18856Y115090D01*
X19047Y115376D01*
X21410D01*
X26681Y110105D01*
X26490Y109643D01*
X19047D01*
X18856Y109929D01*
X18234Y110344D01*
X17500Y110490D01*
X16766Y110344D01*
X16144Y109929D01*
X15728Y109306D01*
X15582Y108572D01*
X15728Y107838D01*
X16144Y107216D01*
X16766Y106800D01*
X17500Y106655D01*
X18234Y106800D01*
X18856Y107216D01*
X19047Y107502D01*
X27304D01*
X32575Y102231D01*
X32384Y101769D01*
X19047D01*
X18856Y102055D01*
X18234Y102470D01*
X17500Y102616D01*
X16766Y102470D01*
X16144Y102055D01*
X15728Y101432D01*
X15582Y100698D01*
X15728Y99964D01*
X16144Y99342D01*
X16766Y98927D01*
X17500Y98781D01*
X18234Y98927D01*
X18856Y99342D01*
X19047Y99628D01*
X33158D01*
X54243Y78543D01*
X54243Y78543D01*
X54590Y78311D01*
X55000Y78229D01*
X55000Y78229D01*
X56396D01*
X56631Y77789D01*
X56528Y77634D01*
X56382Y76900D01*
X56528Y76166D01*
X56944Y75544D01*
X57566Y75128D01*
X58300Y74982D01*
X59034Y75128D01*
X59473Y75422D01*
X59827D01*
X60266Y75128D01*
X61000Y74982D01*
X61734Y75128D01*
X62173Y75422D01*
X75758D01*
X76022Y75027D01*
Y74673D01*
X75728Y74234D01*
X75582Y73500D01*
X75728Y72766D01*
X76144Y72144D01*
X76766Y71728D01*
X77500Y71582D01*
X78234Y71728D01*
X78856Y72144D01*
X79129Y72553D01*
X79629Y72401D01*
Y71300D01*
X79711Y70890D01*
X79943Y70543D01*
X81378Y69108D01*
X81410Y69069D01*
X81479Y68950D01*
X81554Y68773D01*
X81626Y68538D01*
X81650Y68432D01*
X81177Y67292D01*
X81007Y66000D01*
X81177Y64708D01*
X81676Y63504D01*
X82470Y62470D01*
X83504Y61676D01*
X84483Y61271D01*
Y60729D01*
X83504Y60324D01*
X82470Y59530D01*
X81676Y58496D01*
X81177Y57292D01*
X81007Y56000D01*
X81177Y54708D01*
X81676Y53504D01*
X82470Y52470D01*
X83504Y51676D01*
X84483Y51271D01*
Y50729D01*
X83504Y50324D01*
X82470Y49530D01*
X81676Y48496D01*
X81503Y48079D01*
X81013Y47981D01*
X79037Y49957D01*
X78690Y50189D01*
X78280Y50271D01*
X59843D01*
X55857Y54257D01*
X55856Y54258D01*
X55456Y54856D01*
X54834Y55272D01*
X54100Y55418D01*
X53366Y55272D01*
X52744Y54856D01*
X52328Y54234D01*
X52182Y53500D01*
X52256Y53127D01*
X52111Y52910D01*
X52029Y52500D01*
Y41406D01*
X51012Y40388D01*
X50780Y40041D01*
X50698Y39631D01*
Y34131D01*
X50780Y33721D01*
X51012Y33374D01*
X52012Y32374D01*
X51876Y32196D01*
X51471Y31217D01*
X50929D01*
X50524Y32196D01*
X49730Y33230D01*
X48696Y34024D01*
X47492Y34523D01*
X46200Y34693D01*
X44908Y34523D01*
X43704Y34024D01*
X42670Y33230D01*
X41876Y32196D01*
X41377Y30992D01*
X41207Y29700D01*
X41377Y28408D01*
X41876Y27204D01*
X42670Y26170D01*
X43704Y25376D01*
X44908Y24877D01*
X46200Y24707D01*
X47492Y24877D01*
X48083Y25122D01*
X48498Y24844D01*
Y23676D01*
X48580Y23266D01*
X48812Y22919D01*
X50319Y21412D01*
X50666Y21180D01*
X51076Y21098D01*
X62024D01*
X62434Y21180D01*
X62781Y21412D01*
X63299Y21929D01*
X64900D01*
X65310Y22011D01*
X65657Y22243D01*
X78343Y34929D01*
X80534D01*
X80584Y34925D01*
X80717Y34889D01*
X80895Y34817D01*
X81113Y34702D01*
X81204Y34644D01*
X81676Y33504D01*
X82470Y32470D01*
X83504Y31676D01*
X84708Y31177D01*
X86000Y31007D01*
X87292Y31177D01*
X88496Y31676D01*
X89530Y32470D01*
X89711Y32705D01*
X90184Y32544D01*
Y30450D01*
X86500D01*
Y26000D01*
Y21550D01*
X90184D01*
Y19456D01*
X89711Y19295D01*
X89530Y19530D01*
X88496Y20324D01*
X87292Y20823D01*
X86000Y20993D01*
X84708Y20823D01*
X83504Y20324D01*
X82470Y19530D01*
X81676Y18496D01*
X81177Y17292D01*
X81007Y16000D01*
X81177Y14708D01*
X81676Y13504D01*
X82470Y12470D01*
X83504Y11676D01*
X84708Y11177D01*
X86000Y11007D01*
X87292Y11177D01*
X88496Y11676D01*
X89530Y12470D01*
X89711Y12705D01*
X90184Y12544D01*
Y0D01*
X90188Y-17D01*
X90032Y-1598D01*
X89566Y-3134D01*
X88809Y-4550D01*
X87791Y-5791D01*
X86550Y-6809D01*
X85134Y-7566D01*
X83598Y-8032D01*
X82017Y-8188D01*
X82000Y-8184D01*
X0D01*
X-17Y-8188D01*
X-1598Y-8032D01*
X-3134Y-7566D01*
X-4550Y-6809D01*
X-5791Y-5791D01*
X-6809Y-4550D01*
X-7566Y-3134D01*
X-8032Y-1598D01*
X-8188Y-17D01*
X-8184Y0D01*
Y12544D01*
X-7711Y12705D01*
X-7530Y12470D01*
X-6496Y11676D01*
X-5292Y11177D01*
X-4000Y11007D01*
X-2708Y11177D01*
X-1504Y11676D01*
X-470Y12470D01*
X324Y13504D01*
X823Y14708D01*
X993Y16000D01*
X823Y17292D01*
X324Y18496D01*
X-470Y19530D01*
X-1504Y20324D01*
X-2708Y20823D01*
X-4000Y20993D01*
X-5292Y20823D01*
X-6496Y20324D01*
X-7530Y19530D01*
X-7711Y19295D01*
X-8184Y19456D01*
Y21550D01*
X-4500D01*
Y26000D01*
Y30450D01*
X-8184D01*
Y32544D01*
X-7711Y32705D01*
X-7530Y32470D01*
X-6496Y31676D01*
X-5292Y31177D01*
X-4000Y31007D01*
X-2708Y31177D01*
X-1504Y31676D01*
X-470Y32470D01*
X324Y33504D01*
X823Y34708D01*
X993Y36000D01*
X823Y37292D01*
X350Y38432D01*
X374Y38538D01*
X446Y38773D01*
X521Y38950D01*
X590Y39069D01*
X622Y39108D01*
X2750Y41236D01*
X6543Y37443D01*
X6890Y37211D01*
X7300Y37129D01*
X16453D01*
X16644Y36844D01*
X17266Y36428D01*
X18000Y36282D01*
X18734Y36428D01*
X19356Y36844D01*
X19772Y37466D01*
X19918Y38200D01*
X19772Y38934D01*
X19356Y39556D01*
X18734Y39972D01*
X18000Y40118D01*
X17266Y39972D01*
X16644Y39556D01*
X16453Y39271D01*
X7743D01*
X4471Y42544D01*
Y110277D01*
X16663Y122469D01*
X17000Y122403D01*
X17734Y122548D01*
X18356Y122964D01*
X18772Y123586D01*
X18918Y124320D01*
X18772Y125054D01*
X18356Y125677D01*
X17734Y126092D01*
X17482Y126143D01*
X17376Y126673D01*
X17706Y126894D01*
X18122Y127516D01*
X18268Y128250D01*
X18122Y128984D01*
X17706Y129606D01*
X17084Y130022D01*
X16350Y130168D01*
X15616Y130022D01*
X14994Y129606D01*
X14666Y129115D01*
X14453Y129080D01*
X14208Y129093D01*
X14114Y129121D01*
X13756Y129656D01*
X13134Y130072D01*
X12400Y130218D01*
X11666Y130072D01*
X11044Y129656D01*
X10628Y129034D01*
X10482Y128300D01*
X10549Y127963D01*
X864Y118278D01*
X374Y118376D01*
X324Y118496D01*
X-470Y119530D01*
X-1504Y120324D01*
X-2483Y120729D01*
Y121271D01*
X-1504Y121676D01*
X-470Y122470D01*
X324Y123504D01*
X823Y124708D01*
X993Y126000D01*
X823Y127292D01*
X324Y128496D01*
X-470Y129530D01*
X-1504Y130324D01*
X-2708Y130823D01*
X-4000Y130993D01*
X-5292Y130823D01*
X-6496Y130324D01*
X-7530Y129530D01*
X-7711Y129295D01*
X-8184Y129456D01*
Y133322D01*
X-7684Y133492D01*
X-7174Y132826D01*
X-6244Y132113D01*
X-5162Y131665D01*
X-4500Y131577D01*
Y136000D01*
Y140423D01*
X-5162Y140336D01*
X-6244Y139887D01*
X-7174Y139174D01*
X-7684Y138508D01*
X-8184Y138678D01*
Y142544D01*
X-7711Y142705D01*
X-7530Y142470D01*
X-6496Y141676D01*
X-5292Y141177D01*
X-4000Y141007D01*
X-2708Y141177D01*
X-1504Y141676D01*
X-470Y142470D01*
X324Y143504D01*
X823Y144708D01*
X993Y146000D01*
X823Y147292D01*
X324Y148496D01*
X-470Y149530D01*
X-1504Y150324D01*
X-2483Y150729D01*
Y151271D01*
X-1504Y151676D01*
X-470Y152470D01*
X324Y153504D01*
X823Y154708D01*
X993Y156000D01*
X823Y157292D01*
X577Y157884D01*
X855Y158300D01*
X81145D01*
X81423Y157884D01*
D02*
G37*
G36*
X85958Y82550D02*
X85404Y82550D01*
X84000Y82457D01*
X83619Y82396D01*
X83280Y82319D01*
X82985Y82228D01*
X82732Y82121D01*
X82523Y81999D01*
X82357Y81862D01*
X81862Y82357D01*
X81999Y82523D01*
X82121Y82732D01*
X82228Y82985D01*
X82319Y83280D01*
X82396Y83619D01*
X82457Y84000D01*
X82534Y84893D01*
X82550Y85404D01*
X82550Y85958D01*
X85958Y82550D01*
D02*
G37*
%LPC*%
G36*
X20281Y62983D02*
X19423Y62812D01*
X18695Y62326D01*
X18209Y61598D01*
X18038Y60739D01*
Y58181D01*
Y46019D01*
X18209Y45160D01*
X18695Y44433D01*
X22757Y40371D01*
Y39229D01*
X11083Y27556D01*
X10513D01*
X9654Y27385D01*
X8926Y26899D01*
X4514Y22486D01*
X4028Y21758D01*
X3857Y20900D01*
X4028Y20042D01*
X4514Y19314D01*
X5242Y18828D01*
X6100Y18657D01*
X6958Y18828D01*
X7686Y19314D01*
X11442Y23069D01*
X12013D01*
X12871Y23240D01*
X13599Y23726D01*
X20874Y31002D01*
X21348Y30769D01*
X21207Y29700D01*
X21377Y28408D01*
X21876Y27204D01*
X22670Y26170D01*
X23704Y25376D01*
X24908Y24877D01*
X26200Y24707D01*
X27492Y24877D01*
X28696Y25376D01*
X29730Y26170D01*
X30524Y27204D01*
X31023Y28408D01*
X31193Y29700D01*
X31023Y30992D01*
X30524Y32196D01*
X29730Y33230D01*
X28696Y34024D01*
X27492Y34523D01*
X26200Y34693D01*
X25131Y34552D01*
X24898Y35026D01*
X26586Y36714D01*
X27072Y37442D01*
X27243Y38300D01*
Y41300D01*
X27072Y42158D01*
X26586Y42886D01*
X22524Y46948D01*
Y58181D01*
Y60739D01*
X22354Y61598D01*
X21867Y62326D01*
X21139Y62812D01*
X20281Y62983D01*
D02*
G37*
G36*
X40650Y29200D02*
X36700D01*
Y25250D01*
X40650D01*
Y29200D01*
D02*
G37*
G36*
X35700D02*
X31750D01*
Y25250D01*
X35700D01*
Y29200D01*
D02*
G37*
G36*
X82000Y7285D02*
X80579Y7145D01*
X79212Y6730D01*
X77953Y6057D01*
X76849Y5151D01*
X75943Y4047D01*
X75270Y2788D01*
X74855Y1421D01*
X74715Y0D01*
X74855Y-1421D01*
X75270Y-2788D01*
X75943Y-4047D01*
X76849Y-5151D01*
X77953Y-6057D01*
X79212Y-6730D01*
X80579Y-7145D01*
X82000Y-7285D01*
X83421Y-7145D01*
X84788Y-6730D01*
X86047Y-6057D01*
X87151Y-5151D01*
X88057Y-4047D01*
X88731Y-2788D01*
X89145Y-1421D01*
X89285Y0D01*
X89145Y1421D01*
X88731Y2788D01*
X88057Y4047D01*
X87151Y5151D01*
X86047Y6057D01*
X84788Y6730D01*
X83421Y7145D01*
X82000Y7285D01*
D02*
G37*
G36*
X0D02*
X-1421Y7145D01*
X-2788Y6730D01*
X-4047Y6057D01*
X-5151Y5151D01*
X-6057Y4047D01*
X-6730Y2788D01*
X-7145Y1421D01*
X-7285Y0D01*
X-7145Y-1421D01*
X-6730Y-2788D01*
X-6057Y-4047D01*
X-5151Y-5151D01*
X-4047Y-6057D01*
X-2788Y-6730D01*
X-1421Y-7145D01*
X0Y-7285D01*
X1421Y-7145D01*
X2788Y-6730D01*
X4047Y-6057D01*
X5151Y-5151D01*
X6057Y-4047D01*
X6730Y-2788D01*
X7145Y-1421D01*
X7285Y0D01*
X7145Y1421D01*
X6730Y2788D01*
X6057Y4047D01*
X5151Y5151D01*
X4047Y6057D01*
X2788Y6730D01*
X1421Y7145D01*
X0Y7285D01*
D02*
G37*
G36*
X85500Y25500D02*
X81550D01*
Y21550D01*
X85500D01*
Y25500D01*
D02*
G37*
G36*
X450D02*
X-3500D01*
Y21550D01*
X450D01*
Y25500D01*
D02*
G37*
G36*
Y30450D02*
X-3500D01*
Y26500D01*
X450D01*
Y30450D01*
D02*
G37*
G36*
X423Y135500D02*
X-3500D01*
Y131577D01*
X-2838Y131665D01*
X-1756Y132113D01*
X-826Y132826D01*
X-113Y133756D01*
X335Y134838D01*
X423Y135500D01*
D02*
G37*
G36*
X85500Y100450D02*
X81550D01*
Y96500D01*
X85500D01*
Y100450D01*
D02*
G37*
G36*
Y95500D02*
X81550D01*
Y91550D01*
X85500D01*
Y95500D01*
D02*
G37*
G36*
X-3500Y140423D02*
Y136500D01*
X423D01*
X335Y137162D01*
X-113Y138244D01*
X-826Y139174D01*
X-1756Y139887D01*
X-2838Y140336D01*
X-3500Y140423D01*
D02*
G37*
G36*
X85500Y30450D02*
X81550D01*
Y26500D01*
X85500D01*
Y30450D01*
D02*
G37*
G36*
X35700Y34150D02*
X31750D01*
Y30200D01*
X35700D01*
Y34150D01*
D02*
G37*
G36*
X40650D02*
X36700D01*
Y30200D01*
X40650D01*
Y34150D01*
D02*
G37*
%LPD*%
D22*
X73600Y104700D02*
Y120600D01*
X58300Y84400D02*
X61000D01*
X58300Y76900D02*
X61000D01*
X76800D01*
X77500Y76200D01*
Y73500D02*
Y76200D01*
X73600Y86500D02*
Y104700D01*
X71500Y84400D02*
X73600Y86500D01*
X61000Y84400D02*
X71500D01*
D24*
X77900Y36000D02*
X86000D01*
X64900Y23000D02*
X77900Y36000D01*
X62855Y23000D02*
X64900D01*
X62024Y22169D02*
X62855Y23000D01*
X51076Y22169D02*
X62024D01*
X49569Y23676D02*
X51076Y22169D01*
X49569Y23676D02*
Y26331D01*
X46200Y29700D02*
X49569Y26331D01*
X53100Y52500D02*
X54100Y53500D01*
X53100Y40962D02*
Y52500D01*
X51769Y39631D02*
X53100Y40962D01*
X51769Y34131D02*
Y39631D01*
Y34131D02*
X56200Y29700D01*
X-4000Y36000D02*
X2000Y42000D01*
X-4000Y46000D02*
X600Y50600D01*
Y116500D01*
X12400Y128300D01*
X2000Y42000D02*
Y113900D01*
X16350Y128250D01*
X3400Y110721D02*
X17000Y124320D01*
X3400Y42100D02*
Y110721D01*
Y42100D02*
X7300Y38200D01*
X18000D01*
X54100Y53500D02*
X55100D01*
X59400Y49200D01*
X82100Y82100D02*
X86000Y86000D01*
X81300Y80700D02*
X86000Y76000D01*
X17500Y100698D02*
X33602D01*
X17500Y108572D02*
X27748D01*
X17500Y116446D02*
X21854D01*
X33602Y100698D02*
X55000Y79300D01*
X27748Y108572D02*
X55620Y80700D01*
X21854Y116446D02*
X56200Y82100D01*
X55620Y80700D02*
X81300D01*
X56200Y82100D02*
X82100D01*
X82500Y39500D02*
X86000Y36000D01*
X57300Y47800D02*
X77700D01*
X82500Y43000D01*
Y39500D02*
Y43000D01*
X78280Y49200D02*
X81480Y46000D01*
X86000D01*
X59400Y49200D02*
X78280D01*
X80700Y71300D02*
Y78100D01*
X79500Y79300D02*
X80700Y78100D01*
Y71300D02*
X86000Y66000D01*
X55000Y79300D02*
X79500D01*
D25*
X25000Y38300D02*
Y41300D01*
X12013Y25313D02*
X25000Y38300D01*
X10513Y25313D02*
X12013D01*
X20281Y58181D02*
Y60739D01*
Y46019D02*
Y58181D01*
Y46019D02*
X25000Y41300D01*
X6100Y20900D02*
X10513Y25313D01*
D34*
X56200Y29700D02*
D03*
X46200D02*
D03*
X26200D02*
D03*
D35*
X36200D02*
D03*
D36*
X82000Y172000D02*
D03*
X0D02*
D03*
Y0D02*
D03*
X82000D02*
D03*
D37*
X-4000Y16000D02*
D03*
Y56000D02*
D03*
Y46000D02*
D03*
Y36000D02*
D03*
Y76000D02*
D03*
Y86000D02*
D03*
Y96000D02*
D03*
Y156000D02*
D03*
Y146000D02*
D03*
Y136000D02*
D03*
Y126000D02*
D03*
Y116000D02*
D03*
Y106000D02*
D03*
X86000Y16000D02*
D03*
Y56000D02*
D03*
Y46000D02*
D03*
Y36000D02*
D03*
Y66000D02*
D03*
Y76000D02*
D03*
Y86000D02*
D03*
Y156000D02*
D03*
Y146000D02*
D03*
Y136000D02*
D03*
Y126000D02*
D03*
Y116000D02*
D03*
Y106000D02*
D03*
D38*
X-4000Y26000D02*
D03*
Y66000D02*
D03*
X86000Y26000D02*
D03*
Y96000D02*
D03*
D39*
X50550Y9000D02*
D03*
X31450D02*
D03*
D40*
X26700Y-1400D02*
D03*
X55300D02*
D03*
D41*
X35900Y38900D02*
D03*
X77200Y90033D02*
D03*
Y87267D02*
D03*
Y84500D02*
D03*
X20800Y114000D02*
D03*
X23700Y111000D02*
D03*
X70000Y71900D02*
D03*
X67800D02*
D03*
X70000Y74200D02*
D03*
X72300D02*
D03*
X67800D02*
D03*
X48650Y-6400D02*
D03*
X45500D02*
D03*
X42350D02*
D03*
X39200D02*
D03*
X36050D02*
D03*
X32900D02*
D03*
X48650Y-2500D02*
D03*
X45500D02*
D03*
X42350D02*
D03*
X39200D02*
D03*
X36050D02*
D03*
X32900D02*
D03*
Y1400D02*
D03*
X36050D02*
D03*
X39200D02*
D03*
X42350D02*
D03*
X45500D02*
D03*
X48650D02*
D03*
X17500Y108572D02*
D03*
Y100698D02*
D03*
Y116446D02*
D03*
X61000Y84400D02*
D03*
X73600Y104700D02*
D03*
Y120600D02*
D03*
X58300Y84400D02*
D03*
X76100Y104700D02*
D03*
X12400Y128300D02*
D03*
X16350Y128250D02*
D03*
X17000Y124320D02*
D03*
X18000Y38200D02*
D03*
X61000Y76900D02*
D03*
X58300D02*
D03*
X77500Y76200D02*
D03*
Y73500D02*
D03*
X20281Y60739D02*
D03*
Y58181D02*
D03*
X6100Y20900D02*
D03*
X7800Y22600D02*
D03*
X65500Y-1017D02*
D03*
X16500D02*
D03*
X70453Y-5200D02*
D03*
X60547Y-5169D02*
D03*
X11547Y-5139D02*
D03*
X21453Y-5169D02*
D03*
X70900Y88700D02*
D03*
X67800D02*
D03*
X69300Y87100D02*
D03*
X12350Y69200D02*
D03*
X15675D02*
D03*
X19000D02*
D03*
Y65000D02*
D03*
X5700Y60800D02*
D03*
Y65000D02*
D03*
Y69200D02*
D03*
X9025D02*
D03*
X8700Y157200D02*
D03*
X46100Y14000D02*
D03*
X29100Y81300D02*
D03*
X41100D02*
D03*
Y78000D02*
D03*
X43650Y81300D02*
D03*
Y78000D02*
D03*
X46200Y81300D02*
D03*
X29100Y78000D02*
D03*
X46200D02*
D03*
X32400Y98400D02*
D03*
X37000Y93800D02*
D03*
X34700Y96100D02*
D03*
X29700Y103100D02*
D03*
X26600Y106300D02*
D03*
X40100Y129300D02*
D03*
X45100Y134300D02*
D03*
X42600Y131800D02*
D03*
X52600Y141800D02*
D03*
X55100Y144300D02*
D03*
X50100Y139300D02*
D03*
X47600Y136800D02*
D03*
X62600Y151800D02*
D03*
X65100Y154300D02*
D03*
X72600Y157200D02*
D03*
X60100Y149300D02*
D03*
X57600Y146800D02*
D03*
X58800Y141100D02*
D03*
X61300Y143600D02*
D03*
X63800Y146100D02*
D03*
X56300Y138600D02*
D03*
X53800Y136100D02*
D03*
X48800Y131100D02*
D03*
X46300Y128600D02*
D03*
X43800Y126100D02*
D03*
X51300Y133600D02*
D03*
X37500Y121600D02*
D03*
X33200D02*
D03*
X41300Y123600D02*
D03*
X27700Y113800D02*
D03*
X30200Y111300D02*
D03*
X32700Y108800D02*
D03*
X25200Y116300D02*
D03*
X22700Y118800D02*
D03*
X37700Y103800D02*
D03*
X40200Y101300D02*
D03*
X35200Y106300D02*
D03*
X47700Y93800D02*
D03*
X45200Y96300D02*
D03*
X42700Y98800D02*
D03*
X20300Y121600D02*
D03*
X24600D02*
D03*
X28900D02*
D03*
X29000Y126800D02*
D03*
X33300D02*
D03*
X37600D02*
D03*
X24700D02*
D03*
X20300D02*
D03*
Y130700D02*
D03*
Y134600D02*
D03*
Y138500D02*
D03*
Y147100D02*
D03*
Y150200D02*
D03*
Y142400D02*
D03*
X59900Y121200D02*
D03*
Y113400D02*
D03*
Y117300D02*
D03*
Y125100D02*
D03*
Y129000D02*
D03*
Y132900D02*
D03*
Y136800D02*
D03*
Y97800D02*
D03*
Y93900D02*
D03*
Y101700D02*
D03*
Y105600D02*
D03*
Y109500D02*
D03*
X58400Y157200D02*
D03*
X61950D02*
D03*
X69050D02*
D03*
X65500D02*
D03*
X40650D02*
D03*
X47750D02*
D03*
X54850D02*
D03*
X51300D02*
D03*
X76150D02*
D03*
X19350D02*
D03*
X33550D02*
D03*
X26450D02*
D03*
X15800D02*
D03*
X12250D02*
D03*
X33850Y135900D02*
D03*
X44200Y157200D02*
D03*
X37100D02*
D03*
X30000D02*
D03*
X22900D02*
D03*
X80200Y51600D02*
D03*
Y40800D02*
D03*
Y32100D02*
D03*
X47400Y150200D02*
D03*
X33850D02*
D03*
X80200Y20900D02*
D03*
X40900Y143400D02*
D03*
X75300Y17700D02*
D03*
X77800Y15100D02*
D03*
X72700D02*
D03*
X5200Y6680D02*
D03*
X25900Y14667D02*
D03*
Y10833D02*
D03*
X22300Y7000D02*
D03*
Y14667D02*
D03*
X29500D02*
D03*
X22300Y10833D02*
D03*
X48800Y18700D02*
D03*
X61100Y24400D02*
D03*
X57700Y7800D02*
D03*
X55400Y19600D02*
D03*
X41700Y19300D02*
D03*
X55400Y14000D02*
D03*
X51400D02*
D03*
X5200Y15160D02*
D03*
X9500Y10920D02*
D03*
Y15160D02*
D03*
Y6680D02*
D03*
X500Y20400D02*
D03*
X5700Y27000D02*
D03*
X1900Y31100D02*
D03*
X63300Y5800D02*
D03*
X68200D02*
D03*
X15600Y34600D02*
D03*
X33500Y36600D02*
D03*
X4800Y24700D02*
D03*
X400Y10920D02*
D03*
X77800D02*
D03*
X87100Y9200D02*
D03*
X82400Y51000D02*
D03*
X5200Y10920D02*
D03*
X-5900Y8500D02*
D03*
X9500Y2440D02*
D03*
Y-1800D02*
D03*
X72700Y10920D02*
D03*
Y5800D02*
D03*
Y0D02*
D03*
X100Y131000D02*
D03*
X54100Y53500D02*
D03*
X57263Y47700D02*
D03*
X37700Y14800D02*
D03*
X35200Y17300D02*
D03*
X32700Y19800D02*
D03*
X30000Y22200D02*
D03*
X22500Y25100D02*
D03*
X32500Y51300D02*
D03*
X38000Y51200D02*
D03*
X43800Y49700D02*
D03*
X50200Y49600D02*
D03*
X74200Y65700D02*
D03*
X74100Y60900D02*
D03*
Y56400D02*
D03*
X74000Y51500D02*
D03*
X74100Y44400D02*
D03*
X73400Y39500D02*
D03*
X66200Y57300D02*
D03*
X61600Y53400D02*
D03*
X44600Y24600D02*
D03*
X51800D02*
D03*
X66100Y29000D02*
D03*
X12700Y18800D02*
D03*
X42100Y40400D02*
D03*
X62000Y41900D02*
D03*
X24500Y17800D02*
D03*
X54000Y37400D02*
D03*
X60700Y37300D02*
D03*
X55700Y43000D02*
D03*
M02*
