G04 Layer_Color=128*
%FSLAX25Y25*%
%MOIN*%
G70*
G01*
G75*
%ADD11C,0.00500*%
D11*
X54450Y29700D02*
X57950D01*
X56200Y27950D02*
Y31450D01*
X44450Y29700D02*
X47950D01*
X46200Y27950D02*
Y31450D01*
X24450Y29700D02*
X27950D01*
X26200Y27950D02*
Y31450D01*
X34450Y29700D02*
X37950D01*
X36200Y27950D02*
Y31450D01*
X76250Y172000D02*
X87750D01*
X82000Y166250D02*
Y177750D01*
X-5750Y172000D02*
X5750D01*
X0Y166250D02*
Y177750D01*
X-5750Y0D02*
X5750D01*
X0Y-5750D02*
Y5750D01*
X76250Y0D02*
X87750D01*
X82000Y-5750D02*
Y5750D01*
X-5750Y16000D02*
X-2250D01*
X-4000Y14250D02*
Y17750D01*
X-5750Y56000D02*
X-2250D01*
X-4000Y54250D02*
Y57750D01*
X-5750Y46000D02*
X-2250D01*
X-4000Y44250D02*
Y47750D01*
X-5750Y36000D02*
X-2250D01*
X-4000Y34250D02*
Y37750D01*
X-5750Y26000D02*
X-2250D01*
X-4000Y24250D02*
Y27750D01*
X-5750Y66000D02*
X-2250D01*
X-4000Y64250D02*
Y67750D01*
X-5750Y76000D02*
X-2250D01*
X-4000Y74250D02*
Y77750D01*
X-5750Y86000D02*
X-2250D01*
X-4000Y84250D02*
Y87750D01*
X-5750Y96000D02*
X-2250D01*
X-4000Y94250D02*
Y97750D01*
X-5750Y156000D02*
X-2250D01*
X-4000Y154250D02*
Y157750D01*
X-5750Y146000D02*
X-2250D01*
X-4000Y144250D02*
Y147750D01*
X-5750Y136000D02*
X-2250D01*
X-4000Y134250D02*
Y137750D01*
X-5750Y126000D02*
X-2250D01*
X-4000Y124250D02*
Y127750D01*
X-5750Y116000D02*
X-2250D01*
X-4000Y114250D02*
Y117750D01*
X-5750Y106000D02*
X-2250D01*
X-4000Y104250D02*
Y107750D01*
X49175Y9000D02*
X51925D01*
X50550Y7625D02*
Y10375D01*
X30075Y9000D02*
X32825D01*
X31450Y7625D02*
Y10375D01*
X25322Y-1400D02*
X28078D01*
X26700Y-2778D02*
Y-22D01*
X53922Y-1400D02*
X56678D01*
X55300Y-2778D02*
Y-22D01*
X84250Y16000D02*
X87750D01*
X86000Y14250D02*
Y17750D01*
X84250Y56000D02*
X87750D01*
X86000Y54250D02*
Y57750D01*
X84250Y46000D02*
X87750D01*
X86000Y44250D02*
Y47750D01*
X84250Y36000D02*
X87750D01*
X86000Y34250D02*
Y37750D01*
X84250Y26000D02*
X87750D01*
X86000Y24250D02*
Y27750D01*
X84250Y66000D02*
X87750D01*
X86000Y64250D02*
Y67750D01*
X84250Y76000D02*
X87750D01*
X86000Y74250D02*
Y77750D01*
X84250Y86000D02*
X87750D01*
X86000Y84250D02*
Y87750D01*
X84250Y96000D02*
X87750D01*
X86000Y94250D02*
Y97750D01*
X84250Y156000D02*
X87750D01*
X86000Y154250D02*
Y157750D01*
X84250Y146000D02*
X87750D01*
X86000Y144250D02*
Y147750D01*
X84250Y136000D02*
X87750D01*
X86000Y134250D02*
Y137750D01*
X84250Y126000D02*
X87750D01*
X86000Y124250D02*
Y127750D01*
X84250Y116000D02*
X87750D01*
X86000Y114250D02*
Y117750D01*
X84250Y106000D02*
X87750D01*
X86000Y104250D02*
Y107750D01*
X35309Y38900D02*
X36491D01*
X35900Y38309D02*
Y39491D01*
X76609Y90033D02*
X77790D01*
X77200Y89443D02*
Y90624D01*
X76609Y87267D02*
X77790D01*
X77200Y86676D02*
Y87857D01*
X76609Y84500D02*
X77790D01*
X77200Y83909D02*
Y85091D01*
X20210Y114000D02*
X21391D01*
X20800Y113409D02*
Y114591D01*
X23110Y111000D02*
X24291D01*
X23700Y110409D02*
Y111591D01*
X69410Y71900D02*
X70591D01*
X70000Y71310D02*
Y72491D01*
X67210Y71900D02*
X68391D01*
X67800Y71310D02*
Y72491D01*
X69410Y74200D02*
X70591D01*
X70000Y73610D02*
Y74791D01*
X71710Y74200D02*
X72891D01*
X72300Y73610D02*
Y74791D01*
X67210Y74200D02*
X68391D01*
X67800Y73610D02*
Y74791D01*
X48059Y-6400D02*
X49241D01*
X48650Y-6991D02*
Y-5809D01*
X44909Y-6400D02*
X46091D01*
X45500Y-6991D02*
Y-5809D01*
X41759Y-6400D02*
X42941D01*
X42350Y-6991D02*
Y-5809D01*
X38609Y-6400D02*
X39791D01*
X39200Y-6991D02*
Y-5809D01*
X35459Y-6400D02*
X36641D01*
X36050Y-6991D02*
Y-5809D01*
X32309Y-6400D02*
X33491D01*
X32900Y-6991D02*
Y-5809D01*
X48059Y-2500D02*
X49241D01*
X48650Y-3091D02*
Y-1909D01*
X44909Y-2500D02*
X46091D01*
X45500Y-3091D02*
Y-1909D01*
X41759Y-2500D02*
X42941D01*
X42350Y-3091D02*
Y-1909D01*
X38609Y-2500D02*
X39791D01*
X39200Y-3091D02*
Y-1909D01*
X35459Y-2500D02*
X36641D01*
X36050Y-3091D02*
Y-1909D01*
X32309Y-2500D02*
X33491D01*
X32900Y-3091D02*
Y-1909D01*
X32309Y1400D02*
X33491D01*
X32900Y809D02*
Y1991D01*
X35459Y1400D02*
X36641D01*
X36050Y809D02*
Y1991D01*
X38609Y1400D02*
X39791D01*
X39200Y809D02*
Y1991D01*
X41759Y1400D02*
X42941D01*
X42350Y809D02*
Y1991D01*
X44909Y1400D02*
X46091D01*
X45500Y809D02*
Y1991D01*
X48059Y1400D02*
X49241D01*
X48650Y809D02*
Y1991D01*
X16909Y108572D02*
X18090D01*
X17500Y107982D02*
Y109163D01*
X16909Y100698D02*
X18090D01*
X17500Y100108D02*
Y101289D01*
X16909Y116446D02*
X18090D01*
X17500Y115856D02*
Y117037D01*
X60409Y84400D02*
X61590D01*
X61000Y83810D02*
Y84991D01*
X73010Y104700D02*
X74190D01*
X73600Y104109D02*
Y105291D01*
X73010Y120600D02*
X74190D01*
X73600Y120009D02*
Y121191D01*
X57709Y84400D02*
X58890D01*
X58300Y83810D02*
Y84991D01*
X75510Y104700D02*
X76691D01*
X76100Y104109D02*
Y105291D01*
X11809Y128300D02*
X12991D01*
X12400Y127709D02*
Y128891D01*
X15759Y128250D02*
X16940D01*
X16350Y127659D02*
Y128841D01*
X16409Y124320D02*
X17591D01*
X17000Y123730D02*
Y124911D01*
X17410Y38200D02*
X18590D01*
X18000Y37609D02*
Y38791D01*
X60409Y76900D02*
X61590D01*
X61000Y76310D02*
Y77491D01*
X57709Y76900D02*
X58890D01*
X58300Y76310D02*
Y77491D01*
X76910Y76200D02*
X78091D01*
X77500Y75609D02*
Y76790D01*
X76910Y73500D02*
X78091D01*
X77500Y72909D02*
Y74090D01*
X19691Y60739D02*
X20872D01*
X20281Y60149D02*
Y61330D01*
X19691Y58181D02*
X20872D01*
X20281Y57591D02*
Y58772D01*
X5509Y20900D02*
X6691D01*
X6100Y20310D02*
Y21490D01*
X7209Y22600D02*
X8391D01*
X7800Y22009D02*
Y23190D01*
X64909Y-1017D02*
X66091D01*
X65500Y-1607D02*
Y-426D01*
X15910Y-1017D02*
X17090D01*
X16500Y-1607D02*
Y-426D01*
X69862Y-5200D02*
X71043D01*
X70453Y-5791D02*
Y-4609D01*
X59957Y-5169D02*
X61138D01*
X60547Y-5760D02*
Y-4579D01*
X10957Y-5139D02*
X12138D01*
X11547Y-5729D02*
Y-4548D01*
X20862Y-5169D02*
X22043D01*
X21453Y-5760D02*
Y-4579D01*
X70310Y88700D02*
X71491D01*
X70900Y88109D02*
Y89290D01*
X67210Y88700D02*
X68391D01*
X67800Y88109D02*
Y89290D01*
X68709Y87100D02*
X69890D01*
X69300Y86510D02*
Y87691D01*
X11759Y69200D02*
X12941D01*
X12350Y68609D02*
Y69791D01*
X15085Y69200D02*
X16265D01*
X15675Y68609D02*
Y69791D01*
X18409Y69200D02*
X19590D01*
X19000Y68609D02*
Y69791D01*
X18409Y65000D02*
X19590D01*
X19000Y64410D02*
Y65591D01*
X5109Y60800D02*
X6291D01*
X5700Y60210D02*
Y61391D01*
X5109Y65000D02*
X6291D01*
X5700Y64410D02*
Y65591D01*
X5109Y69200D02*
X6291D01*
X5700Y68609D02*
Y69791D01*
X8434Y69200D02*
X9616D01*
X9025Y68609D02*
Y69791D01*
X8109Y157200D02*
X9291D01*
X8700Y156609D02*
Y157791D01*
X45509Y14000D02*
X46691D01*
X46100Y13409D02*
Y14591D01*
X28509Y81300D02*
X29691D01*
X29100Y80709D02*
Y81890D01*
X40509Y81300D02*
X41691D01*
X41100Y80709D02*
Y81890D01*
X40509Y78000D02*
X41691D01*
X41100Y77409D02*
Y78591D01*
X43059Y81300D02*
X44241D01*
X43650Y80709D02*
Y81890D01*
X43059Y78000D02*
X44241D01*
X43650Y77409D02*
Y78591D01*
X45609Y81300D02*
X46791D01*
X46200Y80709D02*
Y81890D01*
X28509Y78000D02*
X29691D01*
X29100Y77409D02*
Y78591D01*
X45609Y78000D02*
X46791D01*
X46200Y77409D02*
Y78591D01*
X31809Y98400D02*
X32991D01*
X32400Y97809D02*
Y98990D01*
X36409Y93800D02*
X37591D01*
X37000Y93209D02*
Y94390D01*
X34109Y96100D02*
X35291D01*
X34700Y95509D02*
Y96690D01*
X29109Y103100D02*
X30291D01*
X29700Y102509D02*
Y103691D01*
X26009Y106300D02*
X27191D01*
X26600Y105709D02*
Y106891D01*
X39509Y129300D02*
X40691D01*
X40100Y128709D02*
Y129891D01*
X44509Y134300D02*
X45691D01*
X45100Y133709D02*
Y134891D01*
X42009Y131800D02*
X43191D01*
X42600Y131209D02*
Y132391D01*
X52009Y141800D02*
X53190D01*
X52600Y141209D02*
Y142391D01*
X54510Y144300D02*
X55690D01*
X55100Y143709D02*
Y144891D01*
X49509Y139300D02*
X50691D01*
X50100Y138709D02*
Y139891D01*
X47009Y136800D02*
X48191D01*
X47600Y136209D02*
Y137391D01*
X62010Y151800D02*
X63191D01*
X62600Y151209D02*
Y152391D01*
X64509Y154300D02*
X65690D01*
X65100Y153709D02*
Y154891D01*
X72009Y157200D02*
X73190D01*
X72600Y156609D02*
Y157791D01*
X59509Y149300D02*
X60690D01*
X60100Y148709D02*
Y149891D01*
X57010Y146800D02*
X58191D01*
X57600Y146209D02*
Y147391D01*
X58210Y141100D02*
X59390D01*
X58800Y140509D02*
Y141691D01*
X60710Y143600D02*
X61891D01*
X61300Y143009D02*
Y144191D01*
X63209Y146100D02*
X64390D01*
X63800Y145509D02*
Y146691D01*
X55709Y138600D02*
X56890D01*
X56300Y138009D02*
Y139191D01*
X53210Y136100D02*
X54391D01*
X53800Y135509D02*
Y136691D01*
X48209Y131100D02*
X49391D01*
X48800Y130509D02*
Y131691D01*
X45709Y128600D02*
X46891D01*
X46300Y128009D02*
Y129191D01*
X43209Y126100D02*
X44391D01*
X43800Y125509D02*
Y126691D01*
X50709Y133600D02*
X51890D01*
X51300Y133009D02*
Y134191D01*
X36909Y121600D02*
X38091D01*
X37500Y121009D02*
Y122191D01*
X32609Y121600D02*
X33791D01*
X33200Y121009D02*
Y122191D01*
X40709Y123600D02*
X41891D01*
X41300Y123009D02*
Y124191D01*
X27109Y113800D02*
X28291D01*
X27700Y113209D02*
Y114391D01*
X29609Y111300D02*
X30791D01*
X30200Y110709D02*
Y111891D01*
X32109Y108800D02*
X33291D01*
X32700Y108209D02*
Y109391D01*
X24610Y116300D02*
X25791D01*
X25200Y115709D02*
Y116891D01*
X22109Y118800D02*
X23291D01*
X22700Y118209D02*
Y119391D01*
X37109Y103800D02*
X38291D01*
X37700Y103209D02*
Y104391D01*
X39609Y101300D02*
X40791D01*
X40200Y100709D02*
Y101891D01*
X34609Y106300D02*
X35791D01*
X35200Y105709D02*
Y106891D01*
X47109Y93800D02*
X48291D01*
X47700Y93209D02*
Y94390D01*
X44609Y96300D02*
X45791D01*
X45200Y95710D02*
Y96890D01*
X42109Y98800D02*
X43291D01*
X42700Y98210D02*
Y99391D01*
X19710Y121600D02*
X20890D01*
X20300Y121009D02*
Y122191D01*
X24010Y121600D02*
X25190D01*
X24600Y121009D02*
Y122191D01*
X28309Y121600D02*
X29491D01*
X28900Y121009D02*
Y122191D01*
X28409Y126800D02*
X29591D01*
X29000Y126209D02*
Y127391D01*
X32709Y126800D02*
X33891D01*
X33300Y126209D02*
Y127391D01*
X37009Y126800D02*
X38191D01*
X37600Y126209D02*
Y127391D01*
X24110Y126800D02*
X25291D01*
X24700Y126209D02*
Y127391D01*
X19710Y126800D02*
X20890D01*
X20300Y126209D02*
Y127391D01*
X19710Y130700D02*
X20890D01*
X20300Y130109D02*
Y131291D01*
X19710Y134600D02*
X20890D01*
X20300Y134009D02*
Y135191D01*
X19710Y138500D02*
X20890D01*
X20300Y137909D02*
Y139091D01*
X19710Y147100D02*
X20890D01*
X20300Y146509D02*
Y147691D01*
X19710Y150200D02*
X20890D01*
X20300Y149609D02*
Y150791D01*
X19710Y142400D02*
X20890D01*
X20300Y141809D02*
Y142991D01*
X59310Y121200D02*
X60491D01*
X59900Y120609D02*
Y121791D01*
X59310Y113400D02*
X60491D01*
X59900Y112809D02*
Y113991D01*
X59310Y117300D02*
X60491D01*
X59900Y116709D02*
Y117891D01*
X59310Y125100D02*
X60491D01*
X59900Y124509D02*
Y125691D01*
X59310Y129000D02*
X60491D01*
X59900Y128409D02*
Y129591D01*
X59310Y132900D02*
X60491D01*
X59900Y132309D02*
Y133491D01*
X59310Y136800D02*
X60491D01*
X59900Y136209D02*
Y137391D01*
X59310Y97800D02*
X60491D01*
X59900Y97210D02*
Y98391D01*
X59310Y93900D02*
X60491D01*
X59900Y93309D02*
Y94490D01*
X59310Y101700D02*
X60491D01*
X59900Y101110D02*
Y102290D01*
X59310Y105600D02*
X60491D01*
X59900Y105009D02*
Y106191D01*
X59310Y109500D02*
X60491D01*
X59900Y108909D02*
Y110091D01*
X57810Y157200D02*
X58991D01*
X58400Y156609D02*
Y157791D01*
X61360Y157200D02*
X62541D01*
X61950Y156609D02*
Y157791D01*
X68459Y157200D02*
X69640D01*
X69050Y156609D02*
Y157791D01*
X64909Y157200D02*
X66091D01*
X65500Y156609D02*
Y157791D01*
X40059Y157200D02*
X41241D01*
X40650Y156609D02*
Y157791D01*
X47159Y157200D02*
X48341D01*
X47750Y156609D02*
Y157791D01*
X54260Y157200D02*
X55440D01*
X54850Y156609D02*
Y157791D01*
X50709Y157200D02*
X51890D01*
X51300Y156609D02*
Y157791D01*
X75560Y157200D02*
X76740D01*
X76150Y156609D02*
Y157791D01*
X18759Y157200D02*
X19940D01*
X19350Y156609D02*
Y157791D01*
X32959Y157200D02*
X34141D01*
X33550Y156609D02*
Y157791D01*
X25859Y157200D02*
X27041D01*
X26450Y156609D02*
Y157791D01*
X15210Y157200D02*
X16390D01*
X15800Y156609D02*
Y157791D01*
X11659Y157200D02*
X12841D01*
X12250Y156609D02*
Y157791D01*
X33259Y135900D02*
X34441D01*
X33850Y135309D02*
Y136491D01*
X43609Y157200D02*
X44791D01*
X44200Y156609D02*
Y157791D01*
X36509Y157200D02*
X37691D01*
X37100Y156609D02*
Y157791D01*
X29409Y157200D02*
X30591D01*
X30000Y156609D02*
Y157791D01*
X22309Y157200D02*
X23491D01*
X22900Y156609D02*
Y157791D01*
X79610Y51600D02*
X80791D01*
X80200Y51009D02*
Y52191D01*
X79610Y40800D02*
X80791D01*
X80200Y40209D02*
Y41391D01*
X79610Y32100D02*
X80791D01*
X80200Y31509D02*
Y32691D01*
X46809Y150200D02*
X47991D01*
X47400Y149609D02*
Y150791D01*
X33259Y150200D02*
X34441D01*
X33850Y149609D02*
Y150791D01*
X79610Y20900D02*
X80791D01*
X80200Y20310D02*
Y21490D01*
X40309Y143400D02*
X41491D01*
X40900Y142809D02*
Y143991D01*
X74709Y17700D02*
X75890D01*
X75300Y17109D02*
Y18291D01*
X77210Y15100D02*
X78391D01*
X77800Y14510D02*
Y15690D01*
X72110Y15100D02*
X73290D01*
X72700Y14510D02*
Y15690D01*
X4609Y6680D02*
X5791D01*
X5200Y6089D02*
Y7271D01*
X25310Y14667D02*
X26491D01*
X25900Y14076D02*
Y15257D01*
X25310Y10833D02*
X26491D01*
X25900Y10243D02*
Y11424D01*
X21710Y7000D02*
X22891D01*
X22300Y6409D02*
Y7591D01*
X21710Y14667D02*
X22891D01*
X22300Y14076D02*
Y15257D01*
X28909Y14667D02*
X30091D01*
X29500Y14076D02*
Y15257D01*
X21710Y10833D02*
X22891D01*
X22300Y10243D02*
Y11424D01*
X48209Y18700D02*
X49391D01*
X48800Y18110D02*
Y19290D01*
X60510Y24400D02*
X61690D01*
X61100Y23810D02*
Y24991D01*
X57109Y7800D02*
X58290D01*
X57700Y7209D02*
Y8391D01*
X54809Y19600D02*
X55990D01*
X55400Y19010D02*
Y20190D01*
X41109Y19300D02*
X42291D01*
X41700Y18710D02*
Y19891D01*
X54809Y14000D02*
X55990D01*
X55400Y13409D02*
Y14591D01*
X50809Y14000D02*
X51990D01*
X51400Y13409D02*
Y14591D01*
X4609Y15160D02*
X5791D01*
X5200Y14569D02*
Y15751D01*
X8909Y10920D02*
X10091D01*
X9500Y10329D02*
Y11511D01*
X8909Y15160D02*
X10091D01*
X9500Y14569D02*
Y15751D01*
X8909Y6680D02*
X10091D01*
X9500Y6089D02*
Y7271D01*
X-91Y20400D02*
X1091D01*
X500Y19809D02*
Y20990D01*
X5109Y27000D02*
X6291D01*
X5700Y26409D02*
Y27591D01*
X1309Y31100D02*
X2490D01*
X1900Y30509D02*
Y31691D01*
X62709Y5800D02*
X63890D01*
X63300Y5209D02*
Y6391D01*
X67610Y5800D02*
X68791D01*
X68200Y5209D02*
Y6391D01*
X15010Y34600D02*
X16191D01*
X15600Y34009D02*
Y35191D01*
X32909Y36600D02*
X34091D01*
X33500Y36009D02*
Y37191D01*
X4209Y24700D02*
X5391D01*
X4800Y24110D02*
Y25291D01*
X-190Y10920D02*
X991D01*
X400Y10329D02*
Y11511D01*
X77210Y10920D02*
X78391D01*
X77800Y10329D02*
Y11511D01*
X86510Y9200D02*
X87691D01*
X87100Y8609D02*
Y9791D01*
X81810Y51000D02*
X82990D01*
X82400Y50409D02*
Y51591D01*
X4609Y10920D02*
X5791D01*
X5200Y10329D02*
Y11511D01*
X-6491Y8500D02*
X-5309D01*
X-5900Y7909D02*
Y9091D01*
X8909Y2440D02*
X10091D01*
X9500Y1849D02*
Y3031D01*
X8909Y-1800D02*
X10091D01*
X9500Y-2390D02*
Y-1209D01*
X72110Y10920D02*
X73290D01*
X72700Y10329D02*
Y11511D01*
X72110Y5800D02*
X73290D01*
X72700Y5209D02*
Y6391D01*
X72110Y0D02*
X73290D01*
X72700Y-591D02*
Y591D01*
X-490Y131000D02*
X691D01*
X100Y130409D02*
Y131591D01*
X53509Y53500D02*
X54690D01*
X54100Y52909D02*
Y54090D01*
X56672Y47700D02*
X57853D01*
X57263Y47109D02*
Y48291D01*
X37109Y14800D02*
X38291D01*
X37700Y14209D02*
Y15391D01*
X34609Y17300D02*
X35791D01*
X35200Y16710D02*
Y17890D01*
X32109Y19800D02*
X33291D01*
X32700Y19209D02*
Y20391D01*
X29409Y22200D02*
X30591D01*
X30000Y21610D02*
Y22791D01*
X21910Y25100D02*
X23090D01*
X22500Y24509D02*
Y25691D01*
X31909Y51300D02*
X33091D01*
X32500Y50709D02*
Y51890D01*
X37409Y51200D02*
X38591D01*
X38000Y50609D02*
Y51790D01*
X43209Y49700D02*
X44391D01*
X43800Y49109D02*
Y50291D01*
X49609Y49600D02*
X50791D01*
X50200Y49009D02*
Y50191D01*
X73610Y65700D02*
X74791D01*
X74200Y65109D02*
Y66290D01*
X73510Y60900D02*
X74691D01*
X74100Y60309D02*
Y61490D01*
X73510Y56400D02*
X74691D01*
X74100Y55809D02*
Y56990D01*
X73409Y51500D02*
X74590D01*
X74000Y50909D02*
Y52091D01*
X73510Y44400D02*
X74691D01*
X74100Y43809D02*
Y44991D01*
X72809Y39500D02*
X73990D01*
X73400Y38909D02*
Y40091D01*
X65610Y57300D02*
X66790D01*
X66200Y56709D02*
Y57890D01*
X61010Y53400D02*
X62191D01*
X61600Y52810D02*
Y53991D01*
X44009Y24600D02*
X45191D01*
X44600Y24010D02*
Y25190D01*
X51209Y24600D02*
X52390D01*
X51800Y24010D02*
Y25190D01*
X65509Y29000D02*
X66690D01*
X66100Y28409D02*
Y29591D01*
X12109Y18800D02*
X13291D01*
X12700Y18210D02*
Y19390D01*
X41509Y40400D02*
X42691D01*
X42100Y39809D02*
Y40991D01*
X61409Y41900D02*
X62590D01*
X62000Y41309D02*
Y42491D01*
X23910Y17800D02*
X25091D01*
X24500Y17210D02*
Y18391D01*
X53409Y37400D02*
X54590D01*
X54000Y36809D02*
Y37991D01*
X60110Y37300D02*
X61291D01*
X60700Y36709D02*
Y37891D01*
X55110Y43000D02*
X56291D01*
X55700Y42409D02*
Y43591D01*
M02*
