G04 Layer_Color=2752767*
%FSLAX25Y25*%
%MOIN*%
G70*
G01*
G75*
%ADD11C,0.00500*%
%ADD12C,0.01600*%
%ADD13C,0.01000*%
%ADD14C,0.01400*%
D11*
X56200Y29700D02*
Y33032D01*
X57866Y34698D01*
X59532Y33032D01*
Y29700D01*
Y32199D01*
X56200D01*
X46200Y29700D02*
Y33032D01*
X47866Y34698D01*
X49532Y33032D01*
Y29700D01*
Y32199D01*
X46200D01*
X26200Y29700D02*
Y33032D01*
X27866Y34698D01*
X29532Y33032D01*
Y29700D01*
Y32199D01*
X26200D01*
X36200Y29700D02*
Y33032D01*
X37866Y34698D01*
X39532Y33032D01*
Y29700D01*
Y32199D01*
X36200D01*
X82000Y176998D02*
Y172000D01*
X84499D01*
X85332Y172833D01*
Y173666D01*
X84499Y174499D01*
X82000D01*
X84499D01*
X85332Y175332D01*
Y176165D01*
X84499Y176998D01*
X82000D01*
X0D02*
Y172000D01*
X2499D01*
X3332Y172833D01*
Y173666D01*
X2499Y174499D01*
X0D01*
X2499D01*
X3332Y175332D01*
Y176165D01*
X2499Y176998D01*
X0D01*
Y4998D02*
Y0D01*
X2499D01*
X3332Y833D01*
Y1666D01*
X2499Y2499D01*
X0D01*
X2499D01*
X3332Y3332D01*
Y4165D01*
X2499Y4998D01*
X0D01*
X82000D02*
Y0D01*
X84499D01*
X85332Y833D01*
Y1666D01*
X84499Y2499D01*
X82000D01*
X84499D01*
X85332Y3332D01*
Y4165D01*
X84499Y4998D01*
X82000D01*
X-4000Y16000D02*
Y19332D01*
X-2334Y20998D01*
X-668Y19332D01*
Y16000D01*
Y18499D01*
X-4000D01*
Y56000D02*
Y59332D01*
X-2334Y60998D01*
X-668Y59332D01*
Y56000D01*
Y58499D01*
X-4000D01*
Y46000D02*
Y49332D01*
X-2334Y50998D01*
X-668Y49332D01*
Y46000D01*
Y48499D01*
X-4000D01*
Y36000D02*
Y39332D01*
X-2334Y40998D01*
X-668Y39332D01*
Y36000D01*
Y38499D01*
X-4000D01*
Y26000D02*
Y29332D01*
X-2334Y30998D01*
X-668Y29332D01*
Y26000D01*
Y28499D01*
X-4000D01*
Y66000D02*
Y69332D01*
X-2334Y70998D01*
X-668Y69332D01*
Y66000D01*
Y68499D01*
X-4000D01*
Y76000D02*
Y79332D01*
X-2334Y80998D01*
X-668Y79332D01*
Y76000D01*
Y78499D01*
X-4000D01*
Y86000D02*
Y89332D01*
X-2334Y90998D01*
X-668Y89332D01*
Y86000D01*
Y88499D01*
X-4000D01*
Y96000D02*
Y99332D01*
X-2334Y100998D01*
X-668Y99332D01*
Y96000D01*
Y98499D01*
X-4000D01*
Y156000D02*
Y159332D01*
X-2334Y160998D01*
X-668Y159332D01*
Y156000D01*
Y158499D01*
X-4000D01*
Y146000D02*
Y149332D01*
X-2334Y150998D01*
X-668Y149332D01*
Y146000D01*
Y148499D01*
X-4000D01*
Y136000D02*
Y139332D01*
X-2334Y140998D01*
X-668Y139332D01*
Y136000D01*
Y138499D01*
X-4000D01*
Y126000D02*
Y129332D01*
X-2334Y130998D01*
X-668Y129332D01*
Y126000D01*
Y128499D01*
X-4000D01*
Y116000D02*
Y119332D01*
X-2334Y120998D01*
X-668Y119332D01*
Y116000D01*
Y118499D01*
X-4000D01*
Y106000D02*
Y109332D01*
X-2334Y110998D01*
X-668Y109332D01*
Y106000D01*
Y108499D01*
X-4000D01*
X53882Y13165D02*
X53049Y13998D01*
X51383D01*
X50550Y13165D01*
Y9833D01*
X51383Y9000D01*
X53049D01*
X53882Y9833D01*
X34782Y13165D02*
X33949Y13998D01*
X32283D01*
X31450Y13165D01*
Y9833D01*
X32283Y9000D01*
X33949D01*
X34782Y9833D01*
X26700Y3598D02*
Y-1400D01*
X29199D01*
X30032Y-567D01*
Y2765D01*
X29199Y3598D01*
X26700D01*
X55300D02*
Y-1400D01*
X57799D01*
X58632Y-567D01*
Y2765D01*
X57799Y3598D01*
X55300D01*
X86000Y16000D02*
Y19332D01*
X87666Y20998D01*
X89332Y19332D01*
Y16000D01*
Y18499D01*
X86000D01*
Y56000D02*
Y59332D01*
X87666Y60998D01*
X89332Y59332D01*
Y56000D01*
Y58499D01*
X86000D01*
Y46000D02*
Y49332D01*
X87666Y50998D01*
X89332Y49332D01*
Y46000D01*
Y48499D01*
X86000D01*
Y36000D02*
Y39332D01*
X87666Y40998D01*
X89332Y39332D01*
Y36000D01*
Y38499D01*
X86000D01*
Y26000D02*
Y29332D01*
X87666Y30998D01*
X89332Y29332D01*
Y26000D01*
Y28499D01*
X86000D01*
Y66000D02*
Y69332D01*
X87666Y70998D01*
X89332Y69332D01*
Y66000D01*
Y68499D01*
X86000D01*
Y76000D02*
Y79332D01*
X87666Y80998D01*
X89332Y79332D01*
Y76000D01*
Y78499D01*
X86000D01*
Y86000D02*
Y89332D01*
X87666Y90998D01*
X89332Y89332D01*
Y86000D01*
Y88499D01*
X86000D01*
Y96000D02*
Y99332D01*
X87666Y100998D01*
X89332Y99332D01*
Y96000D01*
Y98499D01*
X86000D01*
Y156000D02*
Y159332D01*
X87666Y160998D01*
X89332Y159332D01*
Y156000D01*
Y158499D01*
X86000D01*
Y146000D02*
Y149332D01*
X87666Y150998D01*
X89332Y149332D01*
Y146000D01*
Y148499D01*
X86000D01*
Y136000D02*
Y139332D01*
X87666Y140998D01*
X89332Y139332D01*
Y136000D01*
Y138499D01*
X86000D01*
Y126000D02*
Y129332D01*
X87666Y130998D01*
X89332Y129332D01*
Y126000D01*
Y128499D01*
X86000D01*
Y116000D02*
Y119332D01*
X87666Y120998D01*
X89332Y119332D01*
Y116000D01*
Y118499D01*
X86000D01*
Y106000D02*
Y109332D01*
X87666Y110998D01*
X89332Y109332D01*
Y106000D01*
Y108499D01*
X86000D01*
X39232Y43898D02*
X35900D01*
Y38900D01*
X39232D01*
X35900Y41399D02*
X37566D01*
X80532Y95032D02*
X77200D01*
Y90033D01*
X80532D01*
X77200Y92532D02*
X78866D01*
X80532Y92265D02*
X77200D01*
Y87267D01*
X80532D01*
X77200Y89766D02*
X78866D01*
X80532Y89498D02*
X77200D01*
Y84500D01*
X80532D01*
X77200Y86999D02*
X78866D01*
X24132Y118998D02*
X20800D01*
Y114000D01*
X24132D01*
X20800Y116499D02*
X22466D01*
X27032Y115998D02*
X23700D01*
Y111000D01*
X27032D01*
X23700Y113499D02*
X25366D01*
X73332Y76898D02*
X70000D01*
Y71900D01*
X73332D01*
X70000Y74399D02*
X71666D01*
X71132Y76898D02*
X67800D01*
Y71900D01*
X71132D01*
X67800Y74399D02*
X69466D01*
X73332Y79198D02*
X70000D01*
Y74200D01*
X73332D01*
X70000Y76699D02*
X71666D01*
X75632Y79198D02*
X72300D01*
Y74200D01*
X75632D01*
X72300Y76699D02*
X73966D01*
X71132Y79198D02*
X67800D01*
Y74200D01*
X71132D01*
X67800Y76699D02*
X69466D01*
X51982Y-1402D02*
X48650D01*
Y-6400D01*
X51982D01*
X48650Y-3901D02*
X50316D01*
X48832Y-1402D02*
X45500D01*
Y-6400D01*
X48832D01*
X45500Y-3901D02*
X47166D01*
X45682Y-1402D02*
X42350D01*
Y-6400D01*
X45682D01*
X42350Y-3901D02*
X44016D01*
X42532Y-1402D02*
X39200D01*
Y-6400D01*
X42532D01*
X39200Y-3901D02*
X40866D01*
X39382Y-1402D02*
X36050D01*
Y-6400D01*
X39382D01*
X36050Y-3901D02*
X37716D01*
X36232Y-1402D02*
X32900D01*
Y-6400D01*
X36232D01*
X32900Y-3901D02*
X34566D01*
X51982Y2498D02*
X48650D01*
Y-2500D01*
X51982D01*
X48650Y-1D02*
X50316D01*
X48832Y2498D02*
X45500D01*
Y-2500D01*
X48832D01*
X45500Y-1D02*
X47166D01*
X45682Y2498D02*
X42350D01*
Y-2500D01*
X45682D01*
X42350Y-1D02*
X44016D01*
X42532Y2498D02*
X39200D01*
Y-2500D01*
X42532D01*
X39200Y-1D02*
X40866D01*
X39382Y2498D02*
X36050D01*
Y-2500D01*
X39382D01*
X36050Y-1D02*
X37716D01*
X36232Y2498D02*
X32900D01*
Y-2500D01*
X36232D01*
X32900Y-1D02*
X34566D01*
X36232Y6398D02*
X32900D01*
Y1400D01*
X36232D01*
X32900Y3899D02*
X34566D01*
X39382Y6398D02*
X36050D01*
Y1400D01*
X39382D01*
X36050Y3899D02*
X37716D01*
X42532Y6398D02*
X39200D01*
Y1400D01*
X42532D01*
X39200Y3899D02*
X40866D01*
X45682Y6398D02*
X42350D01*
Y1400D01*
X45682D01*
X42350Y3899D02*
X44016D01*
X48832Y6398D02*
X45500D01*
Y1400D01*
X48832D01*
X45500Y3899D02*
X47166D01*
X51982Y6398D02*
X48650D01*
Y1400D01*
X51982D01*
X48650Y3899D02*
X50316D01*
X20832Y113571D02*
X17500D01*
Y108572D01*
X20832D01*
X17500Y111072D02*
X19166D01*
X20832Y105697D02*
X17500D01*
Y100698D01*
X20832D01*
X17500Y103198D02*
X19166D01*
X20832Y121445D02*
X17500D01*
Y116446D01*
X20832D01*
X17500Y118946D02*
X19166D01*
X64332Y89398D02*
X61000D01*
Y84400D01*
X64332D01*
X61000Y86899D02*
X62666D01*
X76932Y109698D02*
X73600D01*
Y104700D01*
X76932D01*
X73600Y107199D02*
X75266D01*
X76932Y125598D02*
X73600D01*
Y120600D01*
X76932D01*
X73600Y123099D02*
X75266D01*
X61632Y89398D02*
X58300D01*
Y84400D01*
X61632D01*
X58300Y86899D02*
X59966D01*
X79432Y109698D02*
X76100D01*
Y104700D01*
X79432D01*
X76100Y107199D02*
X77766D01*
X15732Y133298D02*
X12400D01*
Y128300D01*
X15732D01*
X12400Y130799D02*
X14066D01*
X19682Y133248D02*
X16350D01*
Y128250D01*
X19682D01*
X16350Y130749D02*
X18016D01*
X20332Y129319D02*
X17000D01*
Y124320D01*
X20332D01*
X17000Y126820D02*
X18666D01*
X21332Y43198D02*
X18000D01*
Y38200D01*
X21332D01*
X18000Y40699D02*
X19666D01*
X64332Y81898D02*
X61000D01*
Y76900D01*
X64332D01*
X61000Y79399D02*
X62666D01*
X61632Y81898D02*
X58300D01*
Y76900D01*
X61632D01*
X58300Y79399D02*
X59966D01*
X80832Y81198D02*
X77500D01*
Y76200D01*
X80832D01*
X77500Y78699D02*
X79166D01*
X80832Y78498D02*
X77500D01*
Y73500D01*
X80832D01*
X77500Y75999D02*
X79166D01*
X23613Y65738D02*
X20281D01*
Y60739D01*
X23613D01*
X20281Y63239D02*
X21947D01*
X23613Y63179D02*
X20281D01*
Y58181D01*
X23613D01*
X20281Y60680D02*
X21947D01*
X9432Y25898D02*
X6100D01*
Y20900D01*
X9432D01*
X6100Y23399D02*
X7766D01*
X11132Y27598D02*
X7800D01*
Y22600D01*
X11132D01*
X7800Y25099D02*
X9466D01*
X68832Y3982D02*
X65500D01*
Y-1017D01*
X68832D01*
X65500Y1483D02*
X67166D01*
X19832Y3982D02*
X16500D01*
Y-1017D01*
X19832D01*
X16500Y1483D02*
X18166D01*
X73785Y-202D02*
X70453D01*
Y-5200D01*
X73785D01*
X70453Y-2701D02*
X72119D01*
X63880Y-171D02*
X60547D01*
Y-5169D01*
X63880D01*
X60547Y-2670D02*
X62213D01*
X14879Y-140D02*
X11547D01*
Y-5139D01*
X14879D01*
X11547Y-2639D02*
X13213D01*
X24785Y-171D02*
X21453D01*
Y-5169D01*
X24785D01*
X21453Y-2670D02*
X23119D01*
X74232Y93698D02*
X70900D01*
Y88700D01*
X74232D01*
X70900Y91199D02*
X72566D01*
X71132Y93698D02*
X67800D01*
Y88700D01*
X71132D01*
X67800Y91199D02*
X69466D01*
X72632Y92098D02*
X69300D01*
Y87100D01*
X72632D01*
X69300Y89599D02*
X70966D01*
X15682Y74198D02*
X12350D01*
Y69200D01*
X15682D01*
X12350Y71699D02*
X14016D01*
X19007Y74198D02*
X15675D01*
Y69200D01*
X19007D01*
X15675Y71699D02*
X17341D01*
X22332Y74198D02*
X19000D01*
Y69200D01*
X22332D01*
X19000Y71699D02*
X20666D01*
X22332Y69998D02*
X19000D01*
Y65000D01*
X22332D01*
X19000Y67499D02*
X20666D01*
X9032Y65798D02*
X5700D01*
Y60800D01*
X9032D01*
X5700Y63299D02*
X7366D01*
X9032Y69998D02*
X5700D01*
Y65000D01*
X9032D01*
X5700Y67499D02*
X7366D01*
X9032Y74198D02*
X5700D01*
Y69200D01*
X9032D01*
X5700Y71699D02*
X7366D01*
X12357Y74198D02*
X9025D01*
Y69200D01*
X12357D01*
X9025Y71699D02*
X10691D01*
X12032Y162198D02*
X8700D01*
Y157200D01*
X12032D01*
X8700Y159699D02*
X10366D01*
X49432Y18998D02*
X46100D01*
Y14000D01*
X49432D01*
X46100Y16499D02*
X47766D01*
X32432Y86298D02*
X29100D01*
Y81300D01*
X32432D01*
X29100Y83799D02*
X30766D01*
X44432Y86298D02*
X41100D01*
Y81300D01*
X44432D01*
X41100Y83799D02*
X42766D01*
X44432Y82998D02*
X41100D01*
Y78000D01*
X44432D01*
X41100Y80499D02*
X42766D01*
X46982Y86298D02*
X43650D01*
Y81300D01*
X46982D01*
X43650Y83799D02*
X45316D01*
X46982Y82998D02*
X43650D01*
Y78000D01*
X46982D01*
X43650Y80499D02*
X45316D01*
X49532Y86298D02*
X46200D01*
Y81300D01*
X49532D01*
X46200Y83799D02*
X47866D01*
X32432Y82998D02*
X29100D01*
Y78000D01*
X32432D01*
X29100Y80499D02*
X30766D01*
X49532Y82998D02*
X46200D01*
Y78000D01*
X49532D01*
X46200Y80499D02*
X47866D01*
X35732Y103398D02*
X32400D01*
Y98400D01*
X35732D01*
X32400Y100899D02*
X34066D01*
X40332Y98798D02*
X37000D01*
Y93800D01*
X40332D01*
X37000Y96299D02*
X38666D01*
X38032Y101098D02*
X34700D01*
Y96100D01*
X38032D01*
X34700Y98599D02*
X36366D01*
X33032Y108098D02*
X29700D01*
Y103100D01*
X33032D01*
X29700Y105599D02*
X31366D01*
X29932Y111298D02*
X26600D01*
Y106300D01*
X29932D01*
X26600Y108799D02*
X28266D01*
X43432Y134298D02*
X40100D01*
Y129300D01*
X43432D01*
X40100Y131799D02*
X41766D01*
X48432Y139298D02*
X45100D01*
Y134300D01*
X48432D01*
X45100Y136799D02*
X46766D01*
X45932Y136798D02*
X42600D01*
Y131800D01*
X45932D01*
X42600Y134299D02*
X44266D01*
X55932Y146798D02*
X52600D01*
Y141800D01*
X55932D01*
X52600Y144299D02*
X54266D01*
X58432Y149298D02*
X55100D01*
Y144300D01*
X58432D01*
X55100Y146799D02*
X56766D01*
X53432Y144298D02*
X50100D01*
Y139300D01*
X53432D01*
X50100Y141799D02*
X51766D01*
X50932Y141798D02*
X47600D01*
Y136800D01*
X50932D01*
X47600Y139299D02*
X49266D01*
X65932Y156798D02*
X62600D01*
Y151800D01*
X65932D01*
X62600Y154299D02*
X64266D01*
X68432Y159298D02*
X65100D01*
Y154300D01*
X68432D01*
X65100Y156799D02*
X66766D01*
X75932Y162198D02*
X72600D01*
Y157200D01*
X75932D01*
X72600Y159699D02*
X74266D01*
X63432Y154298D02*
X60100D01*
Y149300D01*
X63432D01*
X60100Y151799D02*
X61766D01*
X60932Y151798D02*
X57600D01*
Y146800D01*
X60932D01*
X57600Y149299D02*
X59266D01*
X62132Y146098D02*
X58800D01*
Y141100D01*
X62132D01*
X58800Y143599D02*
X60466D01*
X64632Y148598D02*
X61300D01*
Y143600D01*
X64632D01*
X61300Y146099D02*
X62966D01*
X67132Y151098D02*
X63800D01*
Y146100D01*
X67132D01*
X63800Y148599D02*
X65466D01*
X59632Y143598D02*
X56300D01*
Y138600D01*
X59632D01*
X56300Y141099D02*
X57966D01*
X57132Y141098D02*
X53800D01*
Y136100D01*
X57132D01*
X53800Y138599D02*
X55466D01*
X52132Y136098D02*
X48800D01*
Y131100D01*
X52132D01*
X48800Y133599D02*
X50466D01*
X49632Y133598D02*
X46300D01*
Y128600D01*
X49632D01*
X46300Y131099D02*
X47966D01*
X47132Y131098D02*
X43800D01*
Y126100D01*
X47132D01*
X43800Y128599D02*
X45466D01*
X54632Y138598D02*
X51300D01*
Y133600D01*
X54632D01*
X51300Y136099D02*
X52966D01*
X40832Y126598D02*
X37500D01*
Y121600D01*
X40832D01*
X37500Y124099D02*
X39166D01*
X36532Y126598D02*
X33200D01*
Y121600D01*
X36532D01*
X33200Y124099D02*
X34866D01*
X44632Y128598D02*
X41300D01*
Y123600D01*
X44632D01*
X41300Y126099D02*
X42966D01*
X31032Y118798D02*
X27700D01*
Y113800D01*
X31032D01*
X27700Y116299D02*
X29366D01*
X33532Y116298D02*
X30200D01*
Y111300D01*
X33532D01*
X30200Y113799D02*
X31866D01*
X36032Y113798D02*
X32700D01*
Y108800D01*
X36032D01*
X32700Y111299D02*
X34366D01*
X28532Y121298D02*
X25200D01*
Y116300D01*
X28532D01*
X25200Y118799D02*
X26866D01*
X26032Y123798D02*
X22700D01*
Y118800D01*
X26032D01*
X22700Y121299D02*
X24366D01*
X41032Y108798D02*
X37700D01*
Y103800D01*
X41032D01*
X37700Y106299D02*
X39366D01*
X43532Y106298D02*
X40200D01*
Y101300D01*
X43532D01*
X40200Y103799D02*
X41866D01*
X38532Y111298D02*
X35200D01*
Y106300D01*
X38532D01*
X35200Y108799D02*
X36866D01*
X51032Y98798D02*
X47700D01*
Y93800D01*
X51032D01*
X47700Y96299D02*
X49366D01*
X48532Y101298D02*
X45200D01*
Y96300D01*
X48532D01*
X45200Y98799D02*
X46866D01*
X46032Y103798D02*
X42700D01*
Y98800D01*
X46032D01*
X42700Y101299D02*
X44366D01*
X23632Y126598D02*
X20300D01*
Y121600D01*
X23632D01*
X20300Y124099D02*
X21966D01*
X27932Y126598D02*
X24600D01*
Y121600D01*
X27932D01*
X24600Y124099D02*
X26266D01*
X32232Y126598D02*
X28900D01*
Y121600D01*
X32232D01*
X28900Y124099D02*
X30566D01*
X32332Y131798D02*
X29000D01*
Y126800D01*
X32332D01*
X29000Y129299D02*
X30666D01*
X36632Y131798D02*
X33300D01*
Y126800D01*
X36632D01*
X33300Y129299D02*
X34966D01*
X40932Y131798D02*
X37600D01*
Y126800D01*
X40932D01*
X37600Y129299D02*
X39266D01*
X28032Y131798D02*
X24700D01*
Y126800D01*
X28032D01*
X24700Y129299D02*
X26366D01*
X23632Y131798D02*
X20300D01*
Y126800D01*
X23632D01*
X20300Y129299D02*
X21966D01*
X23632Y135698D02*
X20300D01*
Y130700D01*
X23632D01*
X20300Y133199D02*
X21966D01*
X23632Y139598D02*
X20300D01*
Y134600D01*
X23632D01*
X20300Y137099D02*
X21966D01*
X23632Y143498D02*
X20300D01*
Y138500D01*
X23632D01*
X20300Y140999D02*
X21966D01*
X23632Y152098D02*
X20300D01*
Y147100D01*
X23632D01*
X20300Y149599D02*
X21966D01*
X23632Y155198D02*
X20300D01*
Y150200D01*
X23632D01*
X20300Y152699D02*
X21966D01*
X23632Y147398D02*
X20300D01*
Y142400D01*
X23632D01*
X20300Y144899D02*
X21966D01*
X63232Y126198D02*
X59900D01*
Y121200D01*
X63232D01*
X59900Y123699D02*
X61566D01*
X63232Y118398D02*
X59900D01*
Y113400D01*
X63232D01*
X59900Y115899D02*
X61566D01*
X63232Y122298D02*
X59900D01*
Y117300D01*
X63232D01*
X59900Y119799D02*
X61566D01*
X63232Y130098D02*
X59900D01*
Y125100D01*
X63232D01*
X59900Y127599D02*
X61566D01*
X63232Y133998D02*
X59900D01*
Y129000D01*
X63232D01*
X59900Y131499D02*
X61566D01*
X63232Y137898D02*
X59900D01*
Y132900D01*
X63232D01*
X59900Y135399D02*
X61566D01*
X63232Y141798D02*
X59900D01*
Y136800D01*
X63232D01*
X59900Y139299D02*
X61566D01*
X63232Y102798D02*
X59900D01*
Y97800D01*
X63232D01*
X59900Y100299D02*
X61566D01*
X63232Y98898D02*
X59900D01*
Y93900D01*
X63232D01*
X59900Y96399D02*
X61566D01*
X63232Y106698D02*
X59900D01*
Y101700D01*
X63232D01*
X59900Y104199D02*
X61566D01*
X63232Y110598D02*
X59900D01*
Y105600D01*
X63232D01*
X59900Y108099D02*
X61566D01*
X63232Y114498D02*
X59900D01*
Y109500D01*
X63232D01*
X59900Y111999D02*
X61566D01*
X61732Y162198D02*
X58400D01*
Y157200D01*
X61732D01*
X58400Y159699D02*
X60066D01*
X65282Y162198D02*
X61950D01*
Y157200D01*
X65282D01*
X61950Y159699D02*
X63616D01*
X72382Y162198D02*
X69050D01*
Y157200D01*
X72382D01*
X69050Y159699D02*
X70716D01*
X68832Y162198D02*
X65500D01*
Y157200D01*
X68832D01*
X65500Y159699D02*
X67166D01*
X43982Y162198D02*
X40650D01*
Y157200D01*
X43982D01*
X40650Y159699D02*
X42316D01*
X51082Y162198D02*
X47750D01*
Y157200D01*
X51082D01*
X47750Y159699D02*
X49416D01*
X58182Y162198D02*
X54850D01*
Y157200D01*
X58182D01*
X54850Y159699D02*
X56516D01*
X54632Y162198D02*
X51300D01*
Y157200D01*
X54632D01*
X51300Y159699D02*
X52966D01*
X79482Y162198D02*
X76150D01*
Y157200D01*
X79482D01*
X76150Y159699D02*
X77816D01*
X22682Y162198D02*
X19350D01*
Y157200D01*
X22682D01*
X19350Y159699D02*
X21016D01*
X36882Y162198D02*
X33550D01*
Y157200D01*
X36882D01*
X33550Y159699D02*
X35216D01*
X29782Y162198D02*
X26450D01*
Y157200D01*
X29782D01*
X26450Y159699D02*
X28116D01*
X19132Y162198D02*
X15800D01*
Y157200D01*
X19132D01*
X15800Y159699D02*
X17466D01*
X15582Y162198D02*
X12250D01*
Y157200D01*
X15582D01*
X12250Y159699D02*
X13916D01*
X37182Y140898D02*
X33850D01*
Y135900D01*
X37182D01*
X33850Y138399D02*
X35516D01*
X47532Y162198D02*
X44200D01*
Y157200D01*
X47532D01*
X44200Y159699D02*
X45866D01*
X40432Y162198D02*
X37100D01*
Y157200D01*
X40432D01*
X37100Y159699D02*
X38766D01*
X33332Y162198D02*
X30000D01*
Y157200D01*
X33332D01*
X30000Y159699D02*
X31666D01*
X26232Y162198D02*
X22900D01*
Y157200D01*
X26232D01*
X22900Y159699D02*
X24566D01*
X83532Y56598D02*
X80200D01*
Y51600D01*
X83532D01*
X80200Y54099D02*
X81866D01*
X83532Y45798D02*
X80200D01*
Y40800D01*
X83532D01*
X80200Y43299D02*
X81866D01*
X83532Y37098D02*
X80200D01*
Y32100D01*
X83532D01*
X80200Y34599D02*
X81866D01*
X50732Y155198D02*
X47400D01*
Y150200D01*
X50732D01*
X47400Y152699D02*
X49066D01*
X37182Y155198D02*
X33850D01*
Y150200D01*
X37182D01*
X33850Y152699D02*
X35516D01*
X83532Y25898D02*
X80200D01*
Y20900D01*
X83532D01*
X80200Y23399D02*
X81866D01*
X44232Y148398D02*
X40900D01*
Y143400D01*
X44232D01*
X40900Y145899D02*
X42566D01*
X78632Y22698D02*
X75300D01*
Y17700D01*
X78632D01*
X75300Y20199D02*
X76966D01*
X81132Y20098D02*
X77800D01*
Y15100D01*
X81132D01*
X77800Y17599D02*
X79466D01*
X76032Y20098D02*
X72700D01*
Y15100D01*
X76032D01*
X72700Y17599D02*
X74366D01*
X8532Y11678D02*
X5200D01*
Y6680D01*
X8532D01*
X5200Y9179D02*
X6866D01*
X29232Y19665D02*
X25900D01*
Y14667D01*
X29232D01*
X25900Y17166D02*
X27566D01*
X29232Y15832D02*
X25900D01*
Y10833D01*
X29232D01*
X25900Y13332D02*
X27566D01*
X25632Y11998D02*
X22300D01*
Y7000D01*
X25632D01*
X22300Y9499D02*
X23966D01*
X25632Y19665D02*
X22300D01*
Y14667D01*
X25632D01*
X22300Y17166D02*
X23966D01*
X32832Y19665D02*
X29500D01*
Y14667D01*
X32832D01*
X29500Y17166D02*
X31166D01*
X25632Y15832D02*
X22300D01*
Y10833D01*
X25632D01*
X22300Y13332D02*
X23966D01*
X52132Y23698D02*
X48800D01*
Y18700D01*
X52132D01*
X48800Y21199D02*
X50466D01*
X64432Y29398D02*
X61100D01*
Y24400D01*
X64432D01*
X61100Y26899D02*
X62766D01*
X61032Y12798D02*
X57700D01*
Y7800D01*
X61032D01*
X57700Y10299D02*
X59366D01*
X58732Y24598D02*
X55400D01*
Y19600D01*
X58732D01*
X55400Y22099D02*
X57066D01*
X45032Y24298D02*
X41700D01*
Y19300D01*
X45032D01*
X41700Y21799D02*
X43366D01*
X58732Y18998D02*
X55400D01*
Y14000D01*
X58732D01*
X55400Y16499D02*
X57066D01*
X54732Y18998D02*
X51400D01*
Y14000D01*
X54732D01*
X51400Y16499D02*
X53066D01*
X8532Y20158D02*
X5200D01*
Y15160D01*
X8532D01*
X5200Y17659D02*
X6866D01*
X12832Y15918D02*
X9500D01*
Y10920D01*
X12832D01*
X9500Y13419D02*
X11166D01*
X12832Y20158D02*
X9500D01*
Y15160D01*
X12832D01*
X9500Y17659D02*
X11166D01*
X12832Y11678D02*
X9500D01*
Y6680D01*
X12832D01*
X9500Y9179D02*
X11166D01*
X3832Y25398D02*
X500D01*
Y20400D01*
X3832D01*
X500Y22899D02*
X2166D01*
X9032Y31998D02*
X5700D01*
Y27000D01*
X9032D01*
X5700Y29499D02*
X7366D01*
X5232Y36098D02*
X1900D01*
Y31100D01*
X5232D01*
X1900Y33599D02*
X3566D01*
X66632Y10798D02*
X63300D01*
Y5800D01*
X66632D01*
X63300Y8299D02*
X64966D01*
X71532Y10798D02*
X68200D01*
Y5800D01*
X71532D01*
X68200Y8299D02*
X69866D01*
X18932Y39598D02*
X15600D01*
Y34600D01*
X18932D01*
X15600Y37099D02*
X17266D01*
X36832Y41598D02*
X33500D01*
Y36600D01*
X36832D01*
X33500Y39099D02*
X35166D01*
X8132Y29698D02*
X4800D01*
Y24700D01*
X8132D01*
X4800Y27199D02*
X6466D01*
X3732Y15918D02*
X400D01*
Y10920D01*
X3732D01*
X400Y13419D02*
X2066D01*
X81132Y15918D02*
X77800D01*
Y10920D01*
X81132D01*
X77800Y13419D02*
X79466D01*
X90432Y14198D02*
X87100D01*
Y9200D01*
X90432D01*
X87100Y11699D02*
X88766D01*
X85732Y55998D02*
X82400D01*
Y51000D01*
X85732D01*
X82400Y53499D02*
X84066D01*
X8532Y15918D02*
X5200D01*
Y10920D01*
X8532D01*
X5200Y13419D02*
X6866D01*
X-2568Y13498D02*
X-5900D01*
Y8500D01*
X-2568D01*
X-5900Y10999D02*
X-4234D01*
X12832Y7438D02*
X9500D01*
Y2440D01*
X12832D01*
X9500Y4939D02*
X11166D01*
X12832Y3198D02*
X9500D01*
Y-1800D01*
X12832D01*
X9500Y699D02*
X11166D01*
X76032Y15918D02*
X72700D01*
Y10920D01*
X76032D01*
X72700Y13419D02*
X74366D01*
X76032Y10798D02*
X72700D01*
Y5800D01*
X76032D01*
X72700Y8299D02*
X74366D01*
X76032Y4998D02*
X72700D01*
Y0D01*
X76032D01*
X72700Y2499D02*
X74366D01*
X3432Y135998D02*
X100D01*
Y131000D01*
X3432D01*
X100Y133499D02*
X1766D01*
X57432Y58498D02*
X54100D01*
Y53500D01*
X57432D01*
X54100Y55999D02*
X55766D01*
X60595Y52698D02*
X57263D01*
Y47700D01*
X60595D01*
X57263Y50199D02*
X58929D01*
X41032Y19798D02*
X37700D01*
Y14800D01*
X41032D01*
X37700Y17299D02*
X39366D01*
X38532Y22298D02*
X35200D01*
Y17300D01*
X38532D01*
X35200Y19799D02*
X36866D01*
X36032Y24798D02*
X32700D01*
Y19800D01*
X36032D01*
X32700Y22299D02*
X34366D01*
X33332Y27198D02*
X30000D01*
Y22200D01*
X33332D01*
X30000Y24699D02*
X31666D01*
X25832Y30098D02*
X22500D01*
Y25100D01*
X25832D01*
X22500Y27599D02*
X24166D01*
X35832Y56298D02*
X32500D01*
Y51300D01*
X35832D01*
X32500Y53799D02*
X34166D01*
X41332Y56198D02*
X38000D01*
Y51200D01*
X41332D01*
X38000Y53699D02*
X39666D01*
X47132Y54698D02*
X43800D01*
Y49700D01*
X47132D01*
X43800Y52199D02*
X45466D01*
X53532Y54598D02*
X50200D01*
Y49600D01*
X53532D01*
X50200Y52099D02*
X51866D01*
X77532Y70698D02*
X74200D01*
Y65700D01*
X77532D01*
X74200Y68199D02*
X75866D01*
X77432Y65898D02*
X74100D01*
Y60900D01*
X77432D01*
X74100Y63399D02*
X75766D01*
X77432Y61398D02*
X74100D01*
Y56400D01*
X77432D01*
X74100Y58899D02*
X75766D01*
X77332Y56498D02*
X74000D01*
Y51500D01*
X77332D01*
X74000Y53999D02*
X75666D01*
X77432Y49398D02*
X74100D01*
Y44400D01*
X77432D01*
X74100Y46899D02*
X75766D01*
X76732Y44498D02*
X73400D01*
Y39500D01*
X76732D01*
X73400Y41999D02*
X75066D01*
X69532Y62298D02*
X66200D01*
Y57300D01*
X69532D01*
X66200Y59799D02*
X67866D01*
X64932Y58398D02*
X61600D01*
Y53400D01*
X64932D01*
X61600Y55899D02*
X63266D01*
X47932Y29598D02*
X44600D01*
Y24600D01*
X47932D01*
X44600Y27099D02*
X46266D01*
X55132Y29598D02*
X51800D01*
Y24600D01*
X55132D01*
X51800Y27099D02*
X53466D01*
X69432Y33998D02*
X66100D01*
Y29000D01*
X69432D01*
X66100Y31499D02*
X67766D01*
X16032Y23798D02*
X12700D01*
Y18800D01*
X16032D01*
X12700Y21299D02*
X14366D01*
X45432Y45398D02*
X42100D01*
Y40400D01*
X45432D01*
X42100Y42899D02*
X43766D01*
X65332Y46898D02*
X62000D01*
Y41900D01*
X65332D01*
X62000Y44399D02*
X63666D01*
X27832Y22798D02*
X24500D01*
Y17800D01*
X27832D01*
X24500Y20299D02*
X26166D01*
X57332Y42398D02*
X54000D01*
Y37400D01*
X57332D01*
X54000Y39899D02*
X55666D01*
X64032Y42298D02*
X60700D01*
Y37300D01*
X64032D01*
X60700Y39799D02*
X62366D01*
X59032Y47998D02*
X55700D01*
Y43000D01*
X59032D01*
X55700Y45499D02*
X57366D01*
D12*
X123498Y82998D02*
X122299Y84198D01*
X119900D01*
X118700Y82998D01*
Y81798D01*
X119900Y80599D01*
X122299D01*
X123498Y79399D01*
Y78200D01*
X122299Y77000D01*
X119900D01*
X118700Y78200D01*
X125898Y81798D02*
Y78200D01*
X127097Y77000D01*
X130696D01*
Y75800D01*
X129497Y74601D01*
X128297D01*
X130696Y77000D02*
Y81798D01*
X133095Y77000D02*
Y81798D01*
X134295D01*
X135495Y80599D01*
Y77000D01*
Y80599D01*
X136694Y81798D01*
X137894Y80599D01*
Y77000D01*
X140293Y84198D02*
Y77000D01*
X143892D01*
X145091Y78200D01*
Y79399D01*
Y80599D01*
X143892Y81798D01*
X140293D01*
X148690Y77000D02*
X151090D01*
X152289Y78200D01*
Y80599D01*
X151090Y81798D01*
X148690D01*
X147491Y80599D01*
Y78200D01*
X148690Y77000D01*
X154688D02*
X157088D01*
X155888D01*
Y84198D01*
X154688D01*
X171500D02*
Y77000D01*
Y80599D01*
X176298D01*
Y84198D01*
Y77000D01*
X178698D02*
X181097D01*
X179897D01*
Y81798D01*
X178698D01*
X185895Y82998D02*
Y81798D01*
X184696D01*
X187095D01*
X185895D01*
Y78200D01*
X187095Y77000D01*
X202690Y82998D02*
X201490Y84198D01*
X199091D01*
X197891Y82998D01*
Y78200D01*
X199091Y77000D01*
X201490D01*
X202690Y78200D01*
X206289Y77000D02*
X208688D01*
X209888Y78200D01*
Y80599D01*
X208688Y81798D01*
X206289D01*
X205089Y80599D01*
Y78200D01*
X206289Y77000D01*
X212287Y81798D02*
Y78200D01*
X213486Y77000D01*
X217085D01*
Y81798D01*
X219484Y77000D02*
Y81798D01*
X223083D01*
X224283Y80599D01*
Y77000D01*
X227882Y82998D02*
Y81798D01*
X226682D01*
X229081D01*
X227882D01*
Y78200D01*
X229081Y77000D01*
X245880Y84198D02*
X241081D01*
Y80599D01*
X243481D01*
X241081D01*
Y77000D01*
X248279D02*
X250678D01*
X249479D01*
Y81798D01*
X248279D01*
X254277Y77000D02*
Y81798D01*
X257876D01*
X259075Y80599D01*
Y77000D01*
X261475D02*
X263874D01*
X262674D01*
Y81798D01*
X261475D01*
X267473Y77000D02*
X271072D01*
X272271Y78200D01*
X271072Y79399D01*
X268672D01*
X267473Y80599D01*
X268672Y81798D01*
X272271D01*
X274671Y84198D02*
Y77000D01*
Y80599D01*
X275870Y81798D01*
X278269D01*
X279469Y80599D01*
Y77000D01*
X285467D02*
X283068D01*
X281868Y78200D01*
Y80599D01*
X283068Y81798D01*
X285467D01*
X286667Y80599D01*
Y79399D01*
X281868D01*
X293864Y84198D02*
Y77000D01*
X290265D01*
X289066Y78200D01*
Y80599D01*
X290265Y81798D01*
X293864D01*
X303461Y84198D02*
Y77000D01*
Y80599D01*
X308260D01*
Y84198D01*
Y77000D01*
X311858D02*
X314258D01*
X315457Y78200D01*
Y80599D01*
X314258Y81798D01*
X311858D01*
X310659Y80599D01*
Y78200D01*
X311858Y77000D01*
X317857D02*
X320256D01*
X319056D01*
Y84198D01*
X317857D01*
X327453Y77000D02*
X325054D01*
X323855Y78200D01*
Y80599D01*
X325054Y81798D01*
X327453D01*
X328653Y80599D01*
Y79399D01*
X323855D01*
X343048Y82998D02*
X341849Y84198D01*
X339450D01*
X338250Y82998D01*
Y81798D01*
X339450Y80599D01*
X341849D01*
X343048Y79399D01*
Y78200D01*
X341849Y77000D01*
X339450D01*
X338250Y78200D01*
X345448Y77000D02*
X347847D01*
X346647D01*
Y81798D01*
X345448D01*
X351446D02*
X356244D01*
X351446Y77000D01*
X356244D01*
X362242D02*
X359843D01*
X358643Y78200D01*
Y80599D01*
X359843Y81798D01*
X362242D01*
X363442Y80599D01*
Y79399D01*
X358643D01*
X375442Y77000D02*
Y84198D01*
X379041D01*
X380240Y82998D01*
Y80599D01*
X379041Y79399D01*
X375442D01*
X382639Y84198D02*
Y77000D01*
Y80599D01*
X383839Y81798D01*
X386238D01*
X387438Y80599D01*
Y77000D01*
X389837Y81798D02*
Y78200D01*
X391037Y77000D01*
X394636D01*
Y75800D01*
X393436Y74601D01*
X392236D01*
X394636Y77000D02*
Y81798D01*
X397035Y77000D02*
X400634D01*
X401833Y78200D01*
X400634Y79399D01*
X398234D01*
X397035Y80599D01*
X398234Y81798D01*
X401833D01*
X404232Y77000D02*
X406632D01*
X405432D01*
Y81798D01*
X404232D01*
X415029D02*
X411430D01*
X410230Y80599D01*
Y78200D01*
X411430Y77000D01*
X415029D01*
X418628Y81798D02*
X421027D01*
X422227Y80599D01*
Y77000D01*
X418628D01*
X417428Y78200D01*
X418628Y79399D01*
X422227D01*
X424626Y77000D02*
X427025D01*
X425826D01*
Y84198D01*
X424626D01*
X437822D02*
Y77000D01*
X442620D01*
X448618D02*
X446219D01*
X445019Y78200D01*
Y80599D01*
X446219Y81798D01*
X448618D01*
X449818Y80599D01*
Y79399D01*
X445019D01*
X452217Y77000D02*
Y81798D01*
X455816D01*
X457015Y80599D01*
Y77000D01*
X461814Y74601D02*
X463013D01*
X464213Y75800D01*
Y81798D01*
X460614D01*
X459415Y80599D01*
Y78200D01*
X460614Y77000D01*
X464213D01*
X467812Y82998D02*
Y81798D01*
X466612D01*
X469011D01*
X467812D01*
Y78200D01*
X469011Y77000D01*
X472610Y84198D02*
Y77000D01*
Y80599D01*
X473810Y81798D01*
X476209D01*
X477409Y80599D01*
Y77000D01*
X489409D02*
Y84198D01*
X493008D01*
X494207Y82998D01*
Y80599D01*
X493008Y79399D01*
X489409D01*
X491808D02*
X494207Y77000D01*
X497806D02*
X500205D01*
X501405Y78200D01*
Y80599D01*
X500205Y81798D01*
X497806D01*
X496606Y80599D01*
Y78200D01*
X497806Y77000D01*
X503804Y81798D02*
Y78200D01*
X505004Y77000D01*
X508603D01*
Y81798D01*
X512201Y82998D02*
Y81798D01*
X511002D01*
X513401D01*
X512201D01*
Y78200D01*
X513401Y77000D01*
X524197D02*
Y84198D01*
X527796D01*
X528996Y82998D01*
Y80599D01*
X527796Y79399D01*
X524197D01*
X532595Y81798D02*
X534994D01*
X536194Y80599D01*
Y77000D01*
X532595D01*
X531395Y78200D01*
X532595Y79399D01*
X536194D01*
X539792Y82998D02*
Y81798D01*
X538593D01*
X540992D01*
X539792D01*
Y78200D01*
X540992Y77000D01*
X544591Y84198D02*
Y77000D01*
Y80599D01*
X545790Y81798D01*
X548190D01*
X549389Y80599D01*
Y77000D01*
X558986Y84198D02*
Y77000D01*
X563785D01*
X569783D02*
X567383D01*
X566184Y78200D01*
Y80599D01*
X567383Y81798D01*
X569783D01*
X570982Y80599D01*
Y79399D01*
X566184D01*
X573382Y77000D02*
Y81798D01*
X576980D01*
X578180Y80599D01*
Y77000D01*
X582978Y74601D02*
X584178D01*
X585378Y75800D01*
Y81798D01*
X581779D01*
X580579Y80599D01*
Y78200D01*
X581779Y77000D01*
X585378D01*
X588976Y82998D02*
Y81798D01*
X587777D01*
X590176D01*
X588976D01*
Y78200D01*
X590176Y77000D01*
X593775Y84198D02*
Y77000D01*
Y80599D01*
X594975Y81798D01*
X597374D01*
X598573Y80599D01*
Y77000D01*
X610573D02*
Y84198D01*
X614172D01*
X615372Y82998D01*
Y80599D01*
X614172Y79399D01*
X610573D01*
X617771Y77000D02*
X620170D01*
X618971D01*
Y84198D01*
X617771D01*
X624969Y81798D02*
X627368D01*
X628568Y80599D01*
Y77000D01*
X624969D01*
X623769Y78200D01*
X624969Y79399D01*
X628568D01*
X632166Y82998D02*
Y81798D01*
X630967D01*
X633366D01*
X632166D01*
Y78200D01*
X633366Y77000D01*
X640564D02*
X638165D01*
X636965Y78200D01*
Y80599D01*
X638165Y81798D01*
X640564D01*
X641763Y80599D01*
Y79399D01*
X636965D01*
X648961Y84198D02*
Y77000D01*
X645362D01*
X644163Y78200D01*
Y80599D01*
X645362Y81798D01*
X648961D01*
X660961Y84198D02*
Y77000D01*
Y80599D01*
X665760D01*
Y84198D01*
Y77000D01*
X669358D02*
X671758D01*
X672957Y78200D01*
Y80599D01*
X671758Y81798D01*
X669358D01*
X668159Y80599D01*
Y78200D01*
X669358Y77000D01*
X675356D02*
X677756D01*
X676556D01*
Y84198D01*
X675356D01*
X684953Y77000D02*
X682554D01*
X681354Y78200D01*
Y80599D01*
X682554Y81798D01*
X684953D01*
X686153Y80599D01*
Y79399D01*
X681354D01*
X695750Y84198D02*
X700548D01*
X698149D01*
Y77000D01*
X702947Y81798D02*
Y78200D01*
X704147Y77000D01*
X707746D01*
Y75800D01*
X706546Y74601D01*
X705347D01*
X707746Y77000D02*
Y81798D01*
X710145Y74601D02*
Y81798D01*
X713744D01*
X714944Y80599D01*
Y78200D01*
X713744Y77000D01*
X710145D01*
X720942D02*
X718542D01*
X717343Y78200D01*
Y80599D01*
X718542Y81798D01*
X720942D01*
X722141Y80599D01*
Y79399D01*
X717343D01*
X109900Y87800D02*
X734141D01*
X109900Y71600D02*
X734141D01*
X109900Y87800D02*
Y-400D01*
X734141Y87800D02*
Y-400D01*
X167100Y87800D02*
Y-400D01*
X236681Y87800D02*
Y-400D01*
X371042Y87800D02*
Y-400D01*
X485009Y87800D02*
Y-400D01*
X606173Y87800D02*
Y-400D01*
X656561Y87800D02*
Y-400D01*
X109900Y11600D02*
X734141D01*
X109900Y-400D02*
X734141D01*
D13*
X122699Y68598D02*
X118700D01*
Y62600D01*
X122699D01*
X118700Y65599D02*
X120699D01*
X175499Y62600D02*
X171500D01*
X175499Y66599D01*
Y67598D01*
X174499Y68598D01*
X172500D01*
X171500Y67598D01*
X177498D02*
X178498Y68598D01*
X180497D01*
X181497Y67598D01*
Y66599D01*
X180497Y65599D01*
X179497D01*
X180497D01*
X181497Y64599D01*
Y63600D01*
X180497Y62600D01*
X178498D01*
X177498Y63600D01*
X183496Y67598D02*
X184496Y68598D01*
X186495D01*
X187495Y67598D01*
Y66599D01*
X186495Y65599D01*
X187495Y64599D01*
Y63600D01*
X186495Y62600D01*
X184496D01*
X183496Y63600D01*
Y64599D01*
X184496Y65599D01*
X183496Y66599D01*
Y67598D01*
X184496Y65599D02*
X186495D01*
X241081Y62600D02*
X243081D01*
X242081D01*
Y68598D01*
X241081Y67598D01*
X246080Y62600D02*
X248079D01*
X247079D01*
Y68598D01*
X246080Y67598D01*
X251078Y62600D02*
Y63600D01*
X252078D01*
Y62600D01*
X251078D01*
X256077Y67598D02*
X257076Y68598D01*
X259075D01*
X260075Y67598D01*
Y66599D01*
X259075Y65599D01*
X260075Y64599D01*
Y63600D01*
X259075Y62600D01*
X257076D01*
X256077Y63600D01*
Y64599D01*
X257076Y65599D01*
X256077Y66599D01*
Y67598D01*
X257076Y65599D02*
X259075D01*
X262075Y62600D02*
X264074D01*
X263074D01*
Y68598D01*
X262075Y67598D01*
X267073Y62600D02*
X269072D01*
X268073D01*
Y68598D01*
X267073Y67598D01*
X272071Y62600D02*
Y66599D01*
X273071D01*
X274071Y65599D01*
Y62600D01*
Y65599D01*
X275070Y66599D01*
X276070Y65599D01*
Y62600D01*
X278069D02*
X280069D01*
X279069D01*
Y66599D01*
X278069D01*
X283068Y62600D02*
X285067D01*
X284067D01*
Y68598D01*
X283068D01*
X296063Y62600D02*
X294064Y64599D01*
Y66599D01*
X296063Y68598D01*
X299063Y67598D02*
X300062Y68598D01*
X302062D01*
X303061Y67598D01*
Y63600D01*
X302062Y62600D01*
X300062D01*
X299063Y63600D01*
Y67598D01*
X305061Y62600D02*
Y63600D01*
X306060D01*
Y62600D01*
X305061D01*
X310059Y67598D02*
X311059Y68598D01*
X313058D01*
X314058Y67598D01*
Y66599D01*
X313058Y65599D01*
X312058D01*
X313058D01*
X314058Y64599D01*
Y63600D01*
X313058Y62600D01*
X311059D01*
X310059Y63600D01*
X316057Y62600D02*
Y66599D01*
X317057D01*
X318056Y65599D01*
Y62600D01*
Y65599D01*
X319056Y66599D01*
X320056Y65599D01*
Y62600D01*
X322055D02*
Y66599D01*
X323055D01*
X324055Y65599D01*
Y62600D01*
Y65599D01*
X325054Y66599D01*
X326054Y65599D01*
Y62600D01*
X328053D02*
X330053Y64599D01*
Y66599D01*
X328053Y68598D01*
X610573Y62600D02*
Y68598D01*
X613573D01*
X614572Y67598D01*
Y65599D01*
X613573Y64599D01*
X610573D01*
X616572Y68598D02*
X620570D01*
X618571D01*
Y62600D01*
X622570Y68598D02*
Y62600D01*
Y65599D01*
X626568D01*
Y68598D01*
Y62600D01*
X660961D02*
Y68598D01*
X663960D01*
X664960Y67598D01*
Y65599D01*
X663960Y64599D01*
X660961D01*
X662960D02*
X664960Y62600D01*
X667959D02*
X669958D01*
X670958Y63600D01*
Y65599D01*
X669958Y66599D01*
X667959D01*
X666959Y65599D01*
Y63600D01*
X667959Y62600D01*
X672957Y66599D02*
Y63600D01*
X673957Y62600D01*
X676956D01*
Y66599D01*
X678955Y62600D02*
Y66599D01*
X681954D01*
X682954Y65599D01*
Y62600D01*
X688952Y68598D02*
Y62600D01*
X685953D01*
X684953Y63600D01*
Y65599D01*
X685953Y66599D01*
X688952D01*
X122699Y55598D02*
X121699Y56598D01*
X119700D01*
X118700Y55598D01*
Y51600D01*
X119700Y50600D01*
X121699D01*
X122699Y51600D01*
X175499Y50600D02*
X171500D01*
X175499Y54599D01*
Y55598D01*
X174499Y56598D01*
X172500D01*
X171500Y55598D01*
X245080Y50600D02*
X241081D01*
X245080Y54599D01*
Y55598D01*
X244080Y56598D01*
X242081D01*
X241081Y55598D01*
X247079Y56598D02*
X251078D01*
Y55598D01*
X247079Y51600D01*
Y50600D01*
X253078D02*
Y51600D01*
X254077D01*
Y50600D01*
X253078D01*
X262075Y56598D02*
X258076D01*
Y53599D01*
X260075Y54599D01*
X261075D01*
X262075Y53599D01*
Y51600D01*
X261075Y50600D01*
X259075D01*
X258076Y51600D01*
X264074Y50600D02*
Y54599D01*
X265074D01*
X266073Y53599D01*
Y50600D01*
Y53599D01*
X267073Y54599D01*
X268073Y53599D01*
Y50600D01*
X270072D02*
X272071D01*
X271072D01*
Y54599D01*
X270072D01*
X275070Y50600D02*
X277070D01*
X276070D01*
Y56598D01*
X275070D01*
X288066Y50600D02*
X286067Y52599D01*
Y54599D01*
X288066Y56598D01*
X291065Y55598D02*
X292065Y56598D01*
X294064D01*
X295064Y55598D01*
Y51600D01*
X294064Y50600D01*
X292065D01*
X291065Y51600D01*
Y55598D01*
X297063Y50600D02*
Y51600D01*
X298063D01*
Y50600D01*
X297063D01*
X306060Y56598D02*
X304061Y55598D01*
X302062Y53599D01*
Y51600D01*
X303061Y50600D01*
X305061D01*
X306060Y51600D01*
Y52599D01*
X305061Y53599D01*
X302062D01*
X308060Y51600D02*
X309059Y50600D01*
X311059D01*
X312058Y51600D01*
Y55598D01*
X311059Y56598D01*
X309059D01*
X308060Y55598D01*
Y54599D01*
X309059Y53599D01*
X312058D01*
X314058Y55598D02*
X315057Y56598D01*
X317057D01*
X318056Y55598D01*
Y54599D01*
X317057Y53599D01*
X318056Y52599D01*
Y51600D01*
X317057Y50600D01*
X315057D01*
X314058Y51600D01*
Y52599D01*
X315057Y53599D01*
X314058Y54599D01*
Y55598D01*
X315057Y53599D02*
X317057D01*
X324055Y56598D02*
X320056D01*
Y53599D01*
X322055Y54599D01*
X323055D01*
X324055Y53599D01*
Y51600D01*
X323055Y50600D01*
X321056D01*
X320056Y51600D01*
X326054Y50600D02*
Y54599D01*
X327053D01*
X328053Y53599D01*
Y50600D01*
Y53599D01*
X329053Y54599D01*
X330053Y53599D01*
Y50600D01*
X332052D02*
Y54599D01*
X333052D01*
X334051Y53599D01*
Y50600D01*
Y53599D01*
X335051Y54599D01*
X336051Y53599D01*
Y50600D01*
X338050D02*
X340049Y52599D01*
Y54599D01*
X338050Y56598D01*
X610573Y50600D02*
Y56598D01*
X613573D01*
X614572Y55598D01*
Y53599D01*
X613573Y52599D01*
X610573D01*
X616572Y56598D02*
X620570D01*
X618571D01*
Y50600D01*
X622570Y56598D02*
Y50600D01*
Y53599D01*
X626568D01*
Y56598D01*
Y50600D01*
X660961D02*
Y56598D01*
X663960D01*
X664960Y55598D01*
Y53599D01*
X663960Y52599D01*
X660961D01*
X662960D02*
X664960Y50600D01*
X667959D02*
X669958D01*
X670958Y51600D01*
Y53599D01*
X669958Y54599D01*
X667959D01*
X666959Y53599D01*
Y51600D01*
X667959Y50600D01*
X672957Y54599D02*
Y51600D01*
X673957Y50600D01*
X676956D01*
Y54599D01*
X678955Y50600D02*
Y54599D01*
X681954D01*
X682954Y53599D01*
Y50600D01*
X688952Y56598D02*
Y50600D01*
X685953D01*
X684953Y51600D01*
Y53599D01*
X685953Y54599D01*
X688952D01*
X118700Y38600D02*
Y42599D01*
X120699Y44598D01*
X122699Y42599D01*
Y38600D01*
Y41599D01*
X118700D01*
X171500Y43598D02*
X172500Y44598D01*
X174499D01*
X175499Y43598D01*
Y42599D01*
X174499Y41599D01*
X173499D01*
X174499D01*
X175499Y40599D01*
Y39600D01*
X174499Y38600D01*
X172500D01*
X171500Y39600D01*
X180497Y38600D02*
Y44598D01*
X177498Y41599D01*
X181497D01*
X241081Y43598D02*
X242081Y44598D01*
X244080D01*
X245080Y43598D01*
Y42599D01*
X244080Y41599D01*
X243081D01*
X244080D01*
X245080Y40599D01*
Y39600D01*
X244080Y38600D01*
X242081D01*
X241081Y39600D01*
X251078Y44598D02*
X247079D01*
Y41599D01*
X249079Y42599D01*
X250079D01*
X251078Y41599D01*
Y39600D01*
X250079Y38600D01*
X248079D01*
X247079Y39600D01*
X253078Y38600D02*
Y42599D01*
X254077D01*
X255077Y41599D01*
Y38600D01*
Y41599D01*
X256077Y42599D01*
X257076Y41599D01*
Y38600D01*
X259075D02*
X261075D01*
X260075D01*
Y42599D01*
X259075D01*
X264074Y38600D02*
X266073D01*
X265074D01*
Y44598D01*
X264074D01*
X277070Y38600D02*
X275070Y40599D01*
Y42599D01*
X277070Y44598D01*
X280069Y43598D02*
X281068Y44598D01*
X283068D01*
X284068Y43598D01*
Y39600D01*
X283068Y38600D01*
X281068D01*
X280069Y39600D01*
Y43598D01*
X286067Y38600D02*
Y39600D01*
X287067D01*
Y38600D01*
X286067D01*
X291065Y43598D02*
X292065Y44598D01*
X294064D01*
X295064Y43598D01*
Y42599D01*
X294064Y41599D01*
X295064Y40599D01*
Y39600D01*
X294064Y38600D01*
X292065D01*
X291065Y39600D01*
Y40599D01*
X292065Y41599D01*
X291065Y42599D01*
Y43598D01*
X292065Y41599D02*
X294064D01*
X297063Y43598D02*
X298063Y44598D01*
X300062D01*
X301062Y43598D01*
Y42599D01*
X300062Y41599D01*
X301062Y40599D01*
Y39600D01*
X300062Y38600D01*
X298063D01*
X297063Y39600D01*
Y40599D01*
X298063Y41599D01*
X297063Y42599D01*
Y43598D01*
X298063Y41599D02*
X300062D01*
X303061Y39600D02*
X304061Y38600D01*
X306060D01*
X307060Y39600D01*
Y43598D01*
X306060Y44598D01*
X304061D01*
X303061Y43598D01*
Y42599D01*
X304061Y41599D01*
X307060D01*
X309059Y38600D02*
Y42599D01*
X310059D01*
X311059Y41599D01*
Y38600D01*
Y41599D01*
X312058Y42599D01*
X313058Y41599D01*
Y38600D01*
X315057D02*
Y42599D01*
X316057D01*
X317057Y41599D01*
Y38600D01*
Y41599D01*
X318056Y42599D01*
X319056Y41599D01*
Y38600D01*
X321056D02*
X323055Y40599D01*
Y42599D01*
X321056Y44598D01*
X610573Y38600D02*
Y44598D01*
X613573D01*
X614572Y43598D01*
Y41599D01*
X613573Y40599D01*
X610573D01*
X616572Y44598D02*
X620570D01*
X618571D01*
Y38600D01*
X622570Y44598D02*
Y38600D01*
Y41599D01*
X626568D01*
Y44598D01*
Y38600D01*
X660961D02*
Y44598D01*
X663960D01*
X664960Y43598D01*
Y41599D01*
X663960Y40599D01*
X660961D01*
X662960D02*
X664960Y38600D01*
X667959D02*
X669958D01*
X670958Y39600D01*
Y41599D01*
X669958Y42599D01*
X667959D01*
X666959Y41599D01*
Y39600D01*
X667959Y38600D01*
X672957Y42599D02*
Y39600D01*
X673957Y38600D01*
X676956D01*
Y42599D01*
X678955Y38600D02*
Y42599D01*
X681954D01*
X682954Y41599D01*
Y38600D01*
X688952Y44598D02*
Y38600D01*
X685953D01*
X684953Y39600D01*
Y41599D01*
X685953Y42599D01*
X688952D01*
X118700Y32598D02*
Y26600D01*
X121699D01*
X122699Y27600D01*
Y28599D01*
X121699Y29599D01*
X118700D01*
X121699D01*
X122699Y30599D01*
Y31598D01*
X121699Y32598D01*
X118700D01*
X174499Y26600D02*
Y32598D01*
X171500Y29599D01*
X175499D01*
X241081Y26600D02*
X243081D01*
X242081D01*
Y32598D01*
X241081Y31598D01*
X246080Y26600D02*
X248079D01*
X247079D01*
Y32598D01*
X246080Y31598D01*
X255077Y32598D02*
X251078D01*
Y29599D01*
X253078Y30599D01*
X254077D01*
X255077Y29599D01*
Y27600D01*
X254077Y26600D01*
X252078D01*
X251078Y27600D01*
X257076Y26600D02*
Y30599D01*
X258076D01*
X259075Y29599D01*
Y26600D01*
Y29599D01*
X260075Y30599D01*
X261075Y29599D01*
Y26600D01*
X263074D02*
X265074D01*
X264074D01*
Y30599D01*
X263074D01*
X268073Y26600D02*
X270072D01*
X269072D01*
Y32598D01*
X268073D01*
X281068Y26600D02*
X279069Y28599D01*
Y30599D01*
X281068Y32598D01*
X288066Y26600D02*
X284067D01*
X288066Y30599D01*
Y31598D01*
X287067Y32598D01*
X285067D01*
X284067Y31598D01*
X290066Y26600D02*
Y27600D01*
X291065D01*
Y26600D01*
X290066D01*
X295064Y27600D02*
X296064Y26600D01*
X298063D01*
X299063Y27600D01*
Y31598D01*
X298063Y32598D01*
X296064D01*
X295064Y31598D01*
Y30599D01*
X296064Y29599D01*
X299063D01*
X305061Y26600D02*
X301062D01*
X305061Y30599D01*
Y31598D01*
X304061Y32598D01*
X302062D01*
X301062Y31598D01*
X307060Y26600D02*
X309059D01*
X308060D01*
Y32598D01*
X307060Y31598D01*
X312058Y26600D02*
Y30599D01*
X313058D01*
X314058Y29599D01*
Y26600D01*
Y29599D01*
X315057Y30599D01*
X316057Y29599D01*
Y26600D01*
X318056D02*
Y30599D01*
X319056D01*
X320056Y29599D01*
Y26600D01*
Y29599D01*
X321056Y30599D01*
X322055Y29599D01*
Y26600D01*
X324055D02*
X326054Y28599D01*
Y30599D01*
X324055Y32598D01*
X610573Y26600D02*
Y32598D01*
X614572Y26600D01*
Y32598D01*
X616572Y26600D02*
Y32598D01*
X619570D01*
X620570Y31598D01*
Y29599D01*
X619570Y28599D01*
X616572D01*
X622570Y32598D02*
X626568D01*
X624569D01*
Y26600D01*
X628568Y32598D02*
Y26600D01*
Y29599D01*
X632566D01*
Y32598D01*
Y26600D01*
X660961D02*
Y32598D01*
X663960D01*
X664960Y31598D01*
Y29599D01*
X663960Y28599D01*
X660961D01*
X662960D02*
X664960Y26600D01*
X667959D02*
X669958D01*
X670958Y27600D01*
Y29599D01*
X669958Y30599D01*
X667959D01*
X666959Y29599D01*
Y27600D01*
X667959Y26600D01*
X672957Y30599D02*
Y27600D01*
X673957Y26600D01*
X676956D01*
Y30599D01*
X678955Y26600D02*
Y30599D01*
X681954D01*
X682954Y29599D01*
Y26600D01*
X688952Y32598D02*
Y26600D01*
X685953D01*
X684953Y27600D01*
Y29599D01*
X685953Y30599D01*
X688952D01*
X118700Y20598D02*
Y14600D01*
X121699D01*
X122699Y15600D01*
Y19598D01*
X121699Y20598D01*
X118700D01*
X175499Y14600D02*
X171500D01*
X175499Y18599D01*
Y19598D01*
X174499Y20598D01*
X172500D01*
X171500Y19598D01*
X245080Y14600D02*
X241081D01*
X245080Y18599D01*
Y19598D01*
X244080Y20598D01*
X242081D01*
X241081Y19598D01*
X247079Y20598D02*
X251078D01*
Y19598D01*
X247079Y15600D01*
Y14600D01*
X253078D02*
Y15600D01*
X254077D01*
Y14600D01*
X253078D01*
X262075Y20598D02*
X258076D01*
Y17599D01*
X260075Y18599D01*
X261075D01*
X262075Y17599D01*
Y15600D01*
X261075Y14600D01*
X259075D01*
X258076Y15600D01*
X268073Y20598D02*
X264074D01*
Y17599D01*
X266073Y18599D01*
X267073D01*
X268073Y17599D01*
Y15600D01*
X267073Y14600D01*
X265074D01*
X264074Y15600D01*
X270072D02*
X271072Y14600D01*
X273071D01*
X274071Y15600D01*
Y19598D01*
X273071Y20598D01*
X271072D01*
X270072Y19598D01*
Y18599D01*
X271072Y17599D01*
X274071D01*
X276070Y14600D02*
Y18599D01*
X277070D01*
X278069Y17599D01*
Y14600D01*
Y17599D01*
X279069Y18599D01*
X280069Y17599D01*
Y14600D01*
X282068D02*
X284068D01*
X283068D01*
Y18599D01*
X282068D01*
X287067Y14600D02*
X289066D01*
X288066D01*
Y20598D01*
X287067D01*
X300062Y14600D02*
X298063Y16599D01*
Y18599D01*
X300062Y20598D01*
X303061Y19598D02*
X304061Y20598D01*
X306060D01*
X307060Y19598D01*
Y15600D01*
X306060Y14600D01*
X304061D01*
X303061Y15600D01*
Y19598D01*
X309059Y14600D02*
Y15600D01*
X310059D01*
Y14600D01*
X309059D01*
X314058Y20598D02*
X318056D01*
Y19598D01*
X314058Y15600D01*
Y14600D01*
X320056D02*
Y18599D01*
X321056D01*
X322055Y17599D01*
Y14600D01*
Y17599D01*
X323055Y18599D01*
X324055Y17599D01*
Y14600D01*
X326054D02*
Y18599D01*
X327053D01*
X328053Y17599D01*
Y14600D01*
Y17599D01*
X329053Y18599D01*
X330053Y17599D01*
Y14600D01*
X332052D02*
X334051Y16599D01*
Y18599D01*
X332052Y20598D01*
X378441Y14600D02*
Y20598D01*
X375442Y17599D01*
X379440D01*
X381440Y19598D02*
X382439Y20598D01*
X384439D01*
X385438Y19598D01*
Y18599D01*
X384439Y17599D01*
X383439D01*
X384439D01*
X385438Y16599D01*
Y15600D01*
X384439Y14600D01*
X382439D01*
X381440Y15600D01*
X387438Y14600D02*
Y15600D01*
X388438D01*
Y14600D01*
X387438D01*
X392436Y19598D02*
X393436Y20598D01*
X395435D01*
X396435Y19598D01*
Y18599D01*
X395435Y17599D01*
X394436D01*
X395435D01*
X396435Y16599D01*
Y15600D01*
X395435Y14600D01*
X393436D01*
X392436Y15600D01*
X398434Y19598D02*
X399434Y20598D01*
X401433D01*
X402433Y19598D01*
Y15600D01*
X401433Y14600D01*
X399434D01*
X398434Y15600D01*
Y19598D01*
X404432Y20598D02*
X408431D01*
Y19598D01*
X404432Y15600D01*
Y14600D01*
X410430D02*
Y18599D01*
X411430D01*
X412430Y17599D01*
Y14600D01*
Y17599D01*
X413429Y18599D01*
X414429Y17599D01*
Y14600D01*
X416429D02*
X418428D01*
X417428D01*
Y18599D01*
X416429D01*
X421427Y14600D02*
X423426D01*
X422427D01*
Y20598D01*
X421427D01*
X434423Y14600D02*
X432423Y16599D01*
Y18599D01*
X434423Y20598D01*
X437422Y14600D02*
X439421D01*
X438421D01*
Y20598D01*
X437422Y19598D01*
X442420Y14600D02*
Y15600D01*
X443420D01*
Y14600D01*
X442420D01*
X447418D02*
X449418D01*
X448418D01*
Y20598D01*
X447418Y19598D01*
X452417Y14600D02*
Y18599D01*
X453416D01*
X454416Y17599D01*
Y14600D01*
Y17599D01*
X455416Y18599D01*
X456416Y17599D01*
Y14600D01*
X458415D02*
Y18599D01*
X459415D01*
X460414Y17599D01*
Y14600D01*
Y17599D01*
X461414Y18599D01*
X462414Y17599D01*
Y14600D01*
X464413D02*
X466412Y16599D01*
Y18599D01*
X464413Y20598D01*
X489409Y14600D02*
X491408D01*
X490408D01*
Y20598D01*
X489409Y19598D01*
X498406Y20598D02*
X494407D01*
Y17599D01*
X496407Y18599D01*
X497406D01*
X498406Y17599D01*
Y15600D01*
X497406Y14600D01*
X495407D01*
X494407Y15600D01*
X500405Y14600D02*
Y15600D01*
X501405D01*
Y14600D01*
X500405D01*
X505404Y20598D02*
X509402D01*
Y19598D01*
X505404Y15600D01*
Y14600D01*
X514401D02*
Y20598D01*
X511402Y17599D01*
X515400D01*
X517400Y19598D02*
X518399Y20598D01*
X520399D01*
X521398Y19598D01*
Y18599D01*
X520399Y17599D01*
X521398Y16599D01*
Y15600D01*
X520399Y14600D01*
X518399D01*
X517400Y15600D01*
Y16599D01*
X518399Y17599D01*
X517400Y18599D01*
Y19598D01*
X518399Y17599D02*
X520399D01*
X523398Y14600D02*
Y18599D01*
X524397D01*
X525397Y17599D01*
Y14600D01*
Y17599D01*
X526397Y18599D01*
X527396Y17599D01*
Y14600D01*
X529396D02*
X531395D01*
X530396D01*
Y18599D01*
X529396D01*
X534394Y14600D02*
X536393D01*
X535394D01*
Y20598D01*
X534394D01*
X547390Y14600D02*
X545391Y16599D01*
Y18599D01*
X547390Y20598D01*
X550389Y19598D02*
X551389Y20598D01*
X553388D01*
X554388Y19598D01*
Y15600D01*
X553388Y14600D01*
X551389D01*
X550389Y15600D01*
Y19598D01*
X556387Y14600D02*
Y15600D01*
X557387D01*
Y14600D01*
X556387D01*
X564385D02*
Y20598D01*
X561385Y17599D01*
X565384D01*
X567383Y14600D02*
Y18599D01*
X568383D01*
X569383Y17599D01*
Y14600D01*
Y17599D01*
X570382Y18599D01*
X571382Y17599D01*
Y14600D01*
X573382D02*
Y18599D01*
X574381D01*
X575381Y17599D01*
Y14600D01*
Y17599D01*
X576381Y18599D01*
X577380Y17599D01*
Y14600D01*
X579380D02*
X581379Y16599D01*
Y18599D01*
X579380Y20598D01*
X610573Y14600D02*
Y20598D01*
X613573D01*
X614572Y19598D01*
Y17599D01*
X613573Y16599D01*
X610573D01*
X616572Y20598D02*
X620570D01*
X618571D01*
Y14600D01*
X622570Y20598D02*
Y14600D01*
Y17599D01*
X626568D01*
Y20598D01*
Y14600D01*
X664960Y19598D02*
X663960Y20598D01*
X661961D01*
X660961Y19598D01*
Y18599D01*
X661961Y17599D01*
X663960D01*
X664960Y16599D01*
Y15600D01*
X663960Y14600D01*
X661961D01*
X660961Y15600D01*
X666959Y14600D02*
X668958D01*
X667959D01*
Y20598D01*
X666959D01*
X672957Y14600D02*
X674957D01*
X675956Y15600D01*
Y17599D01*
X674957Y18599D01*
X672957D01*
X671957Y17599D01*
Y15600D01*
X672957Y14600D01*
X678955Y19598D02*
Y18599D01*
X677955D01*
X679955D01*
X678955D01*
Y15600D01*
X679955Y14600D01*
X175499Y2600D02*
X171500D01*
X175499Y6599D01*
Y7598D01*
X174499Y8598D01*
X172500D01*
X171500Y7598D01*
X177498D02*
X178498Y8598D01*
X180497D01*
X181497Y7598D01*
Y6599D01*
X180497Y5599D01*
X181497Y4599D01*
Y3600D01*
X180497Y2600D01*
X178498D01*
X177498Y3600D01*
Y4599D01*
X178498Y5599D01*
X177498Y6599D01*
Y7598D01*
X178498Y5599D02*
X180497D01*
X183496Y7598D02*
X184496Y8598D01*
X186495D01*
X187495Y7598D01*
Y3600D01*
X186495Y2600D01*
X184496D01*
X183496Y3600D01*
Y7598D01*
X198295Y8598D02*
X202293D01*
X200294D01*
Y2600D01*
X205293D02*
X207292D01*
X208292Y3600D01*
Y5599D01*
X207292Y6599D01*
X205293D01*
X204293Y5599D01*
Y3600D01*
X205293Y2600D01*
X211291Y7598D02*
Y6599D01*
X210291D01*
X212290D01*
X211291D01*
Y3600D01*
X212290Y2600D01*
X216289Y6599D02*
X218288D01*
X219288Y5599D01*
Y2600D01*
X216289D01*
X215289Y3600D01*
X216289Y4599D01*
X219288D01*
X221287Y2600D02*
X223287D01*
X222287D01*
Y8598D01*
X221287D01*
X326038Y-7401D02*
X330036D01*
X326038Y-5401D02*
X330036D01*
X342032Y-4402D02*
X341033Y-3402D01*
X339033D01*
X338034Y-4402D01*
Y-8400D01*
X339033Y-9400D01*
X341033D01*
X342032Y-8400D01*
X345031Y-5401D02*
X347031D01*
X348030Y-6401D01*
Y-9400D01*
X345031D01*
X344032Y-8400D01*
X345031Y-7401D01*
X348030D01*
X350030Y-9400D02*
X352029D01*
X351029D01*
Y-3402D01*
X350030D01*
X359027Y-5401D02*
X356028D01*
X355028Y-6401D01*
Y-8400D01*
X356028Y-9400D01*
X359027D01*
X361026Y-5401D02*
Y-8400D01*
X362026Y-9400D01*
X365025D01*
Y-5401D01*
X367024Y-9400D02*
X369024D01*
X368024D01*
Y-3402D01*
X367024D01*
X373022Y-5401D02*
X375022D01*
X376021Y-6401D01*
Y-9400D01*
X373022D01*
X372023Y-8400D01*
X373022Y-7401D01*
X376021D01*
X379020Y-4402D02*
Y-5401D01*
X378021D01*
X380020D01*
X379020D01*
Y-8400D01*
X380020Y-9400D01*
X386018D02*
X384019D01*
X383019Y-8400D01*
Y-6401D01*
X384019Y-5401D01*
X386018D01*
X387018Y-6401D01*
Y-7401D01*
X383019D01*
X393016Y-3402D02*
Y-9400D01*
X390017D01*
X389017Y-8400D01*
Y-6401D01*
X390017Y-5401D01*
X393016D01*
X402013Y-9400D02*
Y-4402D01*
Y-6401D01*
X401013D01*
X403013D01*
X402013D01*
Y-4402D01*
X403013Y-3402D01*
X406012Y-5401D02*
Y-9400D01*
Y-7401D01*
X407011Y-6401D01*
X408011Y-5401D01*
X409011D01*
X413009Y-9400D02*
X415009D01*
X416009Y-8400D01*
Y-6401D01*
X415009Y-5401D01*
X413009D01*
X412010Y-6401D01*
Y-8400D01*
X413009Y-9400D01*
X418008D02*
Y-5401D01*
X419007D01*
X420007Y-6401D01*
Y-9400D01*
Y-6401D01*
X421007Y-5401D01*
X422007Y-6401D01*
Y-9400D01*
X431004Y-4402D02*
Y-5401D01*
X430004D01*
X432003D01*
X431004D01*
Y-8400D01*
X432003Y-9400D01*
X436002D02*
X438001D01*
X439001Y-8400D01*
Y-6401D01*
X438001Y-5401D01*
X436002D01*
X435002Y-6401D01*
Y-8400D01*
X436002Y-9400D01*
X442000D02*
X443999D01*
X444999Y-8400D01*
Y-6401D01*
X443999Y-5401D01*
X442000D01*
X441000Y-6401D01*
Y-8400D01*
X442000Y-9400D01*
X446998D02*
X448998D01*
X447998D01*
Y-3402D01*
X446998D01*
X457995Y-9400D02*
X460994D01*
X461994Y-8400D01*
X460994Y-7401D01*
X458994D01*
X457995Y-6401D01*
X458994Y-5401D01*
X461994D01*
X464993Y-4402D02*
Y-5401D01*
X463993D01*
X465992D01*
X464993D01*
Y-8400D01*
X465992Y-9400D01*
X469991Y-5401D02*
X471990D01*
X472990Y-6401D01*
Y-9400D01*
X469991D01*
X468991Y-8400D01*
X469991Y-7401D01*
X472990D01*
X474989Y-5401D02*
Y-9400D01*
Y-7401D01*
X475989Y-6401D01*
X476989Y-5401D01*
X477988D01*
X481987Y-4402D02*
Y-5401D01*
X480987D01*
X482987D01*
X481987D01*
Y-8400D01*
X482987Y-9400D01*
X495983Y-5401D02*
X492984D01*
X491984Y-6401D01*
Y-8400D01*
X492984Y-9400D01*
X495983D01*
X500981D02*
X498982D01*
X497982Y-8400D01*
Y-6401D01*
X498982Y-5401D01*
X500981D01*
X501981Y-6401D01*
Y-7401D01*
X497982D01*
X503980Y-9400D02*
Y-5401D01*
X506979D01*
X507979Y-6401D01*
Y-9400D01*
X510978Y-4402D02*
Y-5401D01*
X509978D01*
X511977D01*
X510978D01*
Y-8400D01*
X511977Y-9400D01*
X514976Y-5401D02*
Y-9400D01*
Y-7401D01*
X515976Y-6401D01*
X516976Y-5401D01*
X517976D01*
X523974Y-9400D02*
X521974D01*
X520974Y-8400D01*
Y-6401D01*
X521974Y-5401D01*
X523974D01*
X524973Y-6401D01*
Y-7401D01*
X520974D01*
X532971Y-11399D02*
Y-5401D01*
X535970D01*
X536969Y-6401D01*
Y-8400D01*
X535970Y-9400D01*
X532971D01*
X539968D02*
X541968D01*
X542967Y-8400D01*
Y-6401D01*
X541968Y-5401D01*
X539968D01*
X538969Y-6401D01*
Y-8400D01*
X539968Y-9400D01*
X544967D02*
X547966D01*
X548965Y-8400D01*
X547966Y-7401D01*
X545966D01*
X544967Y-6401D01*
X545966Y-5401D01*
X548965D01*
X550965Y-9400D02*
X552964D01*
X551965D01*
Y-5401D01*
X550965D01*
X556963Y-4402D02*
Y-5401D01*
X555963D01*
X557963D01*
X556963D01*
Y-8400D01*
X557963Y-9400D01*
X560961D02*
X562961D01*
X561961D01*
Y-5401D01*
X560961D01*
X566960Y-9400D02*
X568959D01*
X569959Y-8400D01*
Y-6401D01*
X568959Y-5401D01*
X566960D01*
X565960Y-6401D01*
Y-8400D01*
X566960Y-9400D01*
X571958D02*
Y-5401D01*
X574957D01*
X575957Y-6401D01*
Y-9400D01*
X584954Y-4402D02*
Y-5401D01*
X583954D01*
X585954D01*
X584954D01*
Y-8400D01*
X585954Y-9400D01*
X589952D02*
X591952D01*
X592951Y-8400D01*
Y-6401D01*
X591952Y-5401D01*
X589952D01*
X588952Y-6401D01*
Y-8400D01*
X589952Y-9400D01*
X601948Y-4402D02*
Y-5401D01*
X600949D01*
X602948D01*
X601948D01*
Y-8400D01*
X602948Y-9400D01*
X606947D02*
X608946D01*
X609946Y-8400D01*
Y-6401D01*
X608946Y-5401D01*
X606947D01*
X605947Y-6401D01*
Y-8400D01*
X606947Y-9400D01*
X612945D02*
X614944D01*
X615944Y-8400D01*
Y-6401D01*
X614944Y-5401D01*
X612945D01*
X611945Y-6401D01*
Y-8400D01*
X612945Y-9400D01*
X617943D02*
X619943D01*
X618943D01*
Y-3402D01*
X617943D01*
X631939Y-9400D02*
X629939D01*
X628939Y-8400D01*
Y-6401D01*
X629939Y-5401D01*
X631939D01*
X632938Y-6401D01*
Y-7401D01*
X628939D01*
X634938Y-9400D02*
Y-5401D01*
X637937D01*
X638936Y-6401D01*
Y-9400D01*
X644934Y-3402D02*
Y-9400D01*
X641935D01*
X640936Y-8400D01*
Y-6401D01*
X641935Y-5401D01*
X644934D01*
X656930D02*
X653932D01*
X652932Y-6401D01*
Y-8400D01*
X653932Y-9400D01*
X656930D01*
X661929D02*
X659930D01*
X658930Y-8400D01*
Y-6401D01*
X659930Y-5401D01*
X661929D01*
X662929Y-6401D01*
Y-7401D01*
X658930D01*
X664928Y-9400D02*
Y-5401D01*
X667927D01*
X668927Y-6401D01*
Y-9400D01*
X671926Y-4402D02*
Y-5401D01*
X670926D01*
X672925D01*
X671926D01*
Y-8400D01*
X672925Y-9400D01*
X675924Y-5401D02*
Y-9400D01*
Y-7401D01*
X676924Y-6401D01*
X677924Y-5401D01*
X678923D01*
X684921Y-9400D02*
X682922D01*
X681922Y-8400D01*
Y-6401D01*
X682922Y-5401D01*
X684921D01*
X685921Y-6401D01*
Y-7401D01*
X681922D01*
X693919Y-11399D02*
Y-5401D01*
X696918D01*
X697917Y-6401D01*
Y-8400D01*
X696918Y-9400D01*
X693919D01*
X700916D02*
X702916D01*
X703915Y-8400D01*
Y-6401D01*
X702916Y-5401D01*
X700916D01*
X699917Y-6401D01*
Y-8400D01*
X700916Y-9400D01*
X705915D02*
X708914D01*
X709913Y-8400D01*
X708914Y-7401D01*
X706914D01*
X705915Y-6401D01*
X706914Y-5401D01*
X709913D01*
X711913Y-9400D02*
X713912D01*
X712912D01*
Y-5401D01*
X711913D01*
X717911Y-4402D02*
Y-5401D01*
X716911D01*
X718910D01*
X717911D01*
Y-8400D01*
X718910Y-9400D01*
X721910D02*
X723909D01*
X722909D01*
Y-5401D01*
X721910D01*
X727908Y-9400D02*
X729907D01*
X730907Y-8400D01*
Y-6401D01*
X729907Y-5401D01*
X727908D01*
X726908Y-6401D01*
Y-8400D01*
X727908Y-9400D01*
X732906D02*
Y-5401D01*
X735905D01*
X736905Y-6401D01*
Y-9400D01*
X738904D02*
Y-8400D01*
X739904D01*
Y-9400D01*
X738904D01*
X326038Y-19401D02*
X330036D01*
X326038Y-17401D02*
X330036D01*
X338034Y-21400D02*
Y-15402D01*
X341033D01*
X342032Y-16402D01*
Y-18401D01*
X341033Y-19401D01*
X338034D01*
X340033D02*
X342032Y-21400D01*
X345031D02*
X347031D01*
X348030Y-20400D01*
Y-18401D01*
X347031Y-17401D01*
X345031D01*
X344032Y-18401D01*
Y-20400D01*
X345031Y-21400D01*
X350030Y-17401D02*
Y-20400D01*
X351029Y-21400D01*
X354029D01*
Y-17401D01*
X357028Y-16402D02*
Y-17401D01*
X356028D01*
X358027D01*
X357028D01*
Y-20400D01*
X358027Y-21400D01*
X367024D02*
Y-15402D01*
X370023D01*
X371023Y-16402D01*
Y-18401D01*
X370023Y-19401D01*
X367024D01*
X374022Y-17401D02*
X376021D01*
X377021Y-18401D01*
Y-21400D01*
X374022D01*
X373022Y-20400D01*
X374022Y-19401D01*
X377021D01*
X380020Y-16402D02*
Y-17401D01*
X379020D01*
X381020D01*
X380020D01*
Y-20400D01*
X381020Y-21400D01*
X384019Y-15402D02*
Y-21400D01*
Y-18401D01*
X385018Y-17401D01*
X387018D01*
X388018Y-18401D01*
Y-21400D01*
X396015Y-15402D02*
Y-21400D01*
X400014D01*
X405012D02*
X403013D01*
X402013Y-20400D01*
Y-18401D01*
X403013Y-17401D01*
X405012D01*
X406012Y-18401D01*
Y-19401D01*
X402013D01*
X408011Y-21400D02*
Y-17401D01*
X411010D01*
X412010Y-18401D01*
Y-21400D01*
X416009Y-23399D02*
X417008D01*
X418008Y-22400D01*
Y-17401D01*
X415009D01*
X414009Y-18401D01*
Y-20400D01*
X415009Y-21400D01*
X418008D01*
X421007Y-16402D02*
Y-17401D01*
X420007D01*
X422007D01*
X421007D01*
Y-20400D01*
X422007Y-21400D01*
X425006Y-15402D02*
Y-21400D01*
Y-18401D01*
X426005Y-17401D01*
X428005D01*
X429004Y-18401D01*
Y-21400D01*
X437002Y-18401D02*
X441000D01*
X439001Y-16402D02*
Y-20400D01*
X448998Y-15402D02*
X452996D01*
X450997D01*
Y-21400D01*
X455996D02*
X457995D01*
X458995Y-20400D01*
Y-18401D01*
X457995Y-17401D01*
X455996D01*
X454996Y-18401D01*
Y-20400D01*
X455996Y-21400D01*
X461994D02*
X463993D01*
X464993Y-20400D01*
Y-18401D01*
X463993Y-17401D01*
X461994D01*
X460994Y-18401D01*
Y-20400D01*
X461994Y-21400D01*
X466992D02*
X468991D01*
X467992D01*
Y-15402D01*
X466992D01*
X481987Y-16402D02*
X480987Y-15402D01*
X478988D01*
X477988Y-16402D01*
Y-17401D01*
X478988Y-18401D01*
X480987D01*
X481987Y-19401D01*
Y-20400D01*
X480987Y-21400D01*
X478988D01*
X477988Y-20400D01*
X483987Y-21400D02*
X485986D01*
X484986D01*
Y-17401D01*
X483987D01*
X488985D02*
X492984D01*
X488985Y-21400D01*
X492984D01*
X497982D02*
X495983D01*
X494983Y-20400D01*
Y-18401D01*
X495983Y-17401D01*
X497982D01*
X498982Y-18401D01*
Y-19401D01*
X494983D01*
X506979D02*
X510978D01*
X506979Y-17401D02*
X510978D01*
X522974Y-16402D02*
X521974Y-15402D01*
X519975D01*
X518975Y-16402D01*
Y-17401D01*
X519975Y-18401D01*
X521974D01*
X522974Y-19401D01*
Y-20400D01*
X521974Y-21400D01*
X519975D01*
X518975Y-20400D01*
X524973Y-21400D02*
X526973D01*
X525973D01*
Y-15402D01*
X524973D01*
X530971Y-21400D02*
X532971D01*
X533970Y-20400D01*
Y-18401D01*
X532971Y-17401D01*
X530971D01*
X529972Y-18401D01*
Y-20400D01*
X530971Y-21400D01*
X536969Y-16402D02*
Y-17401D01*
X535970D01*
X537969D01*
X536969D01*
Y-20400D01*
X537969Y-21400D01*
X546966D02*
X548965D01*
X547966D01*
Y-15402D01*
X546966D01*
X554963Y-21400D02*
X552964D01*
X551965Y-20400D01*
Y-18401D01*
X552964Y-17401D01*
X554963D01*
X555963Y-18401D01*
Y-19401D01*
X551965D01*
X557963Y-21400D02*
Y-17401D01*
X560962D01*
X561961Y-18401D01*
Y-21400D01*
X565960Y-23399D02*
X566960D01*
X567959Y-22400D01*
Y-17401D01*
X564960D01*
X563961Y-18401D01*
Y-20400D01*
X564960Y-21400D01*
X567959D01*
X570958Y-16402D02*
Y-17401D01*
X569959D01*
X571958D01*
X570958D01*
Y-20400D01*
X571958Y-21400D01*
X574957Y-15402D02*
Y-21400D01*
Y-18401D01*
X575957Y-17401D01*
X577956D01*
X578956Y-18401D01*
Y-21400D01*
X587953Y-17401D02*
X589952D01*
X590952Y-18401D01*
Y-21400D01*
X587953D01*
X586953Y-20400D01*
X587953Y-19401D01*
X590952D01*
X592951Y-21400D02*
X595950D01*
X596950Y-20400D01*
X595950Y-19401D01*
X593951D01*
X592951Y-18401D01*
X593951Y-17401D01*
X596950D01*
X608946Y-15402D02*
Y-21400D01*
X605947D01*
X604947Y-20400D01*
Y-18401D01*
X605947Y-17401D01*
X608946D01*
X613944Y-21400D02*
X611945D01*
X610945Y-20400D01*
Y-18401D01*
X611945Y-17401D01*
X613944D01*
X614944Y-18401D01*
Y-19401D01*
X610945D01*
X617943Y-21400D02*
Y-16402D01*
Y-18401D01*
X616944D01*
X618943D01*
X617943D01*
Y-16402D01*
X618943Y-15402D01*
X621942Y-21400D02*
X623941D01*
X622941D01*
Y-17401D01*
X621942D01*
X626940Y-21400D02*
Y-17401D01*
X629939D01*
X630939Y-18401D01*
Y-21400D01*
X635937D02*
X633938D01*
X632938Y-20400D01*
Y-18401D01*
X633938Y-17401D01*
X635937D01*
X636937Y-18401D01*
Y-19401D01*
X632938D01*
X642935Y-15402D02*
Y-21400D01*
X639936D01*
X638936Y-20400D01*
Y-18401D01*
X639936Y-17401D01*
X642935D01*
X650932Y-21400D02*
X652932D01*
X651932D01*
Y-17401D01*
X650932D01*
X655931Y-21400D02*
Y-17401D01*
X658930D01*
X659930Y-18401D01*
Y-21400D01*
X668927Y-16402D02*
Y-17401D01*
X667927D01*
X669926D01*
X668927D01*
Y-20400D01*
X669926Y-21400D01*
X672925Y-15402D02*
Y-21400D01*
Y-18401D01*
X673925Y-17401D01*
X675924D01*
X676924Y-18401D01*
Y-21400D01*
X681922D02*
X679923D01*
X678923Y-20400D01*
Y-18401D01*
X679923Y-17401D01*
X681922D01*
X682922Y-18401D01*
Y-19401D01*
X678923D01*
X690919Y-21400D02*
Y-15402D01*
X693919D01*
X694918Y-16402D01*
Y-18401D01*
X693919Y-19401D01*
X690919D01*
X700916Y-16402D02*
X699917Y-15402D01*
X697917D01*
X696918Y-16402D01*
Y-20400D01*
X697917Y-21400D01*
X699917D01*
X700916Y-20400D01*
X702916Y-15402D02*
Y-21400D01*
X705915D01*
X706914Y-20400D01*
Y-19401D01*
X705915Y-18401D01*
X702916D01*
X705915D01*
X706914Y-17401D01*
Y-16402D01*
X705915Y-15402D01*
X702916D01*
X714912Y-21400D02*
X716911D01*
X715911D01*
Y-15402D01*
X714912D01*
X720910Y-17401D02*
X722909D01*
X723909Y-18401D01*
Y-21400D01*
X720910D01*
X719910Y-20400D01*
X720910Y-19401D01*
X723909D01*
X725908Y-17401D02*
Y-20400D01*
X726908Y-21400D01*
X729907D01*
Y-22400D01*
X728907Y-23399D01*
X727908D01*
X729907Y-21400D02*
Y-17401D01*
X732906Y-21400D02*
X734905D01*
X735905Y-20400D01*
Y-18401D01*
X734905Y-17401D01*
X732906D01*
X731906Y-18401D01*
Y-20400D01*
X732906Y-21400D01*
X737904Y-17401D02*
Y-20400D01*
X738904Y-21400D01*
X741903D01*
Y-17401D01*
X744902Y-16402D02*
Y-17401D01*
X743902D01*
X745902D01*
X744902D01*
Y-20400D01*
X745902Y-21400D01*
D14*
X122699Y-4402D02*
X121699Y-3402D01*
X119700D01*
X118700Y-4402D01*
Y-5401D01*
X119700Y-6401D01*
X121699D01*
X122699Y-7401D01*
Y-8400D01*
X121699Y-9400D01*
X119700D01*
X118700Y-8400D01*
X124698Y-9400D02*
X126697D01*
X125698D01*
Y-3402D01*
X124698D01*
X130696Y-9400D02*
X132695D01*
X133695Y-8400D01*
Y-6401D01*
X132695Y-5401D01*
X130696D01*
X129696Y-6401D01*
Y-8400D01*
X130696Y-9400D01*
X136694Y-4402D02*
Y-5401D01*
X135695D01*
X137694D01*
X136694D01*
Y-8400D01*
X137694Y-9400D01*
X150690Y-3402D02*
Y-9400D01*
X147691D01*
X146691Y-8400D01*
Y-6401D01*
X147691Y-5401D01*
X150690D01*
X155688Y-9400D02*
X153689D01*
X152689Y-8400D01*
Y-6401D01*
X153689Y-5401D01*
X155688D01*
X156688Y-6401D01*
Y-7401D01*
X152689D01*
X159687Y-9400D02*
Y-4402D01*
Y-6401D01*
X158687D01*
X160686D01*
X159687D01*
Y-4402D01*
X160686Y-3402D01*
X163685Y-9400D02*
X165685D01*
X164685D01*
Y-5401D01*
X163685D01*
X168684Y-9400D02*
Y-5401D01*
X171683D01*
X172682Y-6401D01*
Y-9400D01*
X174682D02*
X176681D01*
X175682D01*
Y-5401D01*
X174682D01*
X180680Y-4402D02*
Y-5401D01*
X179680D01*
X181680D01*
X180680D01*
Y-8400D01*
X181680Y-9400D01*
X184679D02*
X186678D01*
X185678D01*
Y-5401D01*
X184679D01*
X190677Y-9400D02*
X192676D01*
X193676Y-8400D01*
Y-6401D01*
X192676Y-5401D01*
X190677D01*
X189677Y-6401D01*
Y-8400D01*
X190677Y-9400D01*
X195675D02*
Y-5401D01*
X198674D01*
X199674Y-6401D01*
Y-9400D01*
X201673D02*
X204672D01*
X205672Y-8400D01*
X204672Y-7401D01*
X202673D01*
X201673Y-6401D01*
X202673Y-5401D01*
X205672D01*
X213669D02*
X214669D01*
Y-6401D01*
X213669D01*
Y-5401D01*
Y-8400D02*
X214669D01*
Y-9400D01*
X213669D01*
Y-8400D01*
X226269Y-9400D02*
Y-3402D01*
X229268D01*
X230268Y-4402D01*
Y-6401D01*
X229268Y-7401D01*
X226269D01*
X228268D02*
X230268Y-9400D01*
X233267D02*
X235266D01*
X236266Y-8400D01*
Y-6401D01*
X235266Y-5401D01*
X233267D01*
X232267Y-6401D01*
Y-8400D01*
X233267Y-9400D01*
X238265Y-5401D02*
Y-8400D01*
X239265Y-9400D01*
X242264D01*
Y-5401D01*
X245263Y-4402D02*
Y-5401D01*
X244263D01*
X246263D01*
X245263D01*
Y-8400D01*
X246263Y-9400D01*
X255260D02*
Y-3402D01*
X258259D01*
X259258Y-4402D01*
Y-6401D01*
X258259Y-7401D01*
X255260D01*
X262257Y-5401D02*
X264257D01*
X265256Y-6401D01*
Y-9400D01*
X262257D01*
X261258Y-8400D01*
X262257Y-7401D01*
X265256D01*
X268255Y-4402D02*
Y-5401D01*
X267256D01*
X269255D01*
X268255D01*
Y-8400D01*
X269255Y-9400D01*
X272254Y-3402D02*
Y-9400D01*
Y-6401D01*
X273254Y-5401D01*
X275253D01*
X276253Y-6401D01*
Y-9400D01*
X284250Y-3402D02*
Y-9400D01*
X288249D01*
X293247D02*
X291248D01*
X290248Y-8400D01*
Y-6401D01*
X291248Y-5401D01*
X293247D01*
X294247Y-6401D01*
Y-7401D01*
X290248D01*
X296246Y-9400D02*
Y-5401D01*
X299245D01*
X300245Y-6401D01*
Y-9400D01*
X304244Y-11399D02*
X305243D01*
X306243Y-10400D01*
Y-5401D01*
X303244D01*
X302244Y-6401D01*
Y-8400D01*
X303244Y-9400D01*
X306243D01*
X309242Y-4402D02*
Y-5401D01*
X308242D01*
X310242D01*
X309242D01*
Y-8400D01*
X310242Y-9400D01*
X313241Y-3402D02*
Y-9400D01*
Y-6401D01*
X314241Y-5401D01*
X316240D01*
X317239Y-6401D01*
Y-9400D01*
X226269Y-21400D02*
Y-15402D01*
X229268D01*
X230268Y-16402D01*
Y-18401D01*
X229268Y-19401D01*
X226269D01*
X232267Y-15402D02*
Y-21400D01*
Y-18401D01*
X233267Y-17401D01*
X235266D01*
X236266Y-18401D01*
Y-21400D01*
X238265Y-17401D02*
Y-20400D01*
X239265Y-21400D01*
X242264D01*
Y-22400D01*
X241264Y-23399D01*
X240264D01*
X242264Y-21400D02*
Y-17401D01*
X244263Y-21400D02*
X247262D01*
X248262Y-20400D01*
X247262Y-19401D01*
X245263D01*
X244263Y-18401D01*
X245263Y-17401D01*
X248262D01*
X250261Y-21400D02*
X252260D01*
X251261D01*
Y-17401D01*
X250261D01*
X259258D02*
X256259D01*
X255260Y-18401D01*
Y-20400D01*
X256259Y-21400D01*
X259258D01*
X262257Y-17401D02*
X264257D01*
X265256Y-18401D01*
Y-21400D01*
X262257D01*
X261258Y-20400D01*
X262257Y-19401D01*
X265256D01*
X267256Y-21400D02*
X269255D01*
X268255D01*
Y-15402D01*
X267256D01*
X278252D02*
Y-21400D01*
X282251D01*
X287249D02*
X285250D01*
X284250Y-20400D01*
Y-18401D01*
X285250Y-17401D01*
X287249D01*
X288249Y-18401D01*
Y-19401D01*
X284250D01*
X290248Y-21400D02*
Y-17401D01*
X293247D01*
X294247Y-18401D01*
Y-21400D01*
X298246Y-23399D02*
X299245D01*
X300245Y-22400D01*
Y-17401D01*
X297246D01*
X296246Y-18401D01*
Y-20400D01*
X297246Y-21400D01*
X300245D01*
X303244Y-16402D02*
Y-17401D01*
X302244D01*
X304244D01*
X303244D01*
Y-20400D01*
X304244Y-21400D01*
X307243Y-15402D02*
Y-21400D01*
Y-18401D01*
X308242Y-17401D01*
X310242D01*
X311241Y-18401D01*
Y-21400D01*
M02*
