G04 Layer_Physical_Order=1*
G04 Layer_Color=255*
%FSLAX25Y25*%
%MOIN*%
G70*
G01*
G75*
%ADD10R,0.03000X0.03000*%
%ADD11R,0.03000X0.03000*%
%ADD12R,0.05906X0.04500*%
%ADD13R,0.08268X0.03543*%
%ADD14R,0.08268X0.12598*%
%ADD15R,0.05000X0.05000*%
%ADD16R,0.01500X0.05400*%
%ADD17R,0.06299X0.03937*%
%ADD18R,0.03937X0.03543*%
%ADD19R,0.03937X0.03937*%
%ADD20R,0.03268X0.02480*%
%ADD21R,0.08661X0.07874*%
%ADD22C,0.01500*%
%ADD23C,0.02000*%
%ADD24C,0.00700*%
%ADD25C,0.03000*%
%ADD26C,0.01000*%
%ADD27C,0.01181*%
%ADD28R,0.28600X0.11200*%
%ADD29R,0.04300X0.04100*%
%ADD30R,0.06300X0.21200*%
%ADD31R,0.17100X0.03400*%
%ADD32R,0.31100X0.11800*%
%ADD33R,0.36600X0.03900*%
%ADD34C,0.06900*%
%ADD35R,0.06900X0.06900*%
%ADD36C,0.11500*%
%ADD37C,0.06900*%
%ADD38R,0.06900X0.06900*%
%ADD39C,0.04724*%
%ADD40O,0.05906X0.07480*%
%ADD41C,0.02362*%
G36*
X62400Y85600D02*
X63000Y85000D01*
X63000Y64300D01*
X54200Y55500D01*
X53000D01*
Y55300D01*
X50200Y52500D01*
X43400D01*
X40400Y55500D01*
Y75300D01*
X47000D01*
X48500Y76800D01*
Y81900D01*
X49100Y82500D01*
X54400Y82500D01*
X57500Y85600D01*
X62400Y85600D01*
D02*
G37*
G36*
X-1142Y88023D02*
X-78Y87093D01*
X235Y86866D01*
X529Y86680D01*
X803Y86536D01*
X1056Y86433D01*
X1289Y86371D01*
X1502Y86350D01*
Y85650D01*
X1289Y85629D01*
X1056Y85567D01*
X803Y85464D01*
X529Y85320D01*
X235Y85134D01*
X-78Y84907D01*
X-767Y84328D01*
X-1142Y83977D01*
X-1536Y83585D01*
Y88415D01*
X-1142Y88023D01*
D02*
G37*
G36*
Y78023D02*
X-78Y77093D01*
X235Y76866D01*
X529Y76680D01*
X803Y76536D01*
X1056Y76433D01*
X1289Y76371D01*
X1502Y76350D01*
Y75650D01*
X1289Y75629D01*
X1056Y75567D01*
X803Y75464D01*
X529Y75320D01*
X235Y75134D01*
X-78Y74907D01*
X-767Y74328D01*
X-1142Y73977D01*
X-1536Y73585D01*
Y78415D01*
X-1142Y78023D01*
D02*
G37*
G36*
X47400Y81800D02*
Y77500D01*
X40100Y76700D01*
X30800D01*
X29800Y76400D01*
X28300D01*
X27255Y77500D01*
X24700Y77500D01*
X24000Y78200D01*
X24000Y81786D01*
X24714Y82500D01*
X46700D01*
X47400Y81800D01*
D02*
G37*
G36*
X-1142Y98023D02*
X-78Y97093D01*
X235Y96866D01*
X529Y96680D01*
X803Y96536D01*
X1056Y96433D01*
X1289Y96371D01*
X1502Y96350D01*
Y95650D01*
X1289Y95629D01*
X1056Y95567D01*
X803Y95464D01*
X529Y95320D01*
X235Y95134D01*
X-78Y94907D01*
X-767Y94328D01*
X-1142Y93977D01*
X-1536Y93585D01*
Y98415D01*
X-1142Y98023D01*
D02*
G37*
G36*
X80946Y104488D02*
X81159Y104425D01*
X81386Y104333D01*
X81629Y104210D01*
X81885Y104054D01*
X82146Y103869D01*
X82732Y103373D01*
X82943Y103167D01*
X83040Y103040D01*
X83907Y102375D01*
X84917Y101957D01*
X86000Y101814D01*
X87083Y101957D01*
X88093Y102375D01*
X88960Y103040D01*
X89625Y103907D01*
X89684Y104050D01*
X90184Y103951D01*
Y100450D01*
X86500D01*
Y96000D01*
X85500D01*
Y100450D01*
X81550D01*
Y99448D01*
X81050Y99241D01*
X79500Y100791D01*
Y103300D01*
X79847Y103656D01*
X80712Y104522D01*
X80759D01*
X80946Y104488D01*
D02*
G37*
G36*
X72900Y91000D02*
X72800Y90900D01*
X73529Y90171D01*
X73529Y85000D01*
X66571Y85000D01*
Y94800D01*
X72900D01*
Y91000D01*
D02*
G37*
G36*
X78660Y88624D02*
X78822Y88497D01*
Y78110D01*
X78381Y77874D01*
X78234Y77972D01*
X77500Y78118D01*
X76766Y77972D01*
X76171Y77574D01*
X76023Y77605D01*
X75671Y77748D01*
Y88431D01*
X76171Y88677D01*
X76537Y88432D01*
X77200Y88300D01*
X77863Y88432D01*
X78322Y88738D01*
X78660Y88624D01*
D02*
G37*
G36*
X7069Y76548D02*
Y71130D01*
X6572Y70661D01*
X6501Y70663D01*
X6126Y71226D01*
X6000Y71310D01*
Y70514D01*
X5100D01*
X4827Y70459D01*
X4595Y70305D01*
X4441Y70073D01*
X4386Y69800D01*
Y58800D01*
X4441Y58527D01*
X4459Y58500D01*
X4206Y58000D01*
X3590D01*
X3604Y57978D01*
X3337Y57478D01*
X-120D01*
X-337Y58000D01*
X-375Y58093D01*
X-1040Y58960D01*
X-1907Y59625D01*
X-2917Y60043D01*
X-4000Y60186D01*
X-5083Y60043D01*
X-6093Y59625D01*
X-6960Y58960D01*
X-7625Y58093D01*
X-7684Y57950D01*
X-7937Y58000D01*
X-8184D01*
Y58049D01*
Y61550D01*
X-4500D01*
Y66000D01*
Y70450D01*
X-8184D01*
Y72700D01*
Y73951D01*
X-7684Y74050D01*
X-7625Y73907D01*
X-6960Y73040D01*
X-6516Y72700D01*
X-6093Y72375D01*
X-5083Y71957D01*
X-4000Y71814D01*
X-2917Y71957D01*
X-1907Y72375D01*
X-1040Y73040D01*
X-938Y73173D01*
X-646Y73464D01*
X-293Y73794D01*
X361Y74344D01*
X636Y74542D01*
X887Y74702D01*
X1105Y74817D01*
X1283Y74889D01*
X1416Y74925D01*
X1466Y74929D01*
X4300D01*
X4710Y75011D01*
X5057Y75243D01*
X6569Y76755D01*
X7069Y76548D01*
D02*
G37*
G36*
X-1168Y38051D02*
X-476Y37438D01*
X-152Y37189D01*
X157Y36979D01*
X452Y36806D01*
X732Y36672D01*
X997Y36577D01*
X1248Y36519D01*
X1484Y36500D01*
Y35500D01*
X1248Y35481D01*
X997Y35423D01*
X732Y35328D01*
X452Y35194D01*
X157Y35021D01*
X-152Y34811D01*
X-476Y34562D01*
X-1168Y33949D01*
X-1536Y33585D01*
Y38415D01*
X-1168Y38051D01*
D02*
G37*
G36*
X73529Y84286D02*
X73529Y84286D01*
Y72437D01*
X69096Y68003D01*
X68864Y67656D01*
X68783Y67247D01*
Y55997D01*
X66486Y53700D01*
X65000D01*
Y49300D01*
X69400D01*
Y53586D01*
X70610Y54796D01*
X70842Y55143D01*
X70924Y55553D01*
Y66803D01*
X75357Y71236D01*
X75357Y71236D01*
X75522Y71483D01*
X76022Y71390D01*
Y19400D01*
X76134Y18834D01*
X76455Y18355D01*
X79855Y14955D01*
X80334Y14634D01*
X80900Y14522D01*
X81159D01*
X81326Y14500D01*
X81515Y14457D01*
X81688Y14398D01*
X81850Y14324D01*
X82002Y14233D01*
X82147Y14125D01*
X82285Y13997D01*
X82417Y13848D01*
X82563Y13652D01*
X82591Y13625D01*
X82625Y13581D01*
X82632Y13570D01*
X82635Y13569D01*
X83040Y13040D01*
X83907Y12375D01*
X84917Y11957D01*
X86000Y11814D01*
X87083Y11957D01*
X88093Y12375D01*
X88960Y13040D01*
X89625Y13907D01*
X89684Y14050D01*
X90184Y13951D01*
Y0D01*
X90188Y-17D01*
X90032Y-1598D01*
X89566Y-3134D01*
X88809Y-4550D01*
X87791Y-5791D01*
X86550Y-6809D01*
X85134Y-7566D01*
X83598Y-8032D01*
X82017Y-8188D01*
X82000Y-8184D01*
X69453D01*
Y-6516D01*
X70453D01*
X70956Y-6416D01*
X71383Y-6130D01*
X71668Y-5703D01*
X71769Y-5200D01*
X71668Y-4696D01*
X71383Y-4270D01*
X70956Y-3984D01*
X70453Y-3884D01*
X69453D01*
Y-1919D01*
X66816D01*
Y-1017D01*
X66716Y-513D01*
X66430Y-86D01*
X66004Y199D01*
X65500Y299D01*
X64996Y199D01*
X64570Y-86D01*
X64284Y-513D01*
X64184Y-1017D01*
Y-1919D01*
X61547D01*
Y-3853D01*
X60547D01*
X60044Y-3954D01*
X59617Y-4239D01*
X59332Y-4666D01*
X59231Y-5169D01*
X59332Y-5673D01*
X59617Y-6100D01*
X60044Y-6385D01*
X60547Y-6485D01*
X61547D01*
Y-8184D01*
X56014D01*
Y3000D01*
X55959Y3273D01*
X55805Y3505D01*
X55573Y3659D01*
X55300Y3714D01*
X26700D01*
X26427Y3659D01*
X26195Y3505D01*
X26041Y3273D01*
X25986Y3000D01*
Y-8184D01*
X20453D01*
Y-6485D01*
X21453D01*
X21956Y-6385D01*
X22383Y-6100D01*
X22669Y-5673D01*
X22769Y-5169D01*
X22669Y-4666D01*
X22383Y-4239D01*
X21956Y-3954D01*
X21453Y-3853D01*
X20453D01*
Y-1919D01*
X17816D01*
Y-1017D01*
X17716Y-513D01*
X17430Y-86D01*
X17004Y199D01*
X16500Y299D01*
X15996Y199D01*
X15570Y-86D01*
X15284Y-513D01*
X15184Y-1017D01*
Y-1919D01*
X12547D01*
Y-3823D01*
X11547D01*
X11044Y-3923D01*
X10617Y-4208D01*
X10332Y-4635D01*
X10231Y-5139D01*
X10332Y-5642D01*
X10617Y-6069D01*
X11044Y-6354D01*
X11547Y-6454D01*
X12547D01*
Y-8184D01*
X0D01*
X-17Y-8188D01*
X-1598Y-8032D01*
X-3134Y-7566D01*
X-4550Y-6809D01*
X-5791Y-5791D01*
X-6809Y-4550D01*
X-7566Y-3134D01*
X-8032Y-1598D01*
X-8188Y-17D01*
X-8184Y0D01*
Y13951D01*
X-7684Y14050D01*
X-7625Y13907D01*
X-6960Y13040D01*
X-6093Y12375D01*
X-5083Y11957D01*
X-4000Y11814D01*
X-2917Y11957D01*
X-1907Y12375D01*
X-1040Y13040D01*
X-722Y13454D01*
X-706Y13466D01*
X-698Y13477D01*
X-687Y13485D01*
X-642Y13533D01*
X-621Y13548D01*
X-551Y13584D01*
X-431Y13627D01*
X-264Y13671D01*
X-71Y13707D01*
X532Y13757D01*
X1190D01*
X2048Y13928D01*
X2776Y14414D01*
X11532Y23170D01*
X12634D01*
Y27050D01*
X11356D01*
X11158Y27183D01*
X10300Y27353D01*
X9442Y27183D01*
X9244Y27050D01*
X7966D01*
Y25949D01*
X271Y18253D01*
X190Y18259D01*
X-55Y18290D01*
X-264Y18329D01*
X-431Y18373D01*
X-551Y18416D01*
X-621Y18451D01*
X-642Y18467D01*
X-687Y18515D01*
X-698Y18523D01*
X-706Y18534D01*
X-722Y18546D01*
X-1040Y18960D01*
X-1907Y19625D01*
X-2917Y20043D01*
X-4000Y20186D01*
X-5083Y20043D01*
X-6093Y19625D01*
X-6960Y18960D01*
X-7625Y18093D01*
X-7684Y17950D01*
X-8184Y18049D01*
Y21550D01*
X-4500D01*
Y26000D01*
Y30450D01*
X-8184D01*
Y33951D01*
X-7684Y34050D01*
X-7625Y33907D01*
X-6960Y33040D01*
X-6093Y32375D01*
X-5083Y31957D01*
X-4000Y31814D01*
X-2917Y31957D01*
X-1907Y32375D01*
X-1040Y33040D01*
X-940Y33171D01*
X-680Y33427D01*
X-21Y34011D01*
X267Y34232D01*
X539Y34418D01*
X787Y34563D01*
X1008Y34668D01*
X1199Y34737D01*
X1357Y34774D01*
X1392Y34776D01*
X4800D01*
X5129Y34842D01*
X5629Y34555D01*
Y32600D01*
X5711Y32190D01*
X5943Y31843D01*
X7843Y29943D01*
X7843Y29943D01*
X8190Y29711D01*
X8600Y29629D01*
X8600Y29629D01*
X11257D01*
X14529Y26357D01*
Y22800D01*
X14611Y22390D01*
X14843Y22043D01*
X15429Y21456D01*
Y14119D01*
X12847D01*
Y8219D01*
X20153D01*
Y14119D01*
X17571D01*
Y21331D01*
X18071Y21539D01*
X19355Y20255D01*
X19834Y19934D01*
X20400Y19822D01*
X26288D01*
X34422Y11688D01*
Y9000D01*
X34450Y8857D01*
Y5600D01*
X44350D01*
Y5300D01*
X45600D01*
Y9000D01*
X46100D01*
Y9500D01*
X47850D01*
Y12700D01*
X47578D01*
Y14000D01*
X47466Y14566D01*
X47145Y15045D01*
X46666Y15366D01*
X46100Y15478D01*
X45534Y15366D01*
X45055Y15045D01*
X44734Y14566D01*
X44622Y14000D01*
Y12700D01*
X44350D01*
Y12400D01*
X37358D01*
X37266Y12866D01*
X36945Y13345D01*
X28378Y21912D01*
Y26141D01*
X29160Y26740D01*
X29825Y27607D01*
X30243Y28617D01*
X30386Y29700D01*
X30243Y30783D01*
X29825Y31793D01*
X29160Y32660D01*
X28293Y33325D01*
X27283Y33743D01*
X26200Y33886D01*
X25117Y33743D01*
X24107Y33325D01*
X23240Y32660D01*
X22575Y31793D01*
X22157Y30783D01*
X22014Y29700D01*
X22157Y28617D01*
X22575Y27607D01*
X23240Y26740D01*
X24107Y26075D01*
X25117Y25657D01*
X25422Y25617D01*
Y22778D01*
X21012D01*
X18878Y24912D01*
Y27800D01*
X18766Y28366D01*
X18445Y28845D01*
X12634Y34657D01*
Y35830D01*
X7966D01*
X7771Y36249D01*
Y38557D01*
X8493Y39279D01*
X11542D01*
X11952Y39361D01*
X12299Y39593D01*
X14393Y41687D01*
X19383D01*
X19793Y41769D01*
X20027Y41925D01*
X20419Y41787D01*
X20527Y41704D01*
Y40968D01*
X19082D01*
Y40295D01*
X18582Y40002D01*
X18000Y40118D01*
X17266Y39972D01*
X16644Y39556D01*
X16228Y38934D01*
X16082Y38200D01*
X16228Y37466D01*
X16644Y36844D01*
X16648Y36841D01*
X16649Y36840D01*
X16743Y36673D01*
X16815Y36309D01*
X16784Y36238D01*
X16741Y36173D01*
X16728Y36112D01*
X16703Y36055D01*
X16702Y35977D01*
X16686Y35900D01*
Y33091D01*
X16741Y32818D01*
X16895Y32586D01*
X18386Y31095D01*
X18618Y30941D01*
X18891Y30886D01*
X20000D01*
X20273Y30941D01*
X20505Y31095D01*
X21005Y31595D01*
X21159Y31827D01*
X21214Y32100D01*
Y33782D01*
X21159Y34055D01*
X21005Y34287D01*
X20122Y35170D01*
X20313Y35631D01*
X24419D01*
Y40968D01*
X22974D01*
Y43300D01*
X24325D01*
Y47700D01*
X20471D01*
Y49300D01*
X24325D01*
Y53622D01*
X25200D01*
Y49300D01*
X29600D01*
Y53622D01*
X41269D01*
X42895Y51995D01*
X43127Y51841D01*
X43400Y51786D01*
X44951D01*
X45000Y51776D01*
X45049Y51786D01*
X50200D01*
X50473Y51841D01*
X50705Y51995D01*
X51812Y53102D01*
X52290Y52957D01*
X52328Y52766D01*
X52744Y52144D01*
X53366Y51728D01*
X54100Y51582D01*
X54834Y51728D01*
X55456Y52144D01*
X55692Y52497D01*
X56192Y52345D01*
Y49247D01*
X55906Y49056D01*
X55491Y48434D01*
X55345Y47700D01*
X55491Y46966D01*
X55906Y46344D01*
X56529Y45928D01*
X57263Y45782D01*
X57997Y45928D01*
X58619Y46344D01*
X59035Y46966D01*
X59181Y47700D01*
X59035Y48434D01*
X58619Y49056D01*
X58333Y49247D01*
Y53919D01*
X66278Y61864D01*
X66510Y62211D01*
X66591Y62621D01*
Y83933D01*
X66945Y84286D01*
X73529Y84286D01*
D02*
G37*
G36*
X-1117Y17929D02*
X-991Y17839D01*
X-833Y17760D01*
X-643Y17691D01*
X-421Y17632D01*
X-166Y17585D01*
X121Y17548D01*
X793Y17505D01*
X1177Y17500D01*
Y14500D01*
X793Y14495D01*
X-166Y14415D01*
X-421Y14368D01*
X-643Y14309D01*
X-833Y14240D01*
X-991Y14161D01*
X-1117Y14071D01*
X-1210Y13970D01*
Y18030D01*
X-1117Y17929D01*
D02*
G37*
G36*
X83137Y14075D02*
X82972Y14298D01*
X82795Y14498D01*
X82604Y14674D01*
X82400Y14827D01*
X82183Y14956D01*
X81952Y15062D01*
X81709Y15144D01*
X81453Y15203D01*
X81183Y15238D01*
X80900Y15250D01*
Y16750D01*
X81183Y16762D01*
X81453Y16797D01*
X81709Y16856D01*
X81952Y16938D01*
X82183Y17044D01*
X82400Y17173D01*
X82604Y17326D01*
X82795Y17502D01*
X82972Y17702D01*
X83137Y17925D01*
Y14075D01*
D02*
G37*
G36*
X27075Y62000D02*
X28577Y58777D01*
X26800Y57000D01*
X19800Y57000D01*
X19100Y57700D01*
Y61300D01*
X19800Y62000D01*
X27075Y62000D01*
D02*
G37*
G36*
X29246Y64454D02*
X29300Y64400D01*
X21200Y64400D01*
X17500Y60700D01*
X17500Y58000D01*
X5900D01*
X5100Y58800D01*
Y69800D01*
X16644D01*
X17931Y71086D01*
X29246D01*
Y64454D01*
D02*
G37*
G36*
X81249Y58661D02*
X81357Y58504D01*
X81463Y58310D01*
X81559Y58084D01*
X81643Y57825D01*
X81714Y57534D01*
X81768Y57219D01*
X81832Y56453D01*
X81835Y56158D01*
X81814Y56000D01*
X81957Y54917D01*
X82375Y53907D01*
X83040Y53040D01*
X83907Y52375D01*
X84917Y51957D01*
X86000Y51814D01*
X87083Y51957D01*
X88093Y52375D01*
X88960Y53040D01*
X89625Y53907D01*
X89684Y54050D01*
X90184Y53951D01*
Y48049D01*
X89684Y47950D01*
X89625Y48093D01*
X88960Y48960D01*
X88093Y49625D01*
X87083Y50043D01*
X86000Y50186D01*
X84917Y50043D01*
X83907Y49625D01*
X83040Y48960D01*
X82375Y48093D01*
X81957Y47083D01*
X81814Y46000D01*
X81957Y44917D01*
X82375Y43907D01*
X83040Y43040D01*
X83907Y42375D01*
X84917Y41957D01*
X86000Y41814D01*
X87083Y41957D01*
X88093Y42375D01*
X88960Y43040D01*
X89625Y43907D01*
X89684Y44050D01*
X90184Y43951D01*
Y38049D01*
X89684Y37950D01*
X89625Y38093D01*
X88960Y38960D01*
X88093Y39625D01*
X87083Y40043D01*
X86000Y40186D01*
X84917Y40043D01*
X83907Y39625D01*
X83040Y38960D01*
X82375Y38093D01*
X81957Y37083D01*
X81814Y36000D01*
X81957Y34917D01*
X82375Y33907D01*
X83040Y33040D01*
X83907Y32375D01*
X84917Y31957D01*
X86000Y31814D01*
X87083Y31957D01*
X88093Y32375D01*
X88960Y33040D01*
X89625Y33907D01*
X89684Y34050D01*
X90184Y33951D01*
Y30450D01*
X86500D01*
Y26000D01*
Y21550D01*
X90184D01*
Y18049D01*
X89684Y17950D01*
X89625Y18093D01*
X88960Y18960D01*
X88093Y19625D01*
X87083Y20043D01*
X86000Y20186D01*
X84917Y20043D01*
X83907Y19625D01*
X83040Y18960D01*
X82635Y18431D01*
X82632Y18430D01*
X82625Y18419D01*
X82591Y18375D01*
X82563Y18349D01*
X82417Y18152D01*
X82285Y18002D01*
X82147Y17875D01*
X82002Y17767D01*
X81850Y17676D01*
X81689Y17602D01*
X81515Y17543D01*
X81460Y17531D01*
X78978Y20012D01*
Y60224D01*
X79478Y60431D01*
X81249Y58661D01*
D02*
G37*
G36*
X82889Y60195D02*
X83120Y60035D01*
X83379Y59894D01*
X83666Y59772D01*
X83980Y59670D01*
X84322Y59587D01*
X84691Y59523D01*
X85088Y59479D01*
X85513Y59455D01*
X85966Y59450D01*
X82550Y56034D01*
X82545Y56487D01*
X82477Y57309D01*
X82413Y57678D01*
X82331Y58020D01*
X82228Y58334D01*
X82107Y58621D01*
X81965Y58880D01*
X81805Y59111D01*
X81625Y59315D01*
X82685Y60375D01*
X82889Y60195D01*
D02*
G37*
G36*
X-1142Y108023D02*
X-78Y107093D01*
X235Y106866D01*
X529Y106680D01*
X803Y106536D01*
X1056Y106433D01*
X1289Y106371D01*
X1502Y106350D01*
Y105650D01*
X1289Y105629D01*
X1056Y105567D01*
X803Y105464D01*
X529Y105320D01*
X235Y105134D01*
X-78Y104907D01*
X-767Y104328D01*
X-1142Y103977D01*
X-1536Y103585D01*
Y108415D01*
X-1142Y108023D01*
D02*
G37*
G36*
X85966Y142550D02*
X85513Y142545D01*
X84691Y142477D01*
X84322Y142413D01*
X83980Y142331D01*
X83666Y142228D01*
X83379Y142106D01*
X83120Y141965D01*
X82889Y141805D01*
X82685Y141625D01*
X81625Y142685D01*
X81805Y142889D01*
X81965Y143120D01*
X82107Y143379D01*
X82228Y143666D01*
X82331Y143980D01*
X82413Y144322D01*
X82477Y144691D01*
X82521Y145088D01*
X82545Y145513D01*
X82550Y145966D01*
X85966Y142550D01*
D02*
G37*
G36*
X-545Y145513D02*
X-477Y144691D01*
X-413Y144322D01*
X-331Y143980D01*
X-228Y143666D01*
X-106Y143379D01*
X35Y143120D01*
X195Y142889D01*
X375Y142685D01*
X-685Y141625D01*
X-889Y141805D01*
X-1120Y141965D01*
X-1379Y142106D01*
X-1666Y142228D01*
X-1980Y142331D01*
X-2322Y142413D01*
X-2691Y142477D01*
X-3088Y142521D01*
X-3513Y142545D01*
X-3965Y142550D01*
X-550Y145966D01*
X-545Y145513D01*
D02*
G37*
G36*
X85966Y132550D02*
X85513Y132545D01*
X84691Y132477D01*
X84322Y132413D01*
X83980Y132331D01*
X83666Y132228D01*
X83379Y132106D01*
X83120Y131965D01*
X82889Y131805D01*
X82685Y131625D01*
X81625Y132685D01*
X81805Y132889D01*
X81965Y133120D01*
X82107Y133379D01*
X82228Y133666D01*
X82331Y133980D01*
X82413Y134322D01*
X82477Y134691D01*
X82521Y135088D01*
X82545Y135513D01*
X82550Y135966D01*
X85966Y132550D01*
D02*
G37*
G36*
X16829Y149743D02*
Y130818D01*
X16358Y130492D01*
X16109Y130607D01*
Y134863D01*
X8410D01*
Y129526D01*
X10426D01*
X10662Y129085D01*
X10628Y129034D01*
X10482Y128300D01*
X10628Y127566D01*
X10719Y127430D01*
X10483Y126989D01*
X8410D01*
Y121652D01*
X16109D01*
Y122098D01*
X16610Y122480D01*
X17000Y122403D01*
X17734Y122548D01*
X18356Y122964D01*
X18445Y123097D01*
X38620D01*
X39089Y123190D01*
X39486Y123455D01*
X65429Y149398D01*
X65891Y149207D01*
Y145274D01*
X73590D01*
X73729Y144832D01*
Y143179D01*
X73590Y142737D01*
X65891D01*
Y141139D01*
X64869D01*
X64868Y141139D01*
X64459Y141058D01*
X64112Y140825D01*
X61543Y138257D01*
X61311Y137910D01*
X61229Y137500D01*
Y97100D01*
X61311Y96690D01*
X61543Y96343D01*
X63029Y94857D01*
Y90572D01*
X58017D01*
Y89114D01*
X57890Y89089D01*
X57543Y88857D01*
X55941Y87256D01*
X55480Y87447D01*
Y90572D01*
X50143D01*
Y86945D01*
X49268Y86071D01*
X47605D01*
Y90572D01*
X43979D01*
X42494Y92057D01*
X42147Y92289D01*
X41737Y92371D01*
X36443D01*
X22571Y106244D01*
Y109800D01*
X22489Y110210D01*
X22257Y110557D01*
X22257Y110557D01*
X18957Y113857D01*
X18610Y114089D01*
X18200Y114171D01*
X18205Y114669D01*
X18234Y114674D01*
X18856Y115090D01*
X19272Y115712D01*
X19418Y116446D01*
X19272Y117180D01*
X18856Y117803D01*
X18234Y118218D01*
X17500Y118364D01*
X16766Y118218D01*
X16610Y118114D01*
X16109Y118381D01*
Y119115D01*
X8410D01*
Y115157D01*
X7948Y114966D01*
X7071Y115843D01*
Y124600D01*
X6989Y125010D01*
X6757Y125357D01*
X6376Y125738D01*
X6567Y126200D01*
X7400D01*
Y128200D01*
X2400D01*
Y127071D01*
X1466D01*
X1416Y127075D01*
X1283Y127111D01*
X1105Y127183D01*
X887Y127298D01*
X636Y127457D01*
X366Y127652D01*
X-655Y128545D01*
X-938Y128827D01*
X-1040Y128960D01*
X-1907Y129625D01*
X-2917Y130043D01*
X-4000Y130186D01*
X-5083Y130043D01*
X-6093Y129625D01*
X-6960Y128960D01*
X-7625Y128093D01*
X-7684Y127950D01*
X-8184Y128049D01*
Y133322D01*
X-7684Y133492D01*
X-7174Y132826D01*
X-6244Y132113D01*
X-5162Y131665D01*
X-4500Y131577D01*
Y136000D01*
Y140423D01*
X-5162Y140336D01*
X-6244Y139887D01*
X-7174Y139174D01*
X-7684Y138508D01*
X-8184Y138678D01*
Y143951D01*
X-7684Y144050D01*
X-7625Y143907D01*
X-6960Y143040D01*
X-6093Y142375D01*
X-5083Y141957D01*
X-4000Y141814D01*
X-3842Y141835D01*
X-3538Y141832D01*
X-3148Y141809D01*
X-2791Y141770D01*
X-2466Y141714D01*
X-2175Y141643D01*
X-1916Y141559D01*
X-1690Y141463D01*
X-1496Y141357D01*
X-1340Y141249D01*
X-777Y140686D01*
X-297Y140365D01*
X269Y140253D01*
X2700D01*
Y138500D01*
X3922D01*
Y136900D01*
X2700D01*
Y132500D01*
X7100D01*
Y136587D01*
X8866D01*
X9431Y136700D01*
X9911Y137020D01*
X10291Y137400D01*
X16109D01*
Y142737D01*
X8410D01*
Y139701D01*
X8253Y139544D01*
X7100D01*
Y142900D01*
X4729D01*
X4435Y143097D01*
X3869Y143210D01*
X881D01*
X751Y143340D01*
X643Y143496D01*
X537Y143690D01*
X441Y143916D01*
X357Y144175D01*
X286Y144466D01*
X232Y144781D01*
X168Y145547D01*
X165Y145842D01*
X186Y146000D01*
X47Y147055D01*
X80Y147094D01*
X527Y147282D01*
X2155Y145655D01*
X2634Y145334D01*
X2700Y145321D01*
Y144500D01*
X7100D01*
Y148602D01*
X7600Y148809D01*
X8410Y147999D01*
Y145274D01*
X16109D01*
Y149661D01*
X16610Y149910D01*
X16829Y149743D01*
D02*
G37*
G36*
X82254Y157800D02*
X81957Y157083D01*
X81814Y156000D01*
X81836Y155837D01*
X81834Y155472D01*
X81780Y154593D01*
X81733Y154233D01*
X81672Y153910D01*
X81599Y153632D01*
X81517Y153400D01*
X81431Y153217D01*
X81345Y153079D01*
X81322Y153053D01*
X80793Y152524D01*
X65600D01*
X65132Y152430D01*
X64735Y152165D01*
X38114Y125544D01*
X18445D01*
X18356Y125677D01*
X17734Y126092D01*
X17482Y126143D01*
X17376Y126673D01*
X17706Y126894D01*
X18122Y127516D01*
X18268Y128250D01*
X18201Y128587D01*
X18657Y129043D01*
X18889Y129390D01*
X18971Y129800D01*
Y150400D01*
X18889Y150810D01*
X18657Y151157D01*
X17157Y152657D01*
X16810Y152889D01*
X16400Y152971D01*
X7100D01*
Y153500D01*
X2700D01*
Y150522D01*
X2200Y150255D01*
X2178Y150269D01*
Y152000D01*
X2066Y152566D01*
X1745Y153045D01*
X998Y153793D01*
X893Y153940D01*
X777Y154139D01*
X669Y154366D01*
X450Y154970D01*
X360Y155299D01*
X193Y156112D01*
X125Y156567D01*
X103Y156627D01*
X43Y157083D01*
X-254Y157800D01*
X71Y158300D01*
X2400D01*
Y157800D01*
X4900D01*
Y157300D01*
X5400D01*
Y154800D01*
X7400D01*
Y155367D01*
X8700D01*
X9363Y155499D01*
X9926Y155874D01*
X10301Y156437D01*
X10433Y157100D01*
X10301Y157763D01*
X10237Y157859D01*
X10473Y158300D01*
X81929D01*
X82254Y157800D01*
D02*
G37*
G36*
X-509Y155987D02*
X-334Y155133D01*
X-230Y154754D01*
X10Y154090D01*
X146Y153806D01*
X293Y153553D01*
X451Y153331D01*
X619Y153141D01*
X-284Y151923D01*
X-497Y152111D01*
X-733Y152272D01*
X-993Y152406D01*
X-1277Y152513D01*
X-1584Y152593D01*
X-1914Y152647D01*
X-2268Y152673D01*
X-2646Y152672D01*
X-3046Y152645D01*
X-3471Y152591D01*
X-581Y156461D01*
X-509Y155987D01*
D02*
G37*
G36*
X85966Y152550D02*
X85448Y152547D01*
X84525Y152491D01*
X84120Y152438D01*
X83752Y152368D01*
X83422Y152282D01*
X83130Y152179D01*
X82874Y152059D01*
X82656Y151922D01*
X82476Y151769D01*
X81769Y152476D01*
X81922Y152656D01*
X82059Y152874D01*
X82179Y153129D01*
X82282Y153422D01*
X82368Y153752D01*
X82438Y154120D01*
X82491Y154525D01*
X82547Y155448D01*
X82550Y155965D01*
X85966Y152550D01*
D02*
G37*
G36*
Y122550D02*
X85513Y122545D01*
X84691Y122477D01*
X84322Y122413D01*
X83980Y122330D01*
X83666Y122228D01*
X83379Y122107D01*
X83120Y121965D01*
X82889Y121805D01*
X82685Y121625D01*
X81625Y122685D01*
X81805Y122889D01*
X81965Y123120D01*
X82107Y123379D01*
X82228Y123666D01*
X82331Y123980D01*
X82413Y124322D01*
X82477Y124691D01*
X82521Y125088D01*
X82545Y125513D01*
X82550Y125965D01*
X85966Y122550D01*
D02*
G37*
G36*
X-1142Y128023D02*
X-78Y127093D01*
X235Y126866D01*
X529Y126680D01*
X803Y126536D01*
X1056Y126433D01*
X1289Y126371D01*
X1502Y126350D01*
Y125650D01*
X1289Y125629D01*
X1056Y125567D01*
X803Y125464D01*
X529Y125320D01*
X235Y125134D01*
X-78Y124907D01*
X-767Y124328D01*
X-1142Y123977D01*
X-1536Y123585D01*
Y128415D01*
X-1142Y128023D01*
D02*
G37*
G36*
Y118023D02*
X-78Y117093D01*
X235Y116866D01*
X529Y116680D01*
X803Y116536D01*
X1056Y116433D01*
X1289Y116371D01*
X1502Y116350D01*
Y115650D01*
X1289Y115629D01*
X1056Y115567D01*
X803Y115464D01*
X529Y115320D01*
X235Y115134D01*
X-78Y114907D01*
X-767Y114328D01*
X-1142Y113977D01*
X-1536Y113585D01*
Y118415D01*
X-1142Y118023D01*
D02*
G37*
G36*
X85048Y112684D02*
X84597Y112810D01*
X82443Y113290D01*
X82176Y113323D01*
X81721Y113350D01*
X80677Y114850D01*
X80982Y114868D01*
X81262Y114922D01*
X81517Y115013D01*
X81748Y115139D01*
X81954Y115302D01*
X82135Y115501D01*
X82291Y115736D01*
X82423Y116008D01*
X82531Y116315D01*
X82613Y116659D01*
X85048Y112684D01*
D02*
G37*
G36*
X83536Y103585D02*
X83213Y103901D01*
X82583Y104434D01*
X82277Y104651D01*
X81977Y104834D01*
X81682Y104984D01*
X81394Y105100D01*
X81111Y105183D01*
X80834Y105233D01*
X80563Y105250D01*
Y106750D01*
X80834Y106767D01*
X81111Y106817D01*
X81394Y106900D01*
X81682Y107016D01*
X81977Y107166D01*
X82277Y107349D01*
X82583Y107566D01*
X82895Y107816D01*
X83213Y108099D01*
X83536Y108415D01*
Y103585D01*
D02*
G37*
%LPC*%
G36*
X450Y25500D02*
X-3500D01*
Y21550D01*
X450D01*
Y25500D01*
D02*
G37*
G36*
X4400Y156800D02*
X2400D01*
Y154800D01*
X4400D01*
Y156800D01*
D02*
G37*
G36*
X85500Y25500D02*
X81550D01*
Y21550D01*
X85500D01*
Y25500D01*
D02*
G37*
G36*
X40650Y29200D02*
X36700D01*
Y25250D01*
X40650D01*
Y29200D01*
D02*
G37*
G36*
X35700D02*
X31750D01*
Y25250D01*
X35700D01*
Y29200D01*
D02*
G37*
G36*
X0Y6582D02*
X-1284Y6455D01*
X-2519Y6081D01*
X-3657Y5472D01*
X-4654Y4654D01*
X-5472Y3657D01*
X-6081Y2519D01*
X-6455Y1284D01*
X-6582Y0D01*
X-6455Y-1284D01*
X-6081Y-2519D01*
X-5472Y-3657D01*
X-4654Y-4654D01*
X-3657Y-5472D01*
X-2519Y-6081D01*
X-1284Y-6455D01*
X0Y-6582D01*
X1284Y-6455D01*
X2519Y-6081D01*
X3657Y-5472D01*
X4654Y-4654D01*
X5472Y-3657D01*
X6081Y-2519D01*
X6455Y-1284D01*
X6582Y0D01*
X6455Y1284D01*
X6081Y2519D01*
X5472Y3657D01*
X4654Y4654D01*
X3657Y5472D01*
X2519Y6081D01*
X1284Y6455D01*
X0Y6582D01*
D02*
G37*
G36*
X47850Y8500D02*
X46600D01*
Y5300D01*
X47850D01*
Y8500D01*
D02*
G37*
G36*
X69400Y47700D02*
X65000D01*
Y43300D01*
X66886D01*
X68729Y41456D01*
Y36000D01*
X68811Y35590D01*
X69043Y35243D01*
X72929Y31356D01*
Y20113D01*
X66936Y14119D01*
X61847D01*
Y8219D01*
X69153D01*
Y13308D01*
X74757Y18912D01*
X74757Y18912D01*
X74989Y19260D01*
X75071Y19669D01*
X75071Y19669D01*
Y31800D01*
X75071Y31800D01*
X74989Y32210D01*
X74757Y32557D01*
X70871Y36443D01*
Y41900D01*
X70789Y42310D01*
X70557Y42657D01*
X69400Y43814D01*
Y47700D01*
D02*
G37*
G36*
X54800Y10214D02*
X50500D01*
X50227Y10159D01*
X49995Y10005D01*
X49841Y9773D01*
X49786Y9500D01*
Y5400D01*
X49841Y5127D01*
X49995Y4895D01*
X50227Y4741D01*
X50500Y4686D01*
X54800D01*
X55073Y4741D01*
X55305Y4895D01*
X55459Y5127D01*
X55514Y5400D01*
Y9500D01*
X55459Y9773D01*
X55305Y10005D01*
X55073Y10159D01*
X54800Y10214D01*
D02*
G37*
G36*
X82000Y6582D02*
X80716Y6455D01*
X79481Y6081D01*
X78343Y5472D01*
X77346Y4654D01*
X76528Y3657D01*
X75919Y2519D01*
X75545Y1284D01*
X75418Y0D01*
X75545Y-1284D01*
X75919Y-2519D01*
X76528Y-3657D01*
X77346Y-4654D01*
X78343Y-5472D01*
X79481Y-6081D01*
X80716Y-6455D01*
X82000Y-6582D01*
X83284Y-6455D01*
X84519Y-6081D01*
X85657Y-5472D01*
X86654Y-4654D01*
X87472Y-3657D01*
X88081Y-2519D01*
X88455Y-1284D01*
X88582Y0D01*
X88455Y1284D01*
X88081Y2519D01*
X87472Y3657D01*
X86654Y4654D01*
X85657Y5472D01*
X84519Y6081D01*
X83284Y6455D01*
X82000Y6582D01*
D02*
G37*
G36*
X31500Y10214D02*
X27200D01*
X26927Y10159D01*
X26695Y10005D01*
X26541Y9773D01*
X26486Y9500D01*
Y5400D01*
X26541Y5127D01*
X26695Y4895D01*
X26927Y4741D01*
X27200Y4686D01*
X31500D01*
X31773Y4741D01*
X32005Y4895D01*
X32159Y5127D01*
X32214Y5400D01*
Y9500D01*
X32159Y9773D01*
X32005Y10005D01*
X31773Y10159D01*
X31500Y10214D01*
D02*
G37*
G36*
X46200Y33886D02*
X45117Y33743D01*
X44107Y33325D01*
X43240Y32660D01*
X42575Y31793D01*
X42157Y30783D01*
X42014Y29700D01*
X42157Y28617D01*
X42575Y27607D01*
X43240Y26740D01*
X44107Y26075D01*
X45117Y25657D01*
X46200Y25514D01*
X47283Y25657D01*
X48293Y26075D01*
X49160Y26740D01*
X49825Y27607D01*
X50243Y28617D01*
X50386Y29700D01*
X50243Y30783D01*
X49825Y31793D01*
X49160Y32660D01*
X48293Y33325D01*
X47283Y33743D01*
X46200Y33886D01*
D02*
G37*
G36*
X450Y65500D02*
X-3500D01*
Y61550D01*
X450D01*
Y65500D01*
D02*
G37*
G36*
X-3500Y140423D02*
Y136500D01*
X423D01*
X335Y137162D01*
X-113Y138244D01*
X-826Y139174D01*
X-1756Y139887D01*
X-2838Y140336D01*
X-3500Y140423D01*
D02*
G37*
G36*
X4400Y131200D02*
X2400D01*
Y129200D01*
X4400D01*
Y131200D01*
D02*
G37*
G36*
X423Y135500D02*
X-3500D01*
Y131577D01*
X-2838Y131665D01*
X-1910Y132049D01*
X-1216Y131355D01*
Y131000D01*
X-1116Y130497D01*
X-830Y130070D01*
X-404Y129784D01*
X100Y129684D01*
X604Y129784D01*
X1030Y130070D01*
X1316Y130497D01*
X1416Y131000D01*
Y131900D01*
X1316Y132404D01*
X1030Y132830D01*
X-49Y133910D01*
X335Y134838D01*
X423Y135500D01*
D02*
G37*
G36*
X7400Y131200D02*
X5400D01*
Y129200D01*
X7400D01*
Y131200D01*
D02*
G37*
G36*
X450Y70450D02*
X-3500D01*
Y66500D01*
X450D01*
Y70450D01*
D02*
G37*
G36*
X85500Y30450D02*
X81550D01*
Y26500D01*
X85500D01*
Y30450D01*
D02*
G37*
G36*
X450D02*
X-3500D01*
Y26500D01*
X450D01*
Y30450D01*
D02*
G37*
G36*
X56200Y33886D02*
X55117Y33743D01*
X54107Y33325D01*
X53240Y32660D01*
X52575Y31793D01*
X52157Y30783D01*
X52014Y29700D01*
X52157Y28617D01*
X52575Y27607D01*
X53240Y26740D01*
X54107Y26075D01*
X55117Y25657D01*
X56200Y25514D01*
X57283Y25657D01*
X58293Y26075D01*
X59160Y26740D01*
X59825Y27607D01*
X60243Y28617D01*
X60386Y29700D01*
X60243Y30783D01*
X59825Y31793D01*
X59160Y32660D01*
X58293Y33325D01*
X57283Y33743D01*
X56200Y33886D01*
D02*
G37*
G36*
X29600Y47700D02*
X25200D01*
Y43300D01*
X26826D01*
Y40968D01*
X25381D01*
Y35631D01*
X30718D01*
Y40968D01*
X29273D01*
Y43300D01*
X29600D01*
Y47700D01*
D02*
G37*
G36*
X40650Y34150D02*
X36700D01*
Y30200D01*
X40650D01*
Y34150D01*
D02*
G37*
G36*
X35700D02*
X31750D01*
Y30200D01*
X35700D01*
Y34150D01*
D02*
G37*
%LPD*%
D10*
X6300Y51500D02*
D03*
Y45500D02*
D03*
X4900Y157300D02*
D03*
Y151300D02*
D03*
Y140700D02*
D03*
Y146700D02*
D03*
Y128700D02*
D03*
Y134700D02*
D03*
X77300Y124700D02*
D03*
Y118700D02*
D03*
X77300Y108100D02*
D03*
Y114100D02*
D03*
Y95100D02*
D03*
Y101100D02*
D03*
X11575Y51500D02*
D03*
Y45500D02*
D03*
X27400Y45500D02*
D03*
Y51500D02*
D03*
X22125Y51500D02*
D03*
Y45500D02*
D03*
X16850Y51500D02*
D03*
Y45500D02*
D03*
X67200Y45500D02*
D03*
Y51500D02*
D03*
D11*
X20200Y79900D02*
D03*
X26200D02*
D03*
D12*
X16500Y-5169D02*
D03*
Y11169D02*
D03*
X65500Y-5169D02*
D03*
Y11169D02*
D03*
D13*
X34880Y78455D02*
D03*
Y69400D02*
D03*
Y60345D02*
D03*
D14*
X57320Y69400D02*
D03*
D15*
X24300Y59519D02*
D03*
Y66919D02*
D03*
D16*
X35900Y9000D02*
D03*
X43550D02*
D03*
X46100D02*
D03*
X41000D02*
D03*
X38450D02*
D03*
D17*
X69740Y92824D02*
D03*
Y100698D02*
D03*
Y108572D02*
D03*
Y116446D02*
D03*
Y124320D02*
D03*
Y132194D02*
D03*
Y140068D02*
D03*
Y147942D02*
D03*
X12260D02*
D03*
Y140068D02*
D03*
Y132194D02*
D03*
Y124320D02*
D03*
Y116446D02*
D03*
Y108572D02*
D03*
Y100698D02*
D03*
Y92824D02*
D03*
D18*
X21315Y88100D02*
D03*
X29189D02*
D03*
X37063D02*
D03*
X44937D02*
D03*
X52811D02*
D03*
X60685D02*
D03*
D19*
X21750Y38300D02*
D03*
X28050D02*
D03*
D20*
X10300Y25110D02*
D03*
Y33890D02*
D03*
D21*
X12100Y63494D02*
D03*
Y75305D02*
D03*
D22*
X11310Y33890D02*
X17400Y27800D01*
X20400Y21300D02*
X26900D01*
X17400Y24300D02*
X20400Y21300D01*
X17400Y24300D02*
Y27800D01*
X26900Y21300D02*
Y29000D01*
X26200Y29700D02*
X26900Y29000D01*
X20200Y73700D02*
Y79900D01*
X13500Y80100D02*
X13700Y79900D01*
X20200D01*
X46100Y9000D02*
Y14000D01*
X69740Y100698D02*
X77502D01*
X69740Y124320D02*
X71021D01*
X76600Y119300D02*
X79300D01*
X86000Y126000D01*
X72194Y132194D02*
X86000Y146000D01*
X71021Y124320D02*
X75000Y128300D01*
X78300D01*
X86000Y136000D01*
X5700Y138066D02*
X8866D01*
X10869Y140068D01*
X12260D01*
X35900Y9000D02*
Y12300D01*
X26900Y21300D02*
X35900Y12300D01*
X10300Y33890D02*
X11310D01*
X69740Y116446D02*
X73747D01*
X76600Y119300D01*
X80100Y106000D02*
X86000D01*
X78800Y104700D02*
X80100Y106000D01*
X76100Y104700D02*
X78800D01*
X73600D02*
X76100D01*
X16000Y56000D02*
X16900Y55100D01*
X44100D02*
X46400Y57400D01*
Y67100D01*
X52800Y74700D02*
Y75800D01*
X50700Y76800D02*
X58300Y84400D01*
X61000D01*
X52800Y75800D02*
X53900Y76900D01*
X58300D01*
X61000D01*
X77500Y73500D02*
Y76200D01*
X80300Y61700D02*
X86000Y56000D01*
X80300Y61700D02*
Y97900D01*
X77502Y100698D02*
X80300Y97900D01*
X77500Y19400D02*
Y73500D01*
Y19400D02*
X80900Y16000D01*
X86000D01*
X3869Y141731D02*
X4900Y140700D01*
X269Y141731D02*
X3869D01*
X-4000Y146000D02*
X269Y141731D01*
X5400Y135700D02*
Y140700D01*
X10558Y147942D02*
X12260D01*
X7200Y151300D02*
X10558Y147942D01*
X4900Y151300D02*
X7200D01*
X3200Y146700D02*
X4900D01*
X700Y149200D02*
X3200Y146700D01*
X700Y149200D02*
Y152000D01*
X-3300Y156000D02*
X700Y152000D01*
X-4000Y156000D02*
X-3300D01*
X4900Y146700D02*
X5600D01*
X69740Y108572D02*
X74468Y113300D01*
X76500D01*
X77300Y114100D01*
X84100D01*
X86000Y116000D01*
X-4000Y56000D02*
X4200D01*
X6300Y53900D01*
Y51600D02*
Y53900D01*
Y51600D02*
X11300D01*
X11400Y51700D01*
X4200Y56000D02*
X16000D01*
X16900Y55100D02*
X25900D01*
X27400Y53600D01*
Y51500D02*
Y53600D01*
X25900Y55100D02*
X44100D01*
D23*
X4900Y61600D02*
Y70000D01*
X5100Y58800D02*
Y60200D01*
X5700Y60800D01*
X4900Y61600D02*
X5700Y60800D01*
X3300D02*
X3600D01*
X-4000Y66000D02*
X-2900Y64900D01*
X5400Y157100D02*
X8700D01*
X77300Y90133D02*
Y95100D01*
X77200Y90033D02*
X77300Y90133D01*
X77200Y92800D02*
Y95600D01*
D24*
X67075Y50524D02*
Y52775D01*
Y44625D02*
Y46524D01*
Y44625D02*
X69800Y41900D01*
Y36000D02*
Y41900D01*
Y36000D02*
X74000Y31800D01*
Y19669D02*
Y31800D01*
X65500Y11169D02*
X74000Y19669D01*
X16800Y84500D02*
X17700Y83600D01*
X16800Y84500D02*
Y95200D01*
X26189Y85100D02*
X29189Y88100D01*
X18200Y85990D02*
Y96380D01*
X17080Y97500D02*
X18200Y96380D01*
X-4000Y76000D02*
X4300D01*
X15900Y96100D02*
X16800Y95200D01*
X49711Y85000D02*
X52811Y88100D01*
X34400Y85000D02*
X49711D01*
X-4000Y86000D02*
X3400D01*
X-4000Y96000D02*
X4500D01*
X7980Y97500D02*
X17080D01*
X8560Y96100D02*
X15900D01*
X4500Y96000D02*
X6100Y97600D01*
X-4000Y106000D02*
X7700D01*
X8400Y105300D01*
X6100Y97600D02*
Y101700D01*
X8300Y103900D01*
X6000Y115400D02*
X8300Y113100D01*
X-4000Y116000D02*
X3400D01*
X7700Y111700D01*
X18200Y85990D02*
X19090Y85100D01*
X26189D01*
X33300Y86100D02*
X34400Y85000D01*
X-4000Y126000D02*
X4600D01*
X6000Y124600D01*
Y115400D02*
Y124600D01*
X16500Y11169D02*
Y21900D01*
X15600Y22800D02*
X16500Y21900D01*
X15600Y22800D02*
Y26800D01*
X11700Y30700D02*
X15600Y26800D01*
X8600Y30700D02*
X11700D01*
X6700Y32600D02*
X8600Y30700D01*
X64868Y140068D02*
X69740D01*
X65746Y116446D02*
X69740D01*
X12260Y100698D02*
X17500D01*
X12260Y108572D02*
X17500D01*
X12260Y116446D02*
X17500D01*
X62300Y137500D02*
X64868Y140068D01*
X65100Y115800D02*
X65746Y116446D01*
X62300Y97100D02*
Y137500D01*
X65100Y98260D02*
Y115800D01*
Y98260D02*
X66460Y96900D01*
X62300Y97100D02*
X64100Y95300D01*
X12400Y128300D02*
Y132054D01*
X5500Y151900D02*
X16400D01*
X17900Y150400D01*
Y129800D02*
Y150400D01*
X16350Y128250D02*
X17900Y129800D01*
X3400Y86000D02*
X4800Y87400D01*
Y94320D01*
X7980Y97500D01*
X6200Y93740D02*
X8560Y96100D01*
X6200Y77900D02*
Y93740D01*
X4300Y76000D02*
X6200Y77900D01*
X18000Y38200D02*
X21650D01*
X58300Y88100D02*
X60685D01*
X17700Y83600D02*
X53800D01*
X58300Y88100D01*
X41737Y91300D02*
X44937Y88100D01*
X8300Y113100D02*
X18200D01*
X21500Y109800D01*
X17620Y111700D02*
X20000Y109320D01*
X7700Y111700D02*
X17620D01*
X8400Y105300D02*
X18034D01*
X8300Y103900D02*
X17454D01*
X21315Y100039D01*
Y88100D02*
Y100039D01*
X18034Y105300D02*
X33300Y90034D01*
Y86100D02*
Y90034D01*
X37063Y88100D02*
Y88337D01*
X21500Y105800D02*
Y109800D01*
Y105800D02*
X36000Y91300D01*
X41737D01*
X35420Y89900D02*
X35500D01*
X37063Y88337D01*
X20000Y105320D02*
X35420Y89900D01*
X20000Y105320D02*
Y109320D01*
X66460Y96900D02*
X72815D01*
X74600Y71993D02*
Y95115D01*
X72815Y96900D02*
X74600Y95115D01*
X4900Y151300D02*
X5500Y151900D01*
X63700Y134500D02*
X65400Y136200D01*
X73100D02*
X74800Y137900D01*
X65400Y136200D02*
X73100D01*
X69740Y147942D02*
X73958D01*
X74800Y147100D01*
Y137900D02*
Y147100D01*
X63700Y97680D02*
Y134500D01*
Y97680D02*
X65600Y95780D01*
Y95314D02*
Y95780D01*
X65521Y95235D02*
X65600Y95314D01*
X-4000Y46000D02*
X5900D01*
X6300Y45600D01*
X6700Y32600D02*
Y39000D01*
X8050Y40350D01*
X11542D01*
X13950Y42758D01*
X21750Y45125D02*
X22125Y45500D01*
X16850Y51500D02*
X18300D01*
X19400Y50400D01*
X19383Y42758D02*
Y43548D01*
X19400Y43565D01*
Y50400D01*
X13950Y42758D02*
X19383D01*
X20500Y51500D02*
X22125D01*
X19400Y50400D02*
X20500Y51500D01*
X57263Y47700D02*
Y54363D01*
X54037Y53737D02*
X64100Y63800D01*
Y95300D01*
X57263Y54363D02*
X65521Y62621D01*
Y95235D01*
X69853Y67247D02*
X74600Y71993D01*
X67075Y52775D02*
X69853Y55553D01*
Y67247D01*
D25*
X-4000Y16000D02*
X1190D01*
X10300Y25110D01*
D26*
X81300Y151300D02*
X86000Y156000D01*
X38620Y124320D02*
X65600Y151300D01*
X81300D01*
X76600Y107700D02*
Y107950D01*
X73600Y104700D02*
X76600Y107700D01*
X12260Y124320D02*
X17000D01*
X38620D01*
X45000Y53000D02*
X48500Y56500D01*
Y66500D01*
X73600Y120600D02*
X77300Y124300D01*
Y124700D01*
X-4000Y36000D02*
X4800D01*
X4900Y36100D01*
Y40600D01*
X6200Y41900D01*
X10900D01*
X11400Y42400D01*
X11600Y45500D02*
X16850D01*
X11400Y42400D02*
Y45700D01*
X11600Y45500D01*
X21750Y38300D02*
Y45125D01*
X27400Y45500D02*
X28050Y44850D01*
Y38300D02*
Y44850D01*
D27*
X65500Y-5169D02*
Y-1017D01*
X16500Y-5169D02*
Y-1017D01*
X65500Y-5200D02*
X70453D01*
X60547Y-5169D02*
X65500D01*
X11547Y-5139D02*
X16500D01*
Y-5169D02*
X21453D01*
X70900Y88700D02*
Y92700D01*
X67800Y88700D02*
Y92700D01*
X69300Y87100D02*
Y92384D01*
X69740Y92824D01*
X100Y131000D02*
Y131900D01*
X-4000Y136000D02*
X100Y131900D01*
D28*
X41000Y-2600D02*
D03*
D29*
X29350Y7450D02*
D03*
X52650D02*
D03*
D30*
X12250Y84200D02*
D03*
D31*
X30450Y60300D02*
D03*
D32*
X45950Y69400D02*
D03*
D33*
X30900Y73750D02*
D03*
D34*
X56200Y29700D02*
D03*
X46200D02*
D03*
X26200D02*
D03*
D35*
X36200D02*
D03*
D36*
X82000Y172000D02*
D03*
X0D02*
D03*
Y0D02*
D03*
X82000D02*
D03*
D37*
X-4000Y16000D02*
D03*
Y56000D02*
D03*
Y46000D02*
D03*
Y36000D02*
D03*
Y76000D02*
D03*
Y86000D02*
D03*
Y96000D02*
D03*
Y156000D02*
D03*
Y146000D02*
D03*
Y136000D02*
D03*
Y126000D02*
D03*
Y116000D02*
D03*
Y106000D02*
D03*
X86000Y16000D02*
D03*
Y56000D02*
D03*
Y46000D02*
D03*
Y36000D02*
D03*
Y66000D02*
D03*
Y76000D02*
D03*
Y86000D02*
D03*
Y156000D02*
D03*
Y146000D02*
D03*
Y136000D02*
D03*
Y126000D02*
D03*
Y116000D02*
D03*
Y106000D02*
D03*
D38*
X-4000Y26000D02*
D03*
Y66000D02*
D03*
X86000Y26000D02*
D03*
Y96000D02*
D03*
D39*
X50550Y9000D02*
D03*
X31450D02*
D03*
D40*
X26700Y-1400D02*
D03*
X55300D02*
D03*
D41*
X35900Y38900D02*
D03*
X77200Y90033D02*
D03*
Y87267D02*
D03*
Y84500D02*
D03*
X20800Y114000D02*
D03*
X23700Y111000D02*
D03*
X70000Y71900D02*
D03*
X67800D02*
D03*
X70000Y74200D02*
D03*
X72300D02*
D03*
X67800D02*
D03*
X48650Y-6400D02*
D03*
X45500D02*
D03*
X42350D02*
D03*
X39200D02*
D03*
X36050D02*
D03*
X32900D02*
D03*
X48650Y-2500D02*
D03*
X45500D02*
D03*
X42350D02*
D03*
X39200D02*
D03*
X36050D02*
D03*
X32900D02*
D03*
Y1400D02*
D03*
X36050D02*
D03*
X39200D02*
D03*
X42350D02*
D03*
X45500D02*
D03*
X48650D02*
D03*
X17500Y108572D02*
D03*
Y100698D02*
D03*
Y116446D02*
D03*
X61000Y84400D02*
D03*
X73600Y104700D02*
D03*
Y120600D02*
D03*
X58300Y84400D02*
D03*
X76100Y104700D02*
D03*
X12400Y128300D02*
D03*
X16350Y128250D02*
D03*
X17000Y124320D02*
D03*
X18000Y38200D02*
D03*
X61000Y76900D02*
D03*
X58300D02*
D03*
X77500Y76200D02*
D03*
Y73500D02*
D03*
X20281Y60739D02*
D03*
Y58181D02*
D03*
X6100Y20900D02*
D03*
X7800Y22600D02*
D03*
X65500Y-1017D02*
D03*
X16500D02*
D03*
X70453Y-5200D02*
D03*
X60547Y-5169D02*
D03*
X11547Y-5139D02*
D03*
X21453Y-5169D02*
D03*
X70900Y88700D02*
D03*
X67800D02*
D03*
X69300Y87100D02*
D03*
X12350Y69200D02*
D03*
X15675D02*
D03*
X19000D02*
D03*
Y65000D02*
D03*
X5700Y60800D02*
D03*
Y65000D02*
D03*
Y69200D02*
D03*
X9025D02*
D03*
X8700Y157200D02*
D03*
X46100Y14000D02*
D03*
X29100Y81300D02*
D03*
X41100D02*
D03*
Y78000D02*
D03*
X43650Y81300D02*
D03*
Y78000D02*
D03*
X46200Y81300D02*
D03*
X29100Y78000D02*
D03*
X46200D02*
D03*
X32400Y98400D02*
D03*
X37000Y93800D02*
D03*
X34700Y96100D02*
D03*
X29700Y103100D02*
D03*
X26600Y106300D02*
D03*
X40100Y129300D02*
D03*
X45100Y134300D02*
D03*
X42600Y131800D02*
D03*
X52600Y141800D02*
D03*
X55100Y144300D02*
D03*
X50100Y139300D02*
D03*
X47600Y136800D02*
D03*
X62600Y151800D02*
D03*
X65100Y154300D02*
D03*
X72600Y157200D02*
D03*
X60100Y149300D02*
D03*
X57600Y146800D02*
D03*
X58800Y141100D02*
D03*
X61300Y143600D02*
D03*
X63800Y146100D02*
D03*
X56300Y138600D02*
D03*
X53800Y136100D02*
D03*
X48800Y131100D02*
D03*
X46300Y128600D02*
D03*
X43800Y126100D02*
D03*
X51300Y133600D02*
D03*
X37500Y121600D02*
D03*
X33200D02*
D03*
X41300Y123600D02*
D03*
X27700Y113800D02*
D03*
X30200Y111300D02*
D03*
X32700Y108800D02*
D03*
X25200Y116300D02*
D03*
X22700Y118800D02*
D03*
X37700Y103800D02*
D03*
X40200Y101300D02*
D03*
X35200Y106300D02*
D03*
X47700Y93800D02*
D03*
X45200Y96300D02*
D03*
X42700Y98800D02*
D03*
X20300Y121600D02*
D03*
X24600D02*
D03*
X28900D02*
D03*
X29000Y126800D02*
D03*
X33300D02*
D03*
X37600D02*
D03*
X24700D02*
D03*
X20300D02*
D03*
Y130700D02*
D03*
Y134600D02*
D03*
Y138500D02*
D03*
Y147100D02*
D03*
Y150200D02*
D03*
Y142400D02*
D03*
X59900Y121200D02*
D03*
Y113400D02*
D03*
Y117300D02*
D03*
Y125100D02*
D03*
Y129000D02*
D03*
Y132900D02*
D03*
Y136800D02*
D03*
Y97800D02*
D03*
Y93900D02*
D03*
Y101700D02*
D03*
Y105600D02*
D03*
Y109500D02*
D03*
X58400Y157200D02*
D03*
X61950D02*
D03*
X69050D02*
D03*
X65500D02*
D03*
X40650D02*
D03*
X47750D02*
D03*
X54850D02*
D03*
X51300D02*
D03*
X76150D02*
D03*
X19350D02*
D03*
X33550D02*
D03*
X26450D02*
D03*
X15800D02*
D03*
X12250D02*
D03*
X33850Y135900D02*
D03*
X44200Y157200D02*
D03*
X37100D02*
D03*
X30000D02*
D03*
X22900D02*
D03*
X80200Y51600D02*
D03*
Y40800D02*
D03*
Y32100D02*
D03*
X47400Y150200D02*
D03*
X33850D02*
D03*
X80200Y20900D02*
D03*
X40900Y143400D02*
D03*
X75300Y17700D02*
D03*
X77800Y15100D02*
D03*
X72700D02*
D03*
X5200Y6680D02*
D03*
X25900Y14667D02*
D03*
Y10833D02*
D03*
X22300Y7000D02*
D03*
Y14667D02*
D03*
X29500D02*
D03*
X22300Y10833D02*
D03*
X48800Y18700D02*
D03*
X61100Y24400D02*
D03*
X57700Y7800D02*
D03*
X55400Y19600D02*
D03*
X41700Y19300D02*
D03*
X55400Y14000D02*
D03*
X51400D02*
D03*
X5200Y15160D02*
D03*
X9500Y10920D02*
D03*
Y15160D02*
D03*
Y6680D02*
D03*
X500Y20400D02*
D03*
X5700Y27000D02*
D03*
X1900Y31100D02*
D03*
X63300Y5800D02*
D03*
X68200D02*
D03*
X15600Y34600D02*
D03*
X33500Y36600D02*
D03*
X4800Y24700D02*
D03*
X400Y10920D02*
D03*
X77800D02*
D03*
X87100Y9200D02*
D03*
X82400Y51000D02*
D03*
X5200Y10920D02*
D03*
X-5900Y8500D02*
D03*
X9500Y2440D02*
D03*
Y-1800D02*
D03*
X72700Y10920D02*
D03*
Y5800D02*
D03*
Y0D02*
D03*
X100Y131000D02*
D03*
X54100Y53500D02*
D03*
X57263Y47700D02*
D03*
X37700Y14800D02*
D03*
X35200Y17300D02*
D03*
X32700Y19800D02*
D03*
X30000Y22200D02*
D03*
X22500Y25100D02*
D03*
X32500Y51300D02*
D03*
X38000Y51200D02*
D03*
X43800Y49700D02*
D03*
X50200Y49600D02*
D03*
X74200Y65700D02*
D03*
X74100Y60900D02*
D03*
Y56400D02*
D03*
X74000Y51500D02*
D03*
X74100Y44400D02*
D03*
X73400Y39500D02*
D03*
X66200Y57300D02*
D03*
X61600Y53400D02*
D03*
X44600Y24600D02*
D03*
X51800D02*
D03*
X66100Y29000D02*
D03*
X12700Y18800D02*
D03*
X42100Y40400D02*
D03*
X62000Y41900D02*
D03*
X24500Y17800D02*
D03*
X54000Y37400D02*
D03*
X60700Y37300D02*
D03*
X55700Y43000D02*
D03*
M02*
