G04 Layer_Color=16711935*
%FSLAX25Y25*%
%MOIN*%
G70*
G01*
G75*
%ADD26C,0.01000*%
%ADD76C,0.00200*%
%ADD77C,0.00394*%
D26*
X9175Y86651D02*
Y180900D01*
X72826D01*
Y86651D02*
Y180900D01*
X9175Y86651D02*
X72826D01*
D76*
X9004Y158680D02*
X73004D01*
Y180942D01*
X9004D02*
X73004D01*
X9004Y158680D02*
Y180942D01*
X12066Y69633D02*
X11900Y69800D01*
X11567D01*
X11400Y69633D01*
Y68967D01*
X11567Y68800D01*
X11900D01*
X12066Y68967D01*
X13066Y68800D02*
X12400D01*
X13066Y69466D01*
Y69633D01*
X12900Y69800D01*
X12566D01*
X12400Y69633D01*
X10700Y30200D02*
X9700D01*
Y29700D01*
X9867Y29534D01*
X10533D01*
X10700Y29700D01*
Y30200D01*
X9700Y29200D02*
Y28867D01*
Y29034D01*
X10700D01*
X10533Y29200D01*
X634Y160800D02*
X967D01*
X800D01*
Y159967D01*
X967Y159800D01*
X1133D01*
X1300Y159967D01*
X300Y159800D02*
X-33D01*
X134D01*
Y160800D01*
X300Y160633D01*
X81534Y160500D02*
X81867D01*
X81700D01*
Y159667D01*
X81867Y159500D01*
X82033D01*
X82200Y159667D01*
X80534Y159500D02*
X81200D01*
X80534Y160167D01*
Y160333D01*
X80700Y160500D01*
X81034D01*
X81200Y160333D01*
X24400Y36800D02*
X25400D01*
Y37466D01*
X24400Y38466D02*
Y37800D01*
X25400D01*
Y38466D01*
X24900Y37800D02*
Y38133D01*
X24400Y38799D02*
X25400D01*
Y39299D01*
X25233Y39466D01*
X24567D01*
X24400Y39299D01*
Y38799D01*
X25400Y39799D02*
Y40132D01*
Y39966D01*
X24400D01*
X24567Y39799D01*
X26600Y48000D02*
Y49000D01*
X27100D01*
X27266Y48833D01*
Y48500D01*
X27100Y48333D01*
X26600D01*
X26933D02*
X27266Y48000D01*
X27600Y48167D02*
X27766Y48000D01*
X28100D01*
X28266Y48167D01*
Y48833D01*
X28100Y49000D01*
X27766D01*
X27600Y48833D01*
Y48666D01*
X27766Y48500D01*
X28266D01*
X17950Y48900D02*
Y47900D01*
X17450D01*
X17284Y48067D01*
Y48400D01*
X17450Y48567D01*
X17950D01*
X17617D02*
X17284Y48900D01*
X16950D02*
X16617D01*
X16784D01*
Y47900D01*
X16950Y48067D01*
X16117Y48900D02*
X15784D01*
X15951D01*
Y47900D01*
X16117Y48067D01*
X76600Y121200D02*
Y122200D01*
X77100D01*
X77267Y122033D01*
Y121700D01*
X77100Y121533D01*
X76600D01*
X76933D02*
X77267Y121200D01*
X77600D02*
X77933D01*
X77766D01*
Y122200D01*
X77600Y122033D01*
X78200Y111600D02*
Y110600D01*
X77700D01*
X77534Y110767D01*
Y111100D01*
X77700Y111267D01*
X78200D01*
X77867D02*
X77534Y111600D01*
X76534D02*
X77200D01*
X76534Y110933D01*
Y110767D01*
X76701Y110600D01*
X77034D01*
X77200Y110767D01*
X76400Y97600D02*
Y98600D01*
X76900D01*
X77066Y98433D01*
Y98100D01*
X76900Y97933D01*
X76400D01*
X76733D02*
X77066Y97600D01*
X78066Y98600D02*
X77400D01*
Y98100D01*
X77733Y98266D01*
X77899D01*
X78066Y98100D01*
Y97767D01*
X77899Y97600D01*
X77566D01*
X77400Y97767D01*
X65900Y48000D02*
Y49000D01*
X66400D01*
X66566Y48833D01*
Y48500D01*
X66400Y48333D01*
X65900D01*
X66233D02*
X66566Y48000D01*
X66900D02*
X67233D01*
X67066D01*
Y49000D01*
X66900Y48833D01*
X68399Y48000D02*
X67733D01*
X68399Y48666D01*
Y48833D01*
X68233Y49000D01*
X67899D01*
X67733Y48833D01*
X3600Y143200D02*
Y144200D01*
X4100D01*
X4266Y144033D01*
Y143700D01*
X4100Y143533D01*
X3600D01*
X3933D02*
X4266Y143200D01*
X4600D02*
X4933D01*
X4766D01*
Y144200D01*
X4600Y144033D01*
X5433D02*
X5599Y144200D01*
X5933D01*
X6099Y144033D01*
Y143867D01*
X5933Y143700D01*
X5766D01*
X5933D01*
X6099Y143533D01*
Y143367D01*
X5933Y143200D01*
X5599D01*
X5433Y143367D01*
X3700Y131200D02*
Y132200D01*
X4200D01*
X4366Y132033D01*
Y131700D01*
X4200Y131533D01*
X3700D01*
X4033D02*
X4366Y131200D01*
X4700D02*
X5033D01*
X4866D01*
Y132200D01*
X4700Y132033D01*
X6033Y131200D02*
Y132200D01*
X5533Y131700D01*
X6199D01*
X16366Y3333D02*
X16200Y3500D01*
X15867D01*
X15700Y3333D01*
Y3167D01*
X15867Y3000D01*
X16200D01*
X16366Y2833D01*
Y2667D01*
X16200Y2500D01*
X15867D01*
X15700Y2667D01*
X16700Y2500D02*
X17033D01*
X16866D01*
Y3500D01*
X16700Y3333D01*
X65266D02*
X65100Y3500D01*
X64767D01*
X64600Y3333D01*
Y3167D01*
X64767Y3000D01*
X65100D01*
X65266Y2833D01*
Y2667D01*
X65100Y2500D01*
X64767D01*
X64600Y2667D01*
X66266Y2500D02*
X65600D01*
X66266Y3167D01*
Y3333D01*
X66100Y3500D01*
X65766D01*
X65600Y3333D01*
X67000Y155100D02*
Y154267D01*
X67167Y154100D01*
X67500D01*
X67666Y154267D01*
Y155100D01*
X68000Y154100D02*
X68333D01*
X68166D01*
Y155100D01*
X68000Y154933D01*
X51900Y4600D02*
Y3767D01*
X52067Y3600D01*
X52400D01*
X52566Y3767D01*
Y4600D01*
X52900Y4433D02*
X53066Y4600D01*
X53399D01*
X53566Y4433D01*
Y4266D01*
X53399Y4100D01*
X53233D01*
X53399D01*
X53566Y3933D01*
Y3767D01*
X53399Y3600D01*
X53066D01*
X52900Y3767D01*
X23325Y49000D02*
Y48000D01*
X22825D01*
X22659Y48167D01*
Y48500D01*
X22825Y48667D01*
X23325D01*
X22992D02*
X22659Y49000D01*
X22325D02*
X21992D01*
X22159D01*
Y48000D01*
X22325Y48167D01*
X21492D02*
X21326Y48000D01*
X20992D01*
X20826Y48167D01*
Y48833D01*
X20992Y49000D01*
X21326D01*
X21492Y48833D01*
Y48167D01*
X4934Y153867D02*
X5100Y153700D01*
X5433D01*
X5600Y153867D01*
Y154533D01*
X5433Y154700D01*
X5100D01*
X4934Y154533D01*
X4600Y154700D02*
X4267D01*
X4434D01*
Y153700D01*
X4600Y153867D01*
X10775Y48000D02*
Y49000D01*
X11275D01*
X11441Y48833D01*
Y48500D01*
X11275Y48333D01*
X10775D01*
X11108D02*
X11441Y48000D01*
X12274D02*
Y49000D01*
X11775Y48500D01*
X12441D01*
X18717Y61035D02*
X18550Y60869D01*
Y60536D01*
X18717Y60369D01*
X19383D01*
X19550Y60536D01*
Y60869D01*
X19383Y61035D01*
X18550Y61369D02*
Y62035D01*
X18717D01*
X19383Y61369D01*
X19550D01*
X23066Y80333D02*
X22900Y80500D01*
X22567D01*
X22400Y80333D01*
Y79667D01*
X22567Y79500D01*
X22900D01*
X23066Y79667D01*
X23400Y80333D02*
X23566Y80500D01*
X23900D01*
X24066Y80333D01*
Y80166D01*
X23900Y80000D01*
X24066Y79833D01*
Y79667D01*
X23900Y79500D01*
X23566D01*
X23400Y79667D01*
Y79833D01*
X23566Y80000D01*
X23400Y80166D01*
Y80333D01*
X23566Y80000D02*
X23900D01*
X45600Y69800D02*
Y68967D01*
X45767Y68800D01*
X46100D01*
X46266Y68967D01*
Y69800D01*
X47100Y68800D02*
Y69800D01*
X46600Y69300D01*
X47266D01*
X15404Y178743D02*
Y179409D01*
X15737Y179742D01*
X16070Y179409D01*
Y178743D01*
Y179242D01*
X15404D01*
X16404Y178743D02*
Y179742D01*
X17070Y178743D01*
Y179742D01*
X17403D02*
X18070D01*
X17737D01*
Y178743D01*
X19069Y179742D02*
X18403D01*
Y178743D01*
X19069D01*
X18403Y179242D02*
X18736D01*
X19403Y178743D02*
Y179742D01*
X20069Y178743D01*
Y179742D01*
X20402Y178743D02*
Y179742D01*
X21069Y178743D01*
Y179742D01*
X21402Y178743D02*
Y179409D01*
X21735Y179742D01*
X22069Y179409D01*
Y178743D01*
Y179242D01*
X21402D01*
X23401Y178743D02*
Y179409D01*
X23735Y179742D01*
X24068Y179409D01*
Y178743D01*
Y179242D01*
X23401D01*
X24401Y178743D02*
Y179742D01*
X24901D01*
X25067Y179576D01*
Y179242D01*
X24901Y179076D01*
X24401D01*
X24734D02*
X25067Y178743D01*
X26067Y179742D02*
X25401D01*
Y178743D01*
X26067D01*
X25401Y179242D02*
X25734D01*
X26400Y178743D02*
Y179409D01*
X26734Y179742D01*
X27067Y179409D01*
Y178743D01*
Y179242D01*
X26400D01*
X16070Y177576D02*
X15904Y177742D01*
X15571D01*
X15404Y177576D01*
Y176909D01*
X15571Y176742D01*
X15904D01*
X16070Y176909D01*
X16404Y177742D02*
Y176909D01*
X16570Y176742D01*
X16904D01*
X17070Y176909D01*
Y177742D01*
X17403D02*
X18070D01*
X17737D01*
Y176742D01*
X18903Y177742D02*
X18570D01*
X18403Y177576D01*
Y176909D01*
X18570Y176742D01*
X18903D01*
X19069Y176909D01*
Y177576D01*
X18903Y177742D01*
X19403D02*
Y176909D01*
X19569Y176742D01*
X19903D01*
X20069Y176909D01*
Y177742D01*
X20402D02*
X21069D01*
X20736D01*
Y176742D01*
X22402D02*
Y177742D01*
X22901D01*
X23068Y177576D01*
Y177242D01*
X22901Y177076D01*
X22402D01*
X23901Y177742D02*
X23568D01*
X23401Y177576D01*
Y176909D01*
X23568Y176742D01*
X23901D01*
X24068Y176909D01*
Y177576D01*
X23901Y177742D01*
X24401D02*
Y176742D01*
X25067D01*
X25401Y177742D02*
Y177576D01*
X25734Y177242D01*
X26067Y177576D01*
Y177742D01*
X25734Y177242D02*
Y176742D01*
X27067Y177576D02*
X26900Y177742D01*
X26567D01*
X26400Y177576D01*
Y176909D01*
X26567Y176742D01*
X26900D01*
X27067Y176909D01*
Y177242D01*
X26734D01*
X27900Y177742D02*
X27567D01*
X27400Y177576D01*
Y176909D01*
X27567Y176742D01*
X27900D01*
X28067Y176909D01*
Y177576D01*
X27900Y177742D01*
X28400Y176742D02*
Y177742D01*
X29066Y176742D01*
Y177742D01*
D77*
X10594Y-4874D02*
Y10874D01*
X22406Y-4874D02*
Y10874D01*
X10594Y-4874D02*
X22406D01*
X10594Y10874D02*
X22406D01*
X38817Y56211D02*
Y82589D01*
X53383Y56211D02*
Y82589D01*
X38817D02*
X53383D01*
X38817Y56211D02*
X53383D01*
X26700Y58319D02*
Y68119D01*
X21900Y58319D02*
Y68119D01*
X26700D01*
X21900Y58319D02*
X26700D01*
X59595Y-4874D02*
Y10874D01*
X71406Y-4874D02*
Y10874D01*
X59595Y-4874D02*
X71406D01*
X59595Y10874D02*
X71406D01*
X28900Y36800D02*
Y39800D01*
X20900Y36800D02*
Y39800D01*
Y36800D02*
X28900D01*
X20900Y39800D02*
X28900D01*
X7839Y33043D02*
X12761D01*
X7839Y25957D02*
X12761D01*
Y33043D01*
X7839Y25957D02*
Y33043D01*
X6100Y62400D02*
Y76400D01*
X18100Y62400D02*
Y76400D01*
X6100Y62400D02*
X18100D01*
X6100Y76400D02*
X18100D01*
M02*
